<svg xmlns="http://www.w3.org/2000/svg" xmlns:xlink="http://www.w3.org/1999/xlink" width="500" height="500" viewBox="0 0 500 500"><defs><clipPath id="a"><rect width="500" height="500" transform="translate(-2820 6455)" fill="none" stroke="#707070" stroke-width="1"/></clipPath><clipPath id="b"><rect width="497" height="497" transform="translate(0 0.08)" fill="none"/></clipPath></defs><g transform="translate(2820 -6455)" clip-path="url(#a)"><g transform="translate(-2818 6454)"><g transform="translate(0 2.92)" clip-path="url(#b)"><path d="M138.323,55.2,129.19,38.58l8.679-4.765c3.843-2.111,7.522-1.288,9.621,2.532s.832,7.391-3.01,9.5l-4.959,2.723,2.521,4.59ZM134.75,39.887l2.93,5.334,4.563-2.5c2.057-1.131,2.7-2.257,1.552-4.34-1.117-2.035-2.425-2.124-4.484-.995Z" transform="translate(-9.117 -4.066)" fill="#ffbe41"/><path d="M149.38,40.7c-1.884-4.119-.166-8.047,4.08-9.988,4.22-1.929,8.037-1,9.886,3.045a10.353,10.353,0,0,1,.461,1.283l-10.5,4.8c1.009,1.935,2.324,2.362,4.819,1.221,2.29-1.046,2.817-2,2.311-3.109l-.117-.258,3.859-1.764.129.283c1.284,2.806-.549,6.01-4.639,7.88-4.3,1.964-8.2,1.193-10.292-3.389m3.051-2.919,6.844-3.128c-.881-1.652-2.25-1.929-4.515-.893-2.29,1.046-2.915,2.266-2.329,4.022" transform="translate(-8.032 -4.23)" fill="#ffbe41"/><path d="M166.554,40.7,161.6,27.406l3.685-1.373,1.52,4.086.24-.089c-.486-2.357.315-5.072,3.786-6.367,3.631-1.353,6.222.34,7.318,3.286l3.082,8.279-3.975,1.481-2.588-6.952c-.791-2.123-2-2.7-4.439-1.791-2.517.939-3.043,2.283-2.2,4.538l2.5,6.713Z" transform="translate(-7.307 -4.596)" fill="#ffbe41"/><path d="M179.911,31.918c-.59-2.01.535-3.7,3.35-4.847l5.658-2.309-.152-.516c-.518-1.765-1.449-2.023-3.619-1.386-2.062.6-2.743,1.395-2.289,2.943l.033.109-4.1,1.2-.024-.081c-.988-3.368,1.147-6.531,5.622-7.845,4.532-1.329,7.361.378,8.405,3.936l2.345,7.986-3.8,1.114-.917-3.124-.216.064c0,2.3-1.526,4.135-4.538,5.018-2.93.859-5.092.019-5.762-2.263m6.084-.959c2.766-.812,4.068-1.9,3.61-3.861l-4.561,1.927c-.953.368-1.307.768-1.116,1.42.215.733.873.865,2.067.514" transform="translate(-6.362 -4.845)" fill="#ffbe41"/><path d="M195.508,31.025l-3.019-13.859,3.84-.835.928,4.26.249-.055c-.147-2.4,1.028-4.975,4.648-5.763,3.785-.822,6.111,1.222,6.78,4.291l1.879,8.631-4.144.9-1.578-7.248c-.483-2.213-1.6-2.954-4.141-2.4-2.625.571-3.335,1.827-2.823,4.178l1.525,7Z" transform="translate(-5.584 -5.076)" fill="#ffbe41"/><path d="M209.48,19.845c-.553-3.924,1.64-6.807,5.84-7.4,2.856-.4,5.074.542,5.866,2.918l.224-.032-.478-3.392,3.92-.552,1.689,12c.69,4.905-1.969,7.51-6.981,8.216-4.536.64-7.677-.976-8.174-4.508l4.2-.592c.222,1.57.9,1.96,3.76,1.557,2.688-.379,3.422-1.054,3.034-3.8l-.446-3.169-.224.033c-.156,2.137-1.607,3.8-4.743,4.241-4.173.588-6.931-1.567-7.488-5.52m8.435,1.7c2.688-.379,3.9-1.321,3.626-3.255l-.044-.308c-.268-1.907-1.715-2.446-4.318-2.079-2.688.379-3.762,1.273-3.469,3.348s1.574,2.665,4.206,2.294" transform="translate(-4.64 -5.255)" fill="#ffbe41"/><path d="M229.729,15.788c-.252-5.913,3.454-9.926,9.7-10.193,5.877-.251,9.79,2.53,9.994,7.339l.018.424-4.719.2-.017-.424c-.107-2.49-1.571-3.617-5.017-3.47-4.155.178-5.645,1.716-5.466,5.931s1.8,5.62,5.952,5.443c3.446-.148,4.808-1.4,4.7-3.886l-.018-.423,4.72-.2.017.424c.206,4.809-3.427,7.911-9.332,8.164-6.244.267-10.281-3.415-10.533-9.327" transform="translate(-3.505 -5.579)" fill="#ffbe41"/><path d="M249.786,18.9l.327-8.827,4.238.157-.274,7.412c-.086,2.291.84,3.289,3.524,3.388,2.769.1,3.8-.935,3.888-3.341l.266-7.185,4.239.156-.525,14.174-3.957-.148.162-4.328-.227-.008c-.455,2.363-2.262,4.534-5.992,4.4-3.984-.148-5.786-2.679-5.669-5.847" transform="translate(-2.385 -5.329)" fill="#ffbe41"/><path d="M265.773,24.93l1.477-14.109,3.911.41-.393,3.746.253.026a4.509,4.509,0,0,1,5.147-3.533c3.151.33,4.218,2.635,3.928,5.394l-.244,2.338-4.219-.441.152-1.464c.164-1.549-.385-2.29-2.1-2.47-1.885-.2-2.651.6-2.836,2.379l-.856,8.167Z" transform="translate(-1.493 -5.286)" fill="#ffbe41"/><path d="M278.971,26.342,281.3,12.354,285.18,13l-.62,3.713.251.041a4.505,4.505,0,0,1,5.351-3.21c3.123.522,4.048,2.886,3.591,5.622l-.385,2.316-4.183-.7.241-1.452c.258-1.536-.245-2.308-1.946-2.592-1.869-.313-2.682.441-2.976,2.2l-1.349,8.1Z" transform="translate(-0.756 -5.201)" fill="#ffbe41"/><path d="M291.331,33.3l.888-3.746,3.385.8c1.018.241,1.522.069,1.942-.472l-3.46-15.452,4.678,1.107,1.423,7,.385,3.524.276.064,1.876-3.018,4.1-5.663,4.595,1.087L301.093,31.71c-2.005,2.579-4.039,2.943-7.5,2.122Z" transform="translate(-0.066 -5.085)" fill="#ffbe41"/><path d="M310.567,33.14l6.325-17.886,5.413,1.916,1.071,10.291.2,4.786.295.1,3.108-3.614,7.168-7.375,5.439,1.926-6.324,17.886-4-1.416,3.21-9.077,1.125-2.756-.295-.1-2.031,2.435L324.7,36.944l-4.853-1.719-.9-9.33-.048-3.172-.294-.1-.832,2.86-3.21,9.076Z" transform="translate(1.008 -5.039)" fill="#ffbe41"/><path d="M335.487,34.37c1.89-4.117,5.985-5.383,10.226-3.437,4.214,1.934,6,5.432,4.145,9.472a10.557,10.557,0,0,1-.669,1.188L338.7,36.781c-.806,2.028-.27,3.3,2.221,4.446,2.287,1.049,3.355.824,3.863-.283l.117-.258,3.856,1.768-.13.283c-1.288,2.805-4.91,3.511-8.995,1.635-4.291-1.969-6.253-5.424-4.15-10m4.2.4,6.835,3.137c.676-1.745-.01-2.963-2.271-4-2.287-1.049-3.618-.725-4.564.864" transform="translate(2.351 -4.214)" fill="#ffbe41"/><path d="M349.677,40.889c2.172-3.974,6.347-4.951,10.441-2.712,4.069,2.225,5.605,5.84,3.473,9.74a10.453,10.453,0,0,1-.751,1.138L352.717,43.52c-.947,1.967-.5,3.275,1.9,4.591,2.208,1.208,3.289,1.057,3.874-.012l.135-.248,3.722,2.035-.149.273c-1.48,2.708-5.143,3.158-9.089,1-4.142-2.266-5.857-5.849-3.439-10.271m4.163.7,6.6,3.608c.8-1.694.2-2.956-1.985-4.15-2.208-1.207-3.558-.977-4.614.543" transform="translate(3.129 -3.825)" fill="#ffbe41"/><path d="M395.841,81.461l13.32-13.5,7.042,6.953c3.119,3.079,3.382,6.839.32,9.943s-6.843,2.911-9.962-.168l-4.025-3.973L398.86,84.44Zm13.654-7.8-4.274,4.333,3.7,3.655c1.67,1.648,2.931,1.94,4.6.246,1.63-1.652,1.343-2.931-.327-4.579Z" transform="translate(5.768 -2.097)" fill="#ffbe41"/><path d="M412.594,87.9c3.408-2.985,7.666-2.466,10.741,1.043,3.058,3.487,3.257,7.41-.087,10.339a10.743,10.743,0,0,1-1.1.811l-7.605-8.677c-1.565,1.521-1.6,2.9.212,4.966,1.659,1.893,2.726,2.122,3.642,1.321l.213-.187,2.8,3.19-.234.206c-2.321,2.032-5.916,1.2-8.881-2.184-3.113-3.551-3.491-7.506.3-10.826m3.672,2.084,4.959,5.657c1.33-1.317,1.2-2.708-.437-4.579-1.66-1.893-3.007-2.141-4.522-1.078" transform="translate(6.55 -1.093)" fill="#ffbe41"/><path d="M417.624,104.38l11.309-8.564,2.374,3.133-3.476,2.632.154.2c2.117-1.143,4.948-1.158,7.185,1.794,2.34,3.088,1.463,6.057-1.042,7.955l-7.042,5.333-2.561-3.381,5.914-4.479c1.805-1.367,2.009-2.691.438-4.765-1.622-2.142-3.061-2.258-4.979-.806l-5.71,4.325Z" transform="translate(6.984 -0.542)" fill="#ffbe41"/><path d="M429.8,114.616c1.755-1.145,3.7-.553,5.608,1.811l3.844,4.751.451-.294c1.542-1.006,1.519-1.971.283-3.865-1.173-1.8-2.126-2.225-3.479-1.343l-.1.062-2.332-3.577.072-.046c2.94-1.917,6.586-.784,9.135,3.123,2.582,3.955,1.761,7.156-1.345,9.182l-6.973,4.546-2.162-3.315,2.727-1.778-.124-.19c-2.206.662-4.4-.269-6.116-2.9-1.668-2.557-1.487-4.869.506-6.169m2.672,5.548c1.576,2.416,3,3.347,4.741,2.344l-3.162-3.812c-.628-.807-1.113-1.03-1.682-.66-.64.418-.577,1.085.1,2.127" transform="translate(7.572 0.317)" fill="#ffbe41"/><path d="M435.207,129.355l12.4-6.892,1.911,3.435-3.812,2.119.125.223c2.256-.835,5.062-.453,6.862,2.785,1.883,3.386.6,6.2-2.15,7.73l-7.72,4.293-2.061-3.707,6.483-3.606c1.98-1.1,2.368-2.383,1.1-4.657-1.3-2.348-2.713-2.665-4.817-1.5l-6.261,3.481Z" transform="translate(7.965 0.946)" fill="#ffbe41"/><path d="M450.089,139.444c3.6-1.665,6.992-.4,8.772,3.45,1.212,2.617.948,5.014-1.1,6.458l.1.206,3.109-1.439,1.662,3.593-11,5.089c-4.5,2.081-7.759.288-9.885-4.306-1.923-4.158-1.285-7.631,1.953-9.13l1.781,3.85c-1.439.665-1.614,1.433-.4,4.05,1.141,2.463,2,2.97,4.518,1.805l2.9-1.344-.1-.2c-2.093.469-4.1-.439-5.433-3.313-1.768-3.824-.5-7.089,3.12-8.765m.813,8.566c1.139,2.464,2.391,3.349,4.164,2.529l.283-.131c1.747-.809,1.846-2.349.741-4.736-1.139-2.463-2.307-3.232-4.207-2.352s-2.1,2.278-.981,4.691" transform="translate(8.27 1.853)" fill="#ffbe41"/><path d="M459.759,157.61c5.585-1.946,10.5.447,12.555,6.351,1.936,5.556.4,10.1-4.139,11.686l-.4.14-1.555-4.461.4-.14c2.352-.818,3.009-2.546,1.872-5.8-1.367-3.926-3.27-4.912-7.252-3.523s-4.86,3.341-3.491,7.267c1.135,3.258,2.724,4.2,5.075,3.384l.4-.139,1.555,4.461-.4.139c-4.544,1.583-8.562-1-10.508-6.584-2.058-5.9.3-10.83,5.887-12.775" transform="translate(8.966 2.87)" fill="#ffbe41"/><path d="M462.376,177.825l8.55-2.217,1.065,4.106-7.178,1.861c-2.22.575-2.911,1.748-2.236,4.348.7,2.683,1.986,3.371,4.315,2.767l6.961-1.8,1.066,4.105-13.73,3.559-.994-3.832,4.192-1.086-.056-.22c-2.395.241-4.993-.868-5.932-4.481-1-3.859.907-6.312,3.976-7.107" transform="translate(9.245 3.912)" fill="#ffbe41"/><path d="M461.227,194.837l13.94-2.623.725,3.862-3.7.7.047.25a4.5,4.5,0,0,1,4.855,3.92c.585,3.112-1.318,4.793-4.044,5.307l-2.309.435-.782-4.169,1.446-.271c1.53-.288,2.082-1.025,1.765-2.721-.352-1.861-1.339-2.366-3.091-2.037l-8.069,1.518Z" transform="translate(9.418 4.839)" fill="#ffbe41"/><path d="M463.637,207.834l14.076-1.767.489,3.9-3.737.469.031.252A4.506,4.506,0,0,1,479.1,214.9c.394,3.143-1.608,4.706-4.361,5.051l-2.332.292-.527-4.208,1.46-.184c1.546-.194,2.143-.9,1.929-2.608-.235-1.88-1.191-2.445-2.961-2.222l-8.149,1.023Z" transform="translate(9.552 5.612)" fill="#ffbe41"/><path d="M460.758,221.656l3.843-.226.2,3.472c.062,1.044.37,1.48,1.008,1.725l13.806-7.75.284,4.8-6.3,3.371-3.265,1.382.017.282,3.429.931,6.6,2.3.276,4.713-15.585-6.109c-3.047-1.18-3.977-3.023-4.186-6.58Z" transform="translate(9.391 6.327)" fill="#ffbe41"/><path d="M466.435,239.907l18.954.874-.264,5.732-9.541,4-4.523,1.575-.015.309,4.363,1.929,9.137,4.723-.267,5.762-18.954-.874.2-4.236,9.619.442,2.965.279.013-.31-2.918-1.239-8.3-4.346.237-5.14,8.67-3.562,3.021-.964.015-.31-2.978.033-9.619-.443Z" transform="translate(9.646 7.501)" fill="#ffbe41"/><path d="M472.168,264.3c4.488.611,6.889,4.162,6.26,8.784-.627,4.6-3.456,7.321-7.86,6.721a10.524,10.524,0,0,1-1.33-.3l1.557-11.43c-2.174-.183-3.237.7-3.608,3.418-.34,2.494.187,3.45,1.394,3.614l.28.038-.573,4.2-.308-.042c-3.057-.416-4.784-3.676-4.177-8.13.638-4.679,3.372-7.56,8.365-6.881m.836,4.138-1.016,7.452c1.867.139,2.833-.87,3.168-3.335.34-2.494-.357-3.672-2.153-4.117" transform="translate(9.555 8.857)" fill="#ffbe41"/><path d="M470.066,279.776c4.436.923,6.585,4.635,5.633,9.2-.945,4.542-3.958,7.063-8.311,6.159a10.833,10.833,0,0,1-1.308-.388l2.354-11.3c-2.158-.335-3.281.473-3.841,3.159-.513,2.464-.055,3.456,1.138,3.7l.278.057-.866,4.155-.305-.063c-3.022-.628-4.518-4-3.6-8.406.964-4.624,3.895-7.308,8.83-6.282m.546,4.187-1.534,7.368c1.853.269,2.888-.672,3.4-3.108.513-2.465-.1-3.69-1.861-4.259" transform="translate(9.403 9.714)" fill="#ffbe41"/><path d="M446.25,332.5l16.914,8.582-4.477,8.823c-1.983,3.909-5.484,5.3-9.371,3.33s-4.856-5.634-2.873-9.541L449,338.654l-4.67-2.369Zm11.588,10.634-5.428-2.754-2.353,4.638c-1.062,2.094-.954,3.384,1.166,4.46,2.07,1.051,3.2.387,4.262-1.705Z" transform="translate(8.475 12.67)" fill="#ffbe41"/><path d="M445.122,350.522c3.879,2.341,4.677,6.555,2.266,10.55-2.4,3.971-6.074,5.352-9.881,3.056a10.757,10.757,0,0,1-1.105-.8l5.962-9.879c-1.925-1.029-3.251-.641-4.669,1.708-1.3,2.156-1.2,3.242-.153,3.872l.243.146-2.192,3.632-.267-.162c-2.643-1.593-2.936-5.273-.613-9.122,2.44-4.044,6.094-5.6,10.41-3m-.872,4.13-3.888,6.442c1.66.869,2.946.324,4.233-1.807,1.3-2.155,1.129-3.514-.345-4.635" transform="translate(7.85 13.605)" fill="#ffbe41"/><path d="M431.168,360.288l11.591,8.176-2.267,3.212-3.563-2.514-.147.209c1.732,1.671,2.6,4.362.469,7.389-2.233,3.165-5.33,3.231-7.9,1.419l-7.219-5.092,2.446-3.465,6.061,4.276c1.851,1.306,3.176,1.1,4.675-1.027,1.548-2.2,1.225-3.6-.742-4.988l-5.852-4.129Z" transform="translate(7.235 14.221)" fill="#ffbe41"/><path d="M424.982,375.039c1.623,1.324,1.65,3.353-.022,5.894l-3.363,5.1.417.34c1.426,1.164,2.341.85,3.77-.9,1.359-1.665,1.474-2.7.224-3.722l-.088-.072,2.7-3.309.065.054c2.721,2.219,2.748,6.037-.2,9.653-2.987,3.658-6.286,3.849-9.161,1.506l-6.451-5.262,2.5-3.068,2.523,2.059.144-.175c-1.3-1.9-1.08-4.275.9-6.707,1.931-2.367,4.191-2.9,6.034-1.393m-4.477,4.232c-1.825,2.234-2.282,3.87-.795,5.227l2.672-4.171c.579-.843.645-1.371.119-1.8-.593-.484-1.21-.22-2,.744" transform="translate(6.719 14.997)" fill="#ffbe41"/><path d="M412.711,384.652l10.34,9.718-2.692,2.864-3.178-2.987-.174.186c1.482,1.9,1.971,4.685-.566,7.384-2.652,2.823-5.728,2.455-8.018.3l-6.439-6.051,2.9-3.091,5.407,5.082c1.65,1.552,2.992,1.531,4.773-.363,1.84-1.959,1.714-3.4-.04-5.045l-5.221-4.907Z" transform="translate(6.111 15.581)" fill="#ffbe41"/><path d="M407.556,401.868c2.68,2.919,2.507,6.538-.619,9.406-2.123,1.951-4.487,2.429-6.485.92l-.168.153,2.316,2.524-2.916,2.676-8.192-8.929c-3.349-3.651-2.634-7.305,1.095-10.728,3.375-3.1,6.878-3.547,9.289-.918l-3.125,2.869c-1.071-1.169-1.855-1.1-3.979.849-2,1.835-2.221,2.807-.345,4.851l2.162,2.358.167-.153c-1.083-1.85-.83-4.043,1.5-6.184,3.1-2.849,6.6-2.637,9.3.305m-7.911,3.381c-2,1.835-2.462,3.3-1.141,4.737l.21.229c1.3,1.419,2.8,1.043,4.736-.735,2-1.835,2.377-3.182.961-4.726s-2.808-1.3-4.766.494" transform="translate(5.405 16.172)" fill="#ffbe41"/><path d="M393.246,416.634c3.559,4.728,2.781,10.135-2.211,13.893-4.7,3.539-9.5,3.466-12.391-.379l-.254-.339,3.771-2.841.255.339c1.5,1.99,3.343,2.091,6.1.014,3.32-2.5,3.676-4.612,1.139-7.982s-4.666-3.611-7.986-1.11c-2.755,2.076-3.17,3.876-1.671,5.866l.256.34-3.771,2.84-.255-.339c-2.9-3.845-1.662-8.46,3.059-12.016,4.992-3.76,10.4-3.014,13.961,1.714" transform="translate(4.586 17.137)" fill="#ffbe41"/><path d="M374.808,425.307l4.73,7.459-3.583,2.272-3.972-6.264c-1.228-1.936-2.556-2.234-4.825-.8-2.342,1.484-2.6,2.922-1.313,4.955l3.851,6.073-3.583,2.271-7.6-11.978,3.345-2.12,2.32,3.658.191-.121c-.963-2.206-.7-5.017,2.452-7.016,3.368-2.136,6.287-1.071,7.985,1.607" transform="translate(3.684 17.697)" fill="#ffbe41"/><path d="M357.932,429.484l6.764,12.471-3.456,1.873-1.795-3.31-.224.12a4.509,4.509,0,0,1-2.246,5.826c-2.784,1.51-4.968.213-6.291-2.226l-1.12-2.065,3.728-2.023.7,1.293c.743,1.369,1.614,1.67,3.129.848,1.666-.9,1.844-2,.993-3.567l-3.915-7.219Z" transform="translate(3.185 18.083)" fill="#ffbe41"/><path d="M346.309,435.765l5.989,12.858-3.562,1.66-1.59-3.413-.231.107a4.507,4.507,0,0,1-2.6,5.676c-2.87,1.338-4.97-.09-6.141-2.606l-.992-2.13,3.844-1.791.622,1.335c.658,1.412,1.509,1.765,3.072,1.037,1.717-.8,1.961-1.883,1.209-3.5l-3.467-7.443Z" transform="translate(2.493 18.434)" fill="#ffbe41"/><path d="M332.261,437.24l1.387,3.591-3.245,1.252c-.976.377-1.294.8-1.335,1.487l11.591,10.787-4.483,1.732-5.13-4.969-2.312-2.687-.264.1.159,3.551-.181,6.987-4.4,1.7,1.064-16.7c.194-3.261,1.666-4.709,4.989-5.993Z" transform="translate(1.76 18.516)" fill="#ffbe41"/><path d="M317.244,448.208l4.89,18.328-5.546,1.482-6.7-7.882-2.868-3.836-.3.08-.52,4.74-1.744,10.138-5.575,1.489-4.889-18.328,4.1-1.095,2.481,9.3.63,2.909.3-.08.3-3.157,1.635-9.228,4.973-1.329,6.015,7.185,1.831,2.589.3-.081-.93-2.829-2.482-9.3Z" transform="translate(0.082 19.128)" fill="#ffbe41"/><path d="M295.221,460.988c.769,4.465-1.9,7.827-6.494,8.619-4.571.787-8.022-1.09-8.776-5.47a10.455,10.455,0,0,1-.118-1.359l11.37-1.96c-.48-2.129-1.642-2.876-4.346-2.411-2.48.428-3.234,1.218-3.028,2.418l.049.28-4.181.719-.053-.306c-.524-3.041,2.066-5.671,6.5-6.434,4.655-.8,8.225.939,9.08,5.905m-3.694,2.045-7.413,1.276c.428,1.823,1.681,2.44,4.135,2.018,2.48-.428,3.394-1.448,3.278-3.294" transform="translate(-0.722 19.502)" fill="#ffbe41"/><path d="M279.819,463.634c.457,4.505-2.435,7.672-7.075,8.142-4.613.468-7.925-1.643-8.373-6.065a10.381,10.381,0,0,1-.023-1.363l11.476-1.164c-.333-2.157-1.438-2.983-4.166-2.707-2.5.253-3.311.99-3.189,2.2l.029.282-4.219.428-.032-.309c-.31-3.069,2.455-5.512,6.927-5.965,4.7-.476,8.138,1.508,8.645,6.521m-3.826,1.782-7.483.758c.3,1.848,1.51,2.55,3.985,2.3,2.5-.254,3.486-1.208,3.5-3.058" transform="translate(-1.579 19.622)" fill="#ffbe41"/><path d="M219.229,456.492,215.9,475.166l-9.743-1.736c-4.315-.769-6.663-3.718-5.9-8.01s3.99-6.276,8.305-5.507l5.568.992.917-5.156ZM212.4,470.659l1.067-5.993-5.123-.912c-2.31-.412-3.515.064-3.932,2.4-.406,2.285.554,3.176,2.864,3.589Z" transform="translate(-5.158 19.549)" fill="#ffbe41"/><path d="M201.363,460.553c-1.12,4.389-4.925,6.371-9.446,5.218-4.495-1.147-6.88-4.269-5.78-8.576a10.826,10.826,0,0,1,.447-1.289l11.181,2.853c.43-2.14-.325-3.3-2.984-3.976-2.439-.623-3.449-.208-3.751.971l-.07.274-4.11-1.048.077-.3c.763-2.991,4.2-4.335,8.558-3.223,4.577,1.167,7.126,4.214,5.878,9.1m-4.206.359-7.289-1.86c-.353,1.838.54,2.914,2.952,3.53,2.438.622,3.69.065,4.337-1.669" transform="translate(-5.953 19.288)" fill="#ffbe41"/><path d="M188.109,449.944l-4.5,13.454-3.728-1.246,1.382-4.136-.242-.08c-1.1,2.14-3.429,3.751-6.943,2.577-3.676-1.227-4.63-4.173-3.634-7.154l2.8-8.378,4.023,1.343-2.35,7.036c-.718,2.149-.138,3.357,2.33,4.181,2.548.852,3.8.135,4.563-2.148l2.27-6.794Z" transform="translate(-6.834 18.948)" fill="#ffbe41"/><path d="M172.091,448.3c-.8,1.934-2.738,2.541-5.652,1.668l-5.852-1.756-.206.5c-.705,1.7-.143,2.484,1.947,3.352,1.984.824,3.01.637,3.629-.853l.043-.106,3.943,1.638-.033.078c-1.344,3.243-4.993,4.364-9.3,2.575-4.362-1.811-5.491-4.916-4.072-8.342l3.189-7.687,3.656,1.519-1.248,3.006.209.087c1.446-1.79,3.784-2.259,6.682-1.057,2.821,1.172,3.976,3.184,3.066,5.38m-5.337-3.075c-2.664-1.105-4.361-1.075-5.235.738l4.761,1.364c.973.311,1.5.224,1.759-.4.292-.705-.136-1.221-1.285-1.7" transform="translate(-7.623 18.635)" fill="#ffbe41"/><path d="M159.5,439.3l-6.353,12.68-3.516-1.76,1.953-3.9-.228-.113c-1.394,1.961-3.926,3.227-7.239,1.567-3.466-1.734-3.994-4.785-2.587-7.593l3.956-7.9,3.794,1.9-3.322,6.632c-1.014,2.025-.61,3.3,1.717,4.468,2.4,1.2,3.745.672,4.822-1.479l3.208-6.4Z" transform="translate(-8.469 18.24)" fill="#ffbe41"/><path d="M141.668,439.342c-2.032,3.4-5.547,4.272-9.189,2.1-2.477-1.479-3.611-3.608-2.737-5.955l-.194-.115-1.756,2.941-3.4-2.03,6.211-10.405c2.541-4.255,6.246-4.613,10.593-2.018,3.933,2.348,5.365,5.578,3.535,8.641l-3.642-2.174c.813-1.362.526-2.095-1.951-3.573-2.331-1.393-3.325-1.327-4.748,1.056l-1.64,2.746.194.117c1.462-1.568,3.636-1.952,6.355-.328,3.617,2.161,4.412,5.572,2.366,9m-5.5-6.617c-2.33-1.392-3.863-1.418-4.864.26l-.16.267c-.987,1.653-.2,2.982,2.059,4.331,2.33,1.392,3.728,1.367,4.8-.432s.447-3.064-1.836-4.426" transform="translate(-9.384 17.678)" fill="#ffbe41"/><path d="M123.383,429.836c-3.516,4.762-8.92,5.56-13.946,1.85-4.731-3.492-6.031-8.111-3.172-11.984l.252-.341,3.8,2.8-.252.342c-1.48,2-1.048,3.8,1.726,5.849,3.345,2.467,5.469,2.206,7.976-1.188s2.13-5.5-1.214-7.97c-2.776-2.048-4.619-1.93-6.1.074l-.252.341-3.8-2.8.252-.341c2.859-3.873,7.634-4.009,12.388-.5,5.028,3.711,5.857,9.109,2.342,13.869" transform="translate(-10.481 17.188)" fill="#ffbe41"/><path d="M109.707,414.653l-5.8,6.661-3.2-2.787,4.872-5.593c1.506-1.729,1.413-3.086-.613-4.852-2.092-1.819-3.544-1.659-5.125.156l-4.722,5.422-3.2-2.786,9.316-10.694,2.986,2.6-2.845,3.266.172.149c1.838-1.551,4.609-2.105,7.423.346,3.007,2.62,2.82,5.722.737,8.112" transform="translate(-11.197 16.448)" fill="#ffbe41"/><path d="M100.9,399.6,90.882,409.648,88.1,406.874l2.66-2.669-.181-.178a4.508,4.508,0,0,1-6.224-.485c-2.243-2.237-1.624-4.7.335-6.664l1.66-1.664,3,2.994-1.04,1.041c-1.1,1.1-1.138,2.024.082,3.241,1.343,1.338,2.443,1.2,3.7-.069l5.8-5.815Z" transform="translate(-11.7 16.17)" fill="#ffbe41"/><path d="M91.519,390.241,80.913,399.66,78.3,396.723l2.815-2.5-.169-.191a4.508,4.508,0,0,1-6.182-.863c-2.1-2.367-1.339-4.787.736-6.63l1.757-1.561,2.818,3.171-1.1.977c-1.164,1.035-1.259,1.951-.112,3.241,1.257,1.415,2.365,1.34,3.7.155l6.139-5.452Z" transform="translate(-12.225 15.599)" fill="#ffbe41"/><path d="M86.467,377.249l-3.041,2.362-2.132-2.748c-.642-.826-1.142-1.01-1.809-.852l-7,14.21-2.948-3.8,3.284-6.345,1.911-2.987-.173-.224L71.2,378.038l-6.746,1.837-2.894-3.731,16.306-3.785c3.181-.751,4.991.244,7.174,3.059Z" transform="translate(-12.892 14.881)" fill="#ffbe41"/><path d="M71.612,366.054l-16.137,9.973-3.019-4.883,5.614-8.687,2.844-3.854-.164-.264-4.689.87-10.208,1.256-3.034-4.906,16.138-9.974,2.23,3.608L53,354.254,50.4,355.7l.165.265,3.108-.625,9.307-1.1,2.707,4.377-5.144,7.833-1.949,2.5.163.264,2.441-1.707,8.189-5.061Z" transform="translate(-13.938 13.4)" fill="#ffbe41"/><path d="M52.522,348.692c-4.052,2.026-8.04.447-10.131-3.726-2.076-4.148-1.278-7.995,2.7-9.983a10.618,10.618,0,0,1,1.266-.507L51.522,344.8c1.9-1.077,2.28-2.405,1.051-4.859-1.127-2.251-2.1-2.744-3.19-2.2l-.254.127-1.9-3.795.278-.138c2.76-1.381,6.028.338,8.041,4.36,2.115,4.223,1.481,8.146-3.027,10.4M49.5,345.746l-3.368-6.728c-1.622.936-1.849,2.315-.735,4.541,1.128,2.252,2.368,2.832,4.1,2.187" transform="translate(-14.024 12.723)" fill="#ffbe41"/><path d="M45.532,334.721c-4.184,1.74-8.052-.113-9.843-4.422-1.781-4.283-.716-8.065,3.39-9.772a10.318,10.318,0,0,1,1.3-.417l4.431,10.653c1.969-.941,2.441-2.24,1.388-4.773-.967-2.324-1.9-2.883-3.029-2.416l-.261.109-1.629-3.918.287-.119c2.85-1.185,5.989.757,7.715,4.909,1.814,4.362.907,8.23-3.747,10.167m-2.813-3.15-2.888-6.946c-1.683.821-2.007,2.181-1.051,4.48.966,2.324,2.162,2.99,3.938,2.466" transform="translate(-14.383 11.933)" fill="#ffbe41"/><path d="M35.649,277.954,16.835,280.4l-1.28-9.817c-.567-4.347,1.538-7.474,5.863-8.037s7.189,1.915,7.755,6.264l.733,5.61,5.195-.678ZM20.078,275.7l6.037-.787-.674-5.161c-.3-2.328-1.119-3.334-3.479-3.027-2.3.3-2.861,1.486-2.558,3.814Z" transform="translate(-15.465 8.76)" fill="#ffbe41"/><path d="M26.241,262.179c-4.523.257-7.561-2.772-7.827-7.432-.264-4.631,1.992-7.848,6.431-8.1a10.38,10.38,0,0,1,1.363.036l.658,11.523c2.171-.239,3.046-1.308,2.889-4.048-.143-2.513-.843-3.352-2.059-3.281l-.282.016-.243-4.237.311-.018c3.082-.175,5.4,2.7,5.658,7.186.268,4.717-1.866,8.069-6.9,8.356m-1.612-3.9-.428-7.513c-1.86.221-2.615,1.4-2.474,3.882.144,2.512,1.053,3.538,2.9,3.631" transform="translate(-15.302 7.876)" fill="#ffbe41"/><path d="M32.4,246.3l-14.183-.226.063-3.93,4.359.07,0-.254c-2.371-.405-4.609-2.138-4.551-5.842.062-3.874,2.583-5.672,5.724-5.621l8.832.14-.068,4.241-7.416-.118c-2.265-.036-3.242.882-3.284,3.483-.042,2.686,1.018,3.664,3.423,3.7l7.162.115Z" transform="translate(-15.318 6.976)" fill="#ffbe41"/><path d="M29.132,230.525c-2.087-.173-3.257-1.831-3.316-4.872l-.118-6.109-.536-.044c-1.834-.152-2.409.623-2.6,2.877-.178,2.142.314,3.062,1.922,3.195l.112.01-.353,4.255-.084-.007c-3.5-.289-5.68-3.421-5.295-8.07.39-4.706,3-6.731,6.7-6.425l8.293.686-.327,3.946-3.243-.269-.019.226c2.146.83,3.309,2.912,3.049,6.039-.252,3.044-1.814,4.759-4.184,4.562m1.294-6.021c.24-2.874-.309-4.48-2.3-4.759l.158,4.95c0,1.021.245,1.5.923,1.552.761.062,1.12-.5,1.223-1.743" transform="translate(-15.278 6.128)" fill="#ffbe41"/><path d="M33.917,215.77,19.9,213.606l.6-3.885,4.31.665.038-.251c-2.294-.726-4.274-2.748-3.707-6.41.59-3.829,3.334-5.266,6.441-4.787l8.731,1.346-.648,4.194-7.332-1.132c-2.238-.345-3.332.431-3.729,3-.411,2.655.506,3.77,2.884,4.138l7.08,1.092Z" transform="translate(-15.218 5.209)" fill="#ffbe41"/><path d="M28.479,198.742c-3.861-.893-5.764-3.974-4.806-8.107.65-2.81,2.329-4.54,4.831-4.426l.051-.221-3.337-.772.894-3.857,11.8,2.73c4.827,1.117,6.3,4.535,5.16,9.466-1.033,4.462-3.669,6.813-7.145,6.01l.957-4.132c1.545.357,2.154-.14,2.8-2.951.612-2.645.246-3.571-2.457-4.2l-3.117-.721-.051.22c1.938.913,2.969,2.864,2.254,5.95-.95,4.105-3.953,5.906-7.843,5.007M33.1,191.48c.612-2.645.167-4.112-1.737-4.553l-.3-.07c-1.875-.434-2.9.723-3.492,3.285-.612,2.645-.164,3.968,1.877,4.44s3.054-.512,3.654-3.1" transform="translate(-15.02 4.233)" fill="#ffbe41"/><path d="M31.962,178.487c-5.606-1.892-8.017-6.794-6.018-12.715,1.879-5.573,5.88-8.221,10.44-6.682l.4.136L35.277,163.7l-.4-.136c-2.362-.8-3.939.163-5.043,3.431-1.327,3.938-.431,5.883,3.567,7.231s5.888.346,7.217-3.592c1.1-3.268.429-4.989-1.932-5.785l-.4-.136,1.51-4.474.4.135c4.56,1.539,6.147,6.045,4.258,11.645-2,5.92-6.883,8.359-12.489,6.467" transform="translate(-14.919 2.966)" fill="#ffbe41"/><path d="M42.226,160.825l-8.113-3.5,1.68-3.9,6.812,2.937c2.106.909,3.372.406,4.436-2.06,1.1-2.546.5-3.881-1.709-4.834l-6.6-2.849,1.679-3.895,13.027,5.618-1.567,3.635-3.978-1.716-.09.208c2.039,1.28,3.41,3.749,1.931,7.177-1.578,3.662-4.59,4.426-7.5,3.171" transform="translate(-14.424 2.077)" fill="#ffbe41"/><path d="M53.615,147.933,41,141.451l1.8-3.5,3.349,1.721.116-.226a4.505,4.505,0,0,1-1.43-6.075c1.446-2.817,3.979-2.977,6.447-1.709l2.091,1.074-1.937,3.772-1.31-.674c-1.385-.711-2.273-.468-3.062,1.065-.865,1.685-.395,2.69,1.192,3.505l7.3,3.751Z" transform="translate(-14.04 1.417)" fill="#ffbe41"/><path d="M59.692,136.169l-12.2-7.24,2.007-3.38,3.237,1.923.13-.22a4.506,4.506,0,0,1-1.056-6.151c1.616-2.722,4.156-2.727,6.54-1.311l2.021,1.2-2.164,3.647-1.267-.752c-1.338-.8-2.24-.606-3.121.876-.967,1.629-.559,2.66.975,3.571l7.06,4.191Z" transform="translate(-13.677 0.744)" fill="#ffbe41"/><path d="M70.657,127.41l-3.173-2.181,1.971-2.867c.593-.861.617-1.395.264-1.981l-15.662-2.364,2.725-3.96,7.041,1.206,3.426.914.16-.232-2.135-2.84-3.8-5.872,2.678-3.891,8.551,14.394c1.68,2.8,1.283,4.829-.737,7.765Z" transform="translate(-13.311 -0.122)" fill="#ffbe41"/><path d="M77.391,109.791l-14.4-12.349,3.735-4.359,9.982,2.71,4.533,1.541.2-.236-2.252-4.2-4.3-9.346,3.752-4.382,14.4,12.348-2.76,3.222L82.98,88.471l-2.164-2.043-.2.236,1.538,2.773,3.872,8.535-3.348,3.909-9.023-2.522-2.974-1.1-.2.237,2.366,1.807,7.307,6.266Z" transform="translate(-12.812 -1.472)" fill="#ffbe41"/><path d="M87.531,86.368c-3.163-3.242-2.874-7.522.466-10.78,3.318-3.24,7.224-3.65,10.327-.468a10.886,10.886,0,0,1,.869,1.052l-8.257,8.059c1.6,1.481,2.985,1.439,4.947-.476,1.8-1.758,1.973-2.837,1.123-3.709l-.2-.2,3.035-2.963.218.224c2.155,2.209,1.512,5.843-1.705,8.983-3.379,3.3-7.307,3.889-10.825.281m1.884-3.778L94.8,77.337c-1.386-1.259-2.768-1.057-4.55.681-1.8,1.758-1.976,3.117-.834,4.573" transform="translate(-11.566 -1.819)" fill="#ffbe41"/><path d="M397.391,52.363h0a1.285,1.285,0,0,0-.964-1.349l-.012,0a16.748,16.748,0,0,0-11.185,1.231,8.141,8.141,0,0,0-2.312-7.073,1.252,1.252,0,0,0-1.573-.176,10.779,10.779,0,0,0-3.529,14.346,16.222,16.222,0,0,0-.875,1.887.524.524,0,0,0,.3.678.449.449,0,0,0,.064.019.518.518,0,0,0,.609-.317,15.347,15.347,0,0,1,.921-1.945.454.454,0,0,0,.073-.128,15.81,15.81,0,0,1,17.277-7.506h0a.244.244,0,0,1,.178.247,24.211,24.211,0,0,1-1.734,7.146c-.009.017-.02.033-.027.05a11.1,11.1,0,0,1-15.125,4.754,25.49,25.49,0,0,0,9.91-6.391.521.521,0,1,0-.752-.721,24.727,24.727,0,0,1-10.547,6.461.461.461,0,0,0-.048.013,24.238,24.238,0,0,1-3.916.845.521.521,0,1,0,.135,1.033,25.464,25.464,0,0,0,3.878-.816,12.141,12.141,0,0,0,17.331-4.616.5.5,0,0,0,.072-.125,25.2,25.2,0,0,0,1.849-7.544m-16.12,2.556c.129-.545.229-1.053.307-1.545a26.727,26.727,0,0,0,.288-3.454.521.521,0,1,0-1.042-.025,25.186,25.186,0,0,1-.277,3.317,23.554,23.554,0,0,1-.784,3.266,16.542,16.542,0,0,0-1.33,1.8,9.685,9.685,0,0,1,3.473-12.416.223.223,0,0,1,.277.041,7.087,7.087,0,0,1,1.84,6.981,16.7,16.7,0,0,0-2.751,2.031" transform="translate(4.53 -3.39)" fill="#ffbe41"/><path d="M382.019,44.5a1.563,1.563,0,0,1,1.108.463,8.438,8.438,0,0,1,2.464,6.789,17.167,17.167,0,0,1,6.96-1.486h0a17.034,17.034,0,0,1,3.925.459l.022,0a1.586,1.586,0,0,1,1.187,1.661,25.486,25.486,0,0,1-1.869,7.63.772.772,0,0,1-.095.172,12.433,12.433,0,0,1-17.628,4.779,25.892,25.892,0,0,1-3.794.788.758.758,0,0,1-.108.008.839.839,0,0,1-.19-.022.812.812,0,0,1-.616-.69.8.8,0,0,1,.159-.6.811.811,0,0,1,.544-.315,24.029,24.029,0,0,0,3.868-.834l.017,0c.011,0,.026-.008.046-.012a24.443,24.443,0,0,0,10.4-6.378.818.818,0,0,1,.59-.252.817.817,0,0,1,.588,1.384,25.773,25.773,0,0,1-9.376,6.225,10.807,10.807,0,0,0,14.112-4.923c.01-.021.02-.039.028-.052a23.922,23.922,0,0,0,1.7-6.986,15.246,15.246,0,0,0-3.468-.4,15.561,15.561,0,0,0-13.425,7.76.749.749,0,0,1-.093.163,15.1,15.1,0,0,0-.892,1.888.814.814,0,0,1-.956.5l-.007,0a.657.657,0,0,1-.1-.031.823.823,0,0,1-.46-1.059,16.643,16.643,0,0,1,.814-1.777,11.075,11.075,0,0,1,3.7-14.6A1.53,1.53,0,0,1,382.019,44.5Zm2.83,8.259.09-.56a7.846,7.846,0,0,0-2.229-6.817.976.976,0,0,0-.691-.291.941.941,0,0,0-.513.153,10.484,10.484,0,0,0-3.432,13.953l.081.143-.079.144a16,16,0,0,0-.859,1.852.228.228,0,0,0,.131.3h0l.018,0,.008,0a.223.223,0,0,0,.262-.137,15.7,15.7,0,0,1,.939-1.983l.012-.022.016-.02a.158.158,0,0,0,.026-.047l.008-.021.011-.02A16.152,16.152,0,0,1,392.6,51.313a15.838,15.838,0,0,1,3.62.42h0l.038.008a.543.543,0,0,1,.4.557,24.515,24.515,0,0,1-1.755,7.235l-.016.032-.012.021-.009.018a11.4,11.4,0,0,1-15.527,4.881l-.591-.316.632-.223a25.194,25.194,0,0,0,9.8-6.317.223.223,0,0,0,.063-.16.226.226,0,0,0-.07-.16.22.22,0,0,0-.154-.063.223.223,0,0,0-.163.07,25.039,25.039,0,0,1-10.674,6.54l-.032.008-.021.006a24.621,24.621,0,0,1-3.958.853.224.224,0,0,0-.15.087.216.216,0,0,0-.043.162.225.225,0,0,0,.169.194.23.23,0,0,0,.078,0,25.312,25.312,0,0,0,3.838-.807l.129-.038.113.073a11.845,11.845,0,0,0,16.91-4.5l.012-.023.016-.021a.2.2,0,0,0,.03-.05l0-.007a24.9,24.9,0,0,0,1.827-7.455.99.99,0,0,0-.733-1.035l-.017,0a16.446,16.446,0,0,0-10.988,1.209Zm-2.836-7.218a.542.542,0,0,1,.377.158,7.409,7.409,0,0,1,1.917,7.272l-.032.114-.1.06a16.45,16.45,0,0,0-2.7,2l-.706.642.22-.929c.125-.53.224-1.028.3-1.523a26.473,26.473,0,0,0,.285-3.415.227.227,0,0,0-.222-.232h-.007a.225.225,0,0,0-.222.222,25.49,25.49,0,0,1-.28,3.355,23.773,23.773,0,0,1-.794,3.306l-.018.058-.039.046a16.327,16.327,0,0,0-1.307,1.771l-.283.446-.232-.475a9.981,9.981,0,0,1,3.578-12.794A.487.487,0,0,1,382.012,45.539Zm1.756,7.156a6.818,6.818,0,0,0-1.76-6.544,9.387,9.387,0,0,0-3.528,11.522c.31-.453.651-.9,1.017-1.338a23.043,23.043,0,0,0,.758-3.167,24.928,24.928,0,0,0,.273-3.279.817.817,0,1,1,1.633.041,27.047,27.047,0,0,1-.292,3.49c-.037.232-.078.464-.124.7A17,17,0,0,1,383.768,52.7Z" transform="translate(4.53 -3.39)" fill="#ffbe41"/><path d="M250.454,476.832h0a1.284,1.284,0,0,1-1.481.741l-.014,0a16.765,16.765,0,0,1-9.311-6.325,8.138,8.138,0,0,1-5.348,5.17,1.252,1.252,0,0,1-1.472-.581,10.777,10.777,0,0,1,3.58-14.333,16.361,16.361,0,0,1,.109-2.079.524.524,0,0,1,.578-.46.66.66,0,0,1,.066.014.52.52,0,0,1,.391.565,15.52,15.52,0,0,0-.1,2.151.531.531,0,0,1,.006.147,15.827,15.827,0,0,0,11.765,14.723h0a.245.245,0,0,0,.272-.134,24.264,24.264,0,0,0,1.8-7.128.539.539,0,0,1,0-.058,11.116,11.116,0,0,0-11.148-11.283,25.534,25.534,0,0,1,5.775,10.289.521.521,0,0,1-1,.285,24.714,24.714,0,0,0-6.3-10.648.354.354,0,0,1-.036-.034,24.287,24.287,0,0,0-3.067-2.58.521.521,0,0,1,.428-.93.53.53,0,0,1,.175.081,25.459,25.459,0,0,1,3.047,2.537,12.156,12.156,0,0,1,13.163,12.194.544.544,0,0,1,.005.144,25.235,25.235,0,0,1-1.889,7.534M237.4,467.025c-.139.541-.289,1.038-.449,1.51a26.61,26.61,0,0,1-1.36,3.186.521.521,0,1,1-.931-.466,25.248,25.248,0,0,0,1.3-3.061,23.61,23.61,0,0,0,.832-3.254,16.79,16.79,0,0,1-.335-2.217,9.685,9.685,0,0,0-2.729,12.6.224.224,0,0,0,.264.094,7.077,7.077,0,0,0,4.887-5.31,16.761,16.761,0,0,1-1.483-3.084" transform="translate(-3.409 19.47)" fill="#ffbe41"/><path d="M249.275,477.906a1.551,1.551,0,0,1-.374-.046l-.017,0a17.105,17.105,0,0,1-9.149-6.006,8.437,8.437,0,0,1-5.35,4.847,1.608,1.608,0,0,1-.467.07,1.542,1.542,0,0,1-1.349-.79,11.073,11.073,0,0,1,3.542-14.636,16.8,16.8,0,0,1,.112-1.953.821.821,0,0,1,.814-.725.843.843,0,0,1,.088,0h.01a.956.956,0,0,1,.1.02.818.818,0,0,1,.613.886,15.281,15.281,0,0,0-.094,2.088.825.825,0,0,1,.007.181,15.594,15.594,0,0,0,6.964,12.391,15.218,15.218,0,0,0,4.531,2.028,23.974,23.974,0,0,0,1.759-6.969c0-.018,0-.038,0-.06a10.821,10.821,0,0,0-10.174-10.959,25.82,25.82,0,0,1,5.381,9.894.819.819,0,0,1-.787,1.041.819.819,0,0,1-.784-.594,24.431,24.431,0,0,0-6.217-10.507.463.463,0,0,1-.039-.037l-.008-.008a24.09,24.09,0,0,0-3.03-2.549.816.816,0,0,1,.67-1.458.825.825,0,0,1,.274.127,25.868,25.868,0,0,1,2.987,2.474c.3-.022.6-.033.905-.033a12.452,12.452,0,0,1,12.443,12.511.813.813,0,0,1,0,.194,25.526,25.526,0,0,1-1.911,7.62A1.575,1.575,0,0,1,249.275,477.906Zm-.246-.623.01,0a.97.97,0,0,0,.236.029,1,1,0,0,0,.907-.6,24.935,24.935,0,0,0,1.866-7.445v0a.256.256,0,0,0,0-.066l0-.024v-.024a11.851,11.851,0,0,0-11.852-11.939c-.329,0-.662.014-.991.041l-.134.011-.1-.094a25.284,25.284,0,0,0-3.012-2.508.235.235,0,0,0-.077-.036.223.223,0,0,0-.053-.006.227.227,0,0,0-.222.261.224.224,0,0,0,.092.148,24.684,24.684,0,0,1,3.1,2.609l.015.014.006,0,.018.018a25.025,25.025,0,0,1,6.38,10.776.226.226,0,0,0,.216.166.221.221,0,0,0,.062-.009.226.226,0,0,0,.138-.108.222.222,0,0,0,.02-.171,25.239,25.239,0,0,0-5.709-10.17l-.454-.493.71,0A11.411,11.411,0,0,1,251.6,469.247v.012c0,.008,0,.016,0,.025v.022l0,.023a24.566,24.566,0,0,1-1.826,7.215l0,.006a.544.544,0,0,1-.491.315.509.509,0,0,1-.122-.015h-.005a15.812,15.812,0,0,1-4.759-2.12,16.154,16.154,0,0,1-7.229-12.879v-.018l0-.018a.236.236,0,0,0,0-.067l0-.023V461.7a15.865,15.865,0,0,1,.1-2.192.225.225,0,0,0-.168-.245l-.032-.007a.229.229,0,0,0-.247.2,16.145,16.145,0,0,0-.107,2.04l0,.164-.138.088a10.481,10.481,0,0,0-3.482,13.94.951.951,0,0,0,.833.487,1.017,1.017,0,0,0,.3-.044,7.843,7.843,0,0,0,5.154-4.983l.183-.538.336.458A16.513,16.513,0,0,0,249.029,477.283Zm-15.11-1.558a.507.507,0,0,1-.45-.259,9.98,9.98,0,0,1,2.815-12.981l.425-.31.044.524a16.571,16.571,0,0,0,.329,2.178l.013.059-.011.06a23.838,23.838,0,0,1-.843,3.294,25.558,25.558,0,0,1-1.319,3.1.227.227,0,0,0,.1.3.231.231,0,0,0,.1.024.218.218,0,0,0,.2-.122,26.368,26.368,0,0,0,1.347-3.154c.166-.491.311-.978.442-1.487l.239-.927.325.9a16.509,16.509,0,0,0,1.457,3.03l.062.1-.025.116a7.4,7.4,0,0,1-5.091,5.531A.566.566,0,0,1,233.919,475.725Zm2.3-12.441a9.387,9.387,0,0,0-2.263,11.838,6.807,6.807,0,0,0,4.612-4.961,17.045,17.045,0,0,1-1.122-2.205c-.068.225-.139.449-.215.674a26.937,26.937,0,0,1-1.375,3.224.8.8,0,0,1-.729.453.828.828,0,0,1-.365-.085.819.819,0,0,1-.367-1.1,24.984,24.984,0,0,0,1.29-3.026,23.1,23.1,0,0,0,.81-3.155C236.374,464.4,236.282,463.841,236.217,463.284Z" transform="translate(-3.409 19.47)" fill="#ffbe41"/><path d="M24.4,309.226h0a1.284,1.284,0,0,1-.74-1.483l0-.012a16.777,16.777,0,0,1,6.317-9.322,8.141,8.141,0,0,1-5.164-5.355,1.258,1.258,0,0,1,.581-1.474,10.751,10.751,0,0,1,14.316,3.586,16.1,16.1,0,0,1,2.076.109.523.523,0,0,1,.46.579.5.5,0,0,1-.014.067.518.518,0,0,1-.564.391,15.485,15.485,0,0,0-2.148-.1.46.46,0,0,1-.147.005A15.82,15.82,0,0,0,24.667,308v0a.246.246,0,0,0,.134.273,24.19,24.19,0,0,0,7.12,1.808.346.346,0,0,1,.057,0,11.117,11.117,0,0,0,11.27-11.161A25.482,25.482,0,0,1,32.97,304.7a.521.521,0,0,1-.284-1,24.712,24.712,0,0,0,10.635-6.312.22.22,0,0,1,.035-.036,24.527,24.527,0,0,0,2.576-3.071.521.521,0,0,1,.929.428.51.51,0,0,1-.081.175,25.385,25.385,0,0,1-2.534,3.05,12.157,12.157,0,0,1-12.18,13.179.5.5,0,0,1-.144.005,25.115,25.115,0,0,1-7.525-1.892m9.795-13.07c-.54-.14-1.036-.289-1.508-.451a26.584,26.584,0,0,1-3.183-1.36.521.521,0,1,1,.465-.933,25.019,25.019,0,0,0,3.059,1.306,23.422,23.422,0,0,0,3.25.833,16.567,16.567,0,0,1,2.214-.335A9.66,9.66,0,0,0,25.9,292.484a.225.225,0,0,0-.093.264,7.074,7.074,0,0,0,5.3,4.894,16.6,16.6,0,0,1,3.08-1.485" transform="translate(-15.01 10.309)" fill="#ffbe41"/><path d="M31.973,311.416a.691.691,0,0,1-.082,0,25.408,25.408,0,0,1-7.609-1.914,1.586,1.586,0,0,1-.912-1.827l0-.018a17.115,17.115,0,0,1,6-9.156,8.375,8.375,0,0,1-2.391-1.505,8.472,8.472,0,0,1-2.452-3.852,1.549,1.549,0,0,1,.719-1.818,11.047,11.047,0,0,1,14.62,3.547,16.5,16.5,0,0,1,1.95.112.821.821,0,0,1,.72.9.709.709,0,0,1-.02.1.814.814,0,0,1-.791.622.835.835,0,0,1-.1-.005,15.268,15.268,0,0,0-2.083-.094.745.745,0,0,1-.186.007,15.576,15.576,0,0,0-12.374,6.973,15.252,15.252,0,0,0-2.026,4.537,23.9,23.9,0,0,0,6.957,1.762.6.6,0,0,1,.064,0A10.821,10.821,0,0,0,42.933,299.6a26.036,26.036,0,0,1-2.053,1.621,25.739,25.739,0,0,1-7.829,3.765.809.809,0,0,1-.226.032.819.819,0,0,1-.783-.594.815.815,0,0,1,.562-1.009A24.426,24.426,0,0,0,43.1,297.192a.5.5,0,0,1,.052-.053,24.325,24.325,0,0,0,2.54-3.029.819.819,0,0,1,.666-.344.815.815,0,0,1,.662,1.291,25.782,25.782,0,0,1-2.468,2.987,12.453,12.453,0,0,1-12.407,13.365h-.057A.833.833,0,0,1,31.973,311.416Zm-8.029-3.6a.99.99,0,0,0,.57,1.137,24.816,24.816,0,0,0,7.436,1.87h.011a.2.2,0,0,0,.059,0l.024,0h.1a11.864,11.864,0,0,0,11.807-12.859l-.011-.134.094-.1a25.2,25.2,0,0,0,2.5-3.015.222.222,0,0,0-.052-.313.217.217,0,0,0-.129-.044.227.227,0,0,0-.184.1,24.918,24.918,0,0,1-2.607,3.108l-.035.036a25.02,25.02,0,0,1-10.763,6.387.227.227,0,0,0-.138.109.22.22,0,0,0-.019.169.226.226,0,0,0,.215.167.22.22,0,0,0,.062-.009,25.151,25.151,0,0,0,7.651-3.679,25.431,25.431,0,0,0,2.509-2.036l.494-.456,0,.672a11.412,11.412,0,0,1-11.57,11.458h-.021l-.03,0-.03,0a24.5,24.5,0,0,1-7.207-1.83.545.545,0,0,1-.306-.617l0-.015a15.843,15.843,0,0,1,2.115-4.754,16.211,16.211,0,0,1,7.834-6.235,15.9,15.9,0,0,1,5.032-1h.021l.021,0a.179.179,0,0,0,.055,0l.025-.005h.026a15.839,15.839,0,0,1,2.189.1l.028,0a.223.223,0,0,0,.216-.17v-.005c0-.007,0-.015.006-.023a.227.227,0,0,0-.2-.252,15.911,15.911,0,0,0-2.039-.107l-.164,0-.088-.139a10.445,10.445,0,0,0-13.922-3.487.962.962,0,0,0-.442,1.13,7.881,7.881,0,0,0,2.28,3.583,7.794,7.794,0,0,0,2.7,1.578l.536.183-.457.335a16.523,16.523,0,0,0-6.206,9.158Zm7.223-9.861-.116-.025a7.4,7.4,0,0,1-5.524-5.1.517.517,0,0,1,.234-.608,9.956,9.956,0,0,1,12.967,2.818l.31.425-.525.043a16.353,16.353,0,0,0-2.175.329l-.059.013-.06-.012a23.652,23.652,0,0,1-3.29-.844,25.34,25.34,0,0,1-3.094-1.321.229.229,0,0,0-.1-.024.222.222,0,0,0-.2.124.225.225,0,0,0,.1.3,26.332,26.332,0,0,0,3.149,1.345c.472.161.958.307,1.486.444l.923.24-.9.324a16.343,16.343,0,0,0-3.025,1.459Zm-5.06-5.247a6.8,6.8,0,0,0,4.954,4.618,16.965,16.965,0,0,1,2.2-1.125c-.229-.069-.453-.142-.674-.217a26.914,26.914,0,0,1-3.219-1.375A.82.82,0,0,1,29,293.515a.809.809,0,0,1,.731-.454.828.828,0,0,1,.365.085,24.764,24.764,0,0,0,3.024,1.291,22.914,22.914,0,0,0,3.15.811c.55-.119,1.106-.211,1.658-.275a9.364,9.364,0,0,0-11.823-2.266Z" transform="translate(-15.01 10.309)" fill="#ffbe41"/><path d="M477.315,321.815h0a1.284,1.284,0,0,0,.271-1.635l-.006-.011a16.767,16.767,0,0,0-8.779-7.047,8.149,8.149,0,0,0,3.361-6.64,1.254,1.254,0,0,0-.988-1.237,10.756,10.756,0,0,0-12.627,7.646,16.086,16.086,0,0,0-1.952.716.524.524,0,0,0-.269.688.512.512,0,0,0,.032.059.519.519,0,0,0,.655.207,15.368,15.368,0,0,1,2.026-.723.457.457,0,0,0,.14-.039,15.809,15.809,0,0,1,17.519,6.924v0a.247.247,0,0,1-.048.3,24.223,24.223,0,0,1-6.273,3.825.486.486,0,0,0-.056.015,11.108,11.108,0,0,1-14.052-7.344,25.5,25.5,0,0,0,11.522,2.5.522.522,0,0,0-.023-1.043,24.692,24.692,0,0,1-12.021-2.9.33.33,0,0,0-.043-.024,24.386,24.386,0,0,1-3.365-2.175.521.521,0,0,0-.763.682.511.511,0,0,0,.13.144,25.512,25.512,0,0,0,3.318,2.169,12.149,12.149,0,0,0,15.515,9.005.5.5,0,0,0,.138-.037,25.11,25.11,0,0,0,6.636-4.027m-13.2-9.6c.474-.293.906-.582,1.308-.875a26.655,26.655,0,0,0,2.643-2.237.522.522,0,0,0-.719-.756,24.975,24.975,0,0,1-2.538,2.15,23.5,23.5,0,0,1-2.861,1.755,16.413,16.413,0,0,0-2.214.333,9.664,9.664,0,0,1,11.224-6.321.225.225,0,0,1,.168.225,7.085,7.085,0,0,1-3.63,6.239,16.716,16.716,0,0,0-3.381-.511" transform="translate(8.875 11.134)" fill="#ffbe41"/><path d="M466.9,326.735h0a12.452,12.452,0,0,1-12.129-9.667,25.933,25.933,0,0,1-3.237-2.128.8.8,0,0,1-.2-.224.814.814,0,0,1,.051-.921.8.8,0,0,1,.646-.32.82.82,0,0,1,.5.17,24.182,24.182,0,0,0,3.324,2.148l.007,0a.542.542,0,0,1,.05.028,24.445,24.445,0,0,0,11.444,2.859c.139,0,.28,0,.419,0h.017a.818.818,0,0,1,.587,1.386.8.8,0,0,1-.571.248c-.172,0-.348.005-.521.005a25.689,25.689,0,0,1-8.067-1.3,26.038,26.038,0,0,1-2.439-.944,10.805,10.805,0,0,0,13.458,6.508c.021-.007.042-.013.059-.017a23.934,23.934,0,0,0,6.132-3.734,15.368,15.368,0,0,0-5.686-5.371,15.645,15.645,0,0,0-7.477-1.912,15.307,15.307,0,0,0-3.981.526.754.754,0,0,1-.179.05,15.157,15.157,0,0,0-1.967.7.805.805,0,0,1-.328.069.82.82,0,0,1-.7-.395l0,0a.744.744,0,0,1-.048-.093.823.823,0,0,1,.423-1.073,16.482,16.482,0,0,1,1.831-.682,11.06,11.06,0,0,1,10.59-7.948,11.141,11.141,0,0,1,2.339.25,1.546,1.546,0,0,1,1.222,1.525,8.458,8.458,0,0,1-1.21,4.4,8.368,8.368,0,0,1-1.842,2.144,17.111,17.111,0,0,1,8.427,6.986l.008.014a1.586,1.586,0,0,1-.334,2.013,25.4,25.4,0,0,1-6.71,4.073.764.764,0,0,1-.188.054A12.4,12.4,0,0,1,466.9,326.735Zm-14.872-12.669a.217.217,0,0,0-.176.087.229.229,0,0,0-.016.257.21.21,0,0,0,.052.058l0,0a25.336,25.336,0,0,0,3.28,2.144l.118.065.029.131a11.858,11.858,0,0,0,11.581,9.334h0a11.81,11.81,0,0,0,3.557-.547l.024-.008.025,0a.21.21,0,0,0,.056-.013l.01,0a24.813,24.813,0,0,0,6.558-3.98.991.991,0,0,0,.208-1.257l-.006-.011A16.513,16.513,0,0,0,468.7,313.4l-.535-.186.458-.333a7.854,7.854,0,0,0,3.239-6.4.959.959,0,0,0-.754-.95,10.551,10.551,0,0,0-2.215-.237,10.468,10.468,0,0,0-10.065,7.673l-.044.158-.158.046a15.874,15.874,0,0,0-1.916.7.228.228,0,0,0-.117.3c0,.007.008.015.013.022a.227.227,0,0,0,.282.09,15.736,15.736,0,0,1,2.067-.738l.023-.007.024,0a.163.163,0,0,0,.05-.015l.022-.01.023-.006a15.9,15.9,0,0,1,4.156-.552,16.237,16.237,0,0,1,7.761,1.984,15.958,15.958,0,0,1,5.932,5.622l.01.017a.54.54,0,0,1-.113.665l0,0a24.525,24.525,0,0,1-6.349,3.872l-.024.01-.026.006-.023.005-.005,0a11.4,11.4,0,0,1-14.426-7.539l-.2-.642.605.29a25.436,25.436,0,0,0,3,1.205,25.1,25.1,0,0,0,7.882,1.267c.169,0,.341,0,.511-.005a.218.218,0,0,0,.156-.067.227.227,0,0,0-.161-.385h-.005c-.143,0-.288,0-.43,0a25.039,25.039,0,0,1-11.736-2.936l-.043-.024a24.775,24.775,0,0,1-3.406-2.2A.223.223,0,0,0,452.023,314.066Zm15.51-1.029-.115-.03a16.455,16.455,0,0,0-3.321-.5l-.951-.045.81-.5c.476-.294.9-.577,1.29-.863a26.39,26.39,0,0,0,2.613-2.213.228.228,0,0,0,.006-.322.219.219,0,0,0-.16-.069.232.232,0,0,0-.159.064,25.277,25.277,0,0,1-2.567,2.173,23.739,23.739,0,0,1-2.9,1.777l-.054.029-.061.005a16.191,16.191,0,0,0-2.174.327l-.515.114.171-.5a9.971,9.971,0,0,1,9.421-6.744,10.205,10.205,0,0,1,2.145.23.517.517,0,0,1,.4.508,7.409,7.409,0,0,1-3.781,6.5Zm-2.52-1.056a17.066,17.066,0,0,1,2.436.425,6.816,6.816,0,0,0,3.377-5.873,9.612,9.612,0,0,0-1.956-.2,9.378,9.378,0,0,0-8.677,5.853c.543-.1,1.1-.177,1.665-.226a23,23,0,0,0,2.772-1.7,24.709,24.709,0,0,0,2.508-2.125.822.822,0,0,1,.565-.226.8.8,0,0,1,.59.255.82.82,0,0,1-.03,1.156,26.968,26.968,0,0,1-2.671,2.261C465.407,311.711,465.214,311.846,465.012,311.982Z" transform="translate(8.875 11.134)" fill="#ffbe41"/><path d="M113.376,44.787h0a1.281,1.281,0,0,0-1.589.47l-.006.011a16.8,16.8,0,0,0-2.5,10.985,8.118,8.118,0,0,0-7.434-.127,1.255,1.255,0,0,0-.68,1.431,10.756,10.756,0,0,0,12.386,8.032,16.126,16.126,0,0,0,1.5,1.445.522.522,0,0,0,.736-.058.485.485,0,0,0,.04-.055.52.52,0,0,0-.1-.68,15.451,15.451,0,0,1-1.534-1.508.468.468,0,0,0-.1-.111,15.85,15.85,0,0,1-1.431-18.8v0a.246.246,0,0,1,.291-.089,24.185,24.185,0,0,1,6.178,3.979.361.361,0,0,0,.038.042,11.133,11.133,0,0,1-.461,15.864,25.866,25.866,0,0,0-.228-3.262,25.493,25.493,0,0,0-2.561-8.2.521.521,0,1,0-.927.476,24.782,24.782,0,0,1,2.647,12.091.353.353,0,0,0,0,.049,24.5,24.5,0,0,1-.485,3.981.52.52,0,0,0,.946.389.507.507,0,0,0,.073-.179,25.452,25.452,0,0,0,.5-3.935,12.173,12.173,0,0,0,1.314-17.907.508.508,0,0,0-.094-.109,25.154,25.154,0,0,0-6.515-4.217m-2.862,16.086c-.471-.3-.919-.562-1.358-.8a26.507,26.507,0,0,0-3.165-1.4.522.522,0,0,0-.364.978A25.086,25.086,0,0,1,108.667,61a23.619,23.619,0,0,1,2.825,1.811,16.6,16.6,0,0,0,1.266,1.85,9.669,9.669,0,0,1-10.582-7.349.226.226,0,0,1,.13-.249,7.066,7.066,0,0,1,7.191.544,16.767,16.767,0,0,0,1.017,3.268" transform="translate(-10.683 -3.397)" fill="#ffbe41"/><path d="M112.861,44.382h0a1.55,1.55,0,0,1,.636.135,25.453,25.453,0,0,1,6.589,4.264.78.78,0,0,1,.13.145,12.464,12.464,0,0,1-1.257,18.241,25.868,25.868,0,0,1-.5,3.847.8.8,0,0,1-.114.28.809.809,0,0,1-.682.372.82.82,0,0,1-.168-.017.8.8,0,0,1-.513-.345.812.812,0,0,1-.12-.619,24.3,24.3,0,0,0,.479-3.933v-.012a.512.512,0,0,1,0-.052,24.5,24.5,0,0,0-2.616-11.931.815.815,0,0,1,.355-1.1.821.821,0,0,1,.373-.09.81.81,0,0,1,.726.446,25.777,25.777,0,0,1,2.591,8.3c.115.86.188,1.734.217,2.609a10.838,10.838,0,0,0-.029-14.961.62.62,0,0,1-.043-.046,23.9,23.9,0,0,0-6.034-3.892,15.256,15.256,0,0,0-1.931,4.578A15.611,15.611,0,0,0,114.3,64.412a.756.756,0,0,1,.123.141,15.231,15.231,0,0,0,1.491,1.463.817.817,0,0,1,.156,1.065.775.775,0,0,1-.066.089.817.817,0,0,1-1.15.088,16.5,16.5,0,0,1-1.411-1.351,11.108,11.108,0,0,1-1.85.156,11.063,11.063,0,0,1-10.714-8.437,1.547,1.547,0,0,1,.837-1.766,8.507,8.507,0,0,1,3.73-.868c.251,0,.5.011.755.034a8.366,8.366,0,0,1,2.73.724,17.142,17.142,0,0,1,2.594-10.637l.01-.017A1.57,1.57,0,0,1,112.861,44.382Zm4.8,26.694a.223.223,0,0,0,.186-.1.213.213,0,0,0,.031-.076,25.283,25.283,0,0,0,.493-3.893l.006-.134.106-.083a11.877,11.877,0,0,0,1.283-17.472l-.016-.017-.013-.02a.266.266,0,0,0-.038-.047l-.008-.007a24.861,24.861,0,0,0-6.439-4.167.963.963,0,0,0-.395-.084.981.981,0,0,0-.823.441l-.007.012a16.548,16.548,0,0,0-2.453,10.792l.067.564-.5-.268a7.783,7.783,0,0,0-2.992-.9c-.232-.021-.468-.032-.7-.032a7.913,7.913,0,0,0-3.47.808.96.96,0,0,0-.523,1.095A10.433,10.433,0,0,0,113.5,65.3l.162-.03.111.122a15.9,15.9,0,0,0,1.468,1.419.222.222,0,0,0,.146.055.228.228,0,0,0,.175-.081.22.22,0,0,0,.016-.022.226.226,0,0,0-.044-.294,15.81,15.81,0,0,1-1.565-1.538l-.015-.017-.012-.02a.174.174,0,0,0-.037-.042l-.018-.015-.016-.018a15.929,15.929,0,0,1-2.7-4.367,16.244,16.244,0,0,1-.791-9.987,15.846,15.846,0,0,1,2.014-4.769h0l.021-.034a.542.542,0,0,1,.452-.241.515.515,0,0,1,.2.041l0,0a24.49,24.49,0,0,1,6.253,4.028l.02.018.016.021.008.009.011.011a11.428,11.428,0,0,1-.474,16.285l-.492.456,0-.671a25.692,25.692,0,0,0-.225-3.225,25.189,25.189,0,0,0-2.532-8.109.222.222,0,0,0-.2-.123.226.226,0,0,0-.1.026.222.222,0,0,0-.112.13.226.226,0,0,0,.015.174,25.094,25.094,0,0,1,2.679,12.237l0,.032c0,.007,0,.013,0,.019a24.889,24.889,0,0,1-.49,4.027.226.226,0,0,0,.033.172.214.214,0,0,0,.138.093A.242.242,0,0,0,117.666,71.075Zm-12.22-15.044a7.344,7.344,0,0,1,4.22,1.332l.1.068.023.116a16.51,16.51,0,0,0,1,3.21l.374.876-.8-.51c-.471-.3-.909-.555-1.339-.785a26.246,26.246,0,0,0-3.13-1.386.226.226,0,1,0-.156.425,25.4,25.4,0,0,1,3.075,1.362,23.852,23.852,0,0,1,2.861,1.833l.049.036.031.052a16.391,16.391,0,0,0,1.243,1.817l.326.413-.523.063a10.139,10.139,0,0,1-1.218.074,9.97,9.97,0,0,1-9.687-7.646.518.518,0,0,1,.284-.583A7.447,7.447,0,0,1,105.446,56.032Zm3.786,1.75a6.752,6.752,0,0,0-3.786-1.159,6.85,6.85,0,0,0-2.966.683,9.38,9.38,0,0,0,9.1,7.13c.207,0,.416-.007.624-.021-.329-.446-.641-.916-.931-1.4a23.112,23.112,0,0,0-2.741-1.753,24.83,24.83,0,0,0-3.005-1.33.818.818,0,0,1,.285-1.584.807.807,0,0,1,.288.053,26.82,26.82,0,0,1,3.2,1.417c.2.109.41.224.619.346A17.105,17.105,0,0,1,109.232,57.782Z" transform="translate(-10.683 -3.397)" fill="#ffbe41"/></g></g></g></svg>