<svg xmlns="http://www.w3.org/2000/svg" xmlns:xlink="http://www.w3.org/1999/xlink" width="500" height="500" viewBox="0 0 500 500"><defs><clipPath id="a"><rect width="500" height="500" transform="translate(11757 4708)" fill="#fff"/></clipPath><clipPath id="b"><rect width="482.758" height="496.73" fill="none"/></clipPath></defs><g transform="translate(-11757 -4708)" clip-path="url(#a)"><g transform="translate(11766 4710)"><g clip-path="url(#b)"><path d="M471.075,144.27l-.057-.5a.627.627,0,1,0-1.245.148l.058.5a1.806,1.806,0,0,1-1.48,2l-3.194.1a2.079,2.079,0,0,1-2.424-1.755,3.889,3.889,0,0,0,.988.169,4,4,0,0,0,3.033-1.217l2.677-2.766a.628.628,0,1,0,1.25-.091l-.161-1.4a3.657,3.657,0,0,0,.24-1.946,3.6,3.6,0,0,0-1.831-2.652l-1.053-.581a3.206,3.206,0,0,0-2.247-3.6l-2.2-.647a3.049,3.049,0,0,0-.308-.827,3.1,3.1,0,0,0-2.418-1.6l-4.546-.449a4.14,4.14,0,0,0-.727-.822,4.425,4.425,0,0,0-2.837-1.062c-.574-.017-1.154-.031-1.723-.042a.635.635,0,0,0-.024,1.269c.567.011,1.145.025,1.717.041h.012a3.1,3.1,0,0,1,3.1,3.295c.232,3.708-.4,6.218-1.781,7.066-1.514.929-4.308.331-7.868-1.683a38.38,38.38,0,0,1-6.818-5.008,11.708,11.708,0,0,1-2.908-3.428c1.083-.072,2.181-.117,3.268-.164a2.185,2.185,0,0,0,4.174-.123c1.388-.026,2.78-.036,4.162-.031a.634.634,0,0,0,.005-1.268c-1.387-.006-2.783,0-4.176.03a2.187,2.187,0,0,0-4.23.125c-1.056.043-2.121.1-3.172.155a1.329,1.329,0,0,0-1.2.615,1.468,1.468,0,0,0,.08,1.305,5.876,5.876,0,0,1-2.428-4.668c.055-3.041,2.955-4.754,3.843-5.207,3.356-1.711,7.484-.217,9.9,1.9a9.573,9.573,0,0,1,1.806,2.125.623.623,0,0,0,.865.195.639.639,0,0,0,.192-.876,10.843,10.843,0,0,0-2.044-2.4,12.569,12.569,0,0,0-5.046-2.638,8.82,8.82,0,0,0-6.235.569c-1.046.534-4.465,2.566-4.533,6.317a7.634,7.634,0,0,0,5.456,7.054c.275.292.575.6.9.906a38.634,38.634,0,0,0,8.321,6.061,16.225,16.225,0,0,0,4.629,1.711,7.581,7.581,0,0,0,1.506.119l-1.632,1.865-2.983-.4a.627.627,0,0,0-.7.546.634.634,0,0,0,.515.708l.024,0,3.312.439a.62.62,0,0,0,.551-.208l2.052-2.345.6.339a4.7,4.7,0,0,0,1.172.464l-.258,2.6-2.647,1.446a.64.64,0,0,0-.254.86.624.624,0,0,0,.849.257l2.94-1.606a.636.636,0,0,0,.326-.5l.289-2.927c.081,0,.161-.006.241-.013l1.306,1.327.495,2.962-2.176,2.1a.639.639,0,0,0-.02.9.619.619,0,0,0,.885.021l2.416-2.336a.636.636,0,0,0,.185-.564l-.354-2.119a3.338,3.338,0,0,0,.547.144l.035,0,.74.9a4.021,4.021,0,0,0,.679.652,3.36,3.36,0,0,0,.228,1.607l-.311.5a2.961,2.961,0,0,0-.419,2.058l-2.923,2.652-8.02-2.783a1.941,1.941,0,0,0-2.068.509,2,2,0,0,0-.413,2.114l.489,1.263a5.08,5.08,0,0,0,1.989,2.434l-.482.133-.019.006a2.011,2.011,0,0,0-.484,3.6,7.807,7.807,0,0,0,3.056,1.477,5.313,5.313,0,0,0,4.491-1.26.575.575,0,0,0,.054-.056l3.1-3.681.6.042a4.393,4.393,0,0,0,3.013-.926L465.665,152a3.417,3.417,0,0,0,1.782-.255,3.475,3.475,0,0,0,2.021-2.423l.55-2.337a3.091,3.091,0,0,0,1.057-2.718M441.8,124.947a.953.953,0,0,1,.769,1.1.943.943,0,0,1-1.087.778.954.954,0,0,1-.769-1.1.944.944,0,0,1,1.087-.779m24.77,8.2a1.847,1.847,0,0,1-.242,1.687l-1.876,2.622a.64.64,0,0,0,.14.886.622.622,0,0,0,.875-.142l1.875-2.622c.024-.033.046-.067.068-.1l.925.511a2.341,2.341,0,0,1,1.191,1.725,2.366,2.366,0,0,1-.641,2l-3.02,3.12a2.743,2.743,0,0,1-4.1-.169l-.163-.2a3.291,3.291,0,0,0,1.69-1.226l.462-.646a.64.64,0,0,0-.139-.886.621.621,0,0,0-.875.142l-.462.646a2.051,2.051,0,0,1-1.508.849,2.137,2.137,0,0,1-1.626-.57c-.1-.113-.863-.86-.978-.99a4.3,4.3,0,0,0,2.17-2.056l2.861-5.8a2.965,2.965,0,0,0,.211-.574l1.877.552a1.912,1.912,0,0,1,1.286,1.237m-12.349,5.031a3.679,3.679,0,0,0,.328-.177c1.271-.781,2.714-2.837,2.384-8.2a4.754,4.754,0,0,0-.168-1.293l3.821.378a1.842,1.842,0,0,1,1.444.949,1.643,1.643,0,0,1,.045,1.533l-2.861,5.8a3.061,3.061,0,0,1-1.856,1.573,3.686,3.686,0,0,1-3.137-.559m1.5,19.348a4.157,4.157,0,0,1-4.869.354l-1.128-.731a.736.736,0,0,1,.168-1.314l3.468-.958a.635.635,0,0,0,.44-.779.626.626,0,0,0-.769-.445l-1.024.283a3.751,3.751,0,0,1-2.8-2.352l-.489-1.263a.725.725,0,0,1,.151-.774.7.7,0,0,1,.757-.186l7.409,2.571a1.7,1.7,0,0,0-.272.689l-.925.256a.636.636,0,0,0,.059,1.237,4.989,4.989,0,0,0,1.143-.254,1.647,1.647,0,0,0,1.151.724Zm6.873-4.716a3.149,3.149,0,0,1-2.161.664l-2.025-.141a.423.423,0,0,1-.378-.282.432.432,0,0,1,.08-.452l3.371-3.059a2.937,2.937,0,0,0,.9.836l1.885,1.127Zm4.37-2.227a2.178,2.178,0,0,1-2-.133l-1.95-1.166a1.682,1.682,0,0,1-.776-1.065,1.7,1.7,0,0,1,.235-1.338,3.268,3.268,0,0,0,1.735.9,3.307,3.307,0,0,0,1.028.015l3.2-.106a.943.943,0,0,0,.14-.018l-.321,1.364a2.221,2.221,0,0,1-1.292,1.548" fill="#ffbe41"/><path d="M212,492.208l.425.257a.621.621,0,0,0,.859-.219.639.639,0,0,0-.217-.87l-.425-.257a1.822,1.822,0,0,1-.667-2.409l1.863-2.629a2.078,2.078,0,0,1,1.591-1.125,2.014,2.014,0,0,1,1.26.247,3.973,3.973,0,0,0-.735.691,4.11,4.11,0,0,0-.893,3.177l.535,3.834a.629.629,0,0,0-.907.19.639.639,0,0,0,.217.87l1.192.721a3.6,3.6,0,0,0,1.378,1.378,3.521,3.521,0,0,0,3.193.145l1.1-.492a3.084,3.084,0,0,0,1.3.847,3.148,3.148,0,0,0,2.891-.459l1.847-1.373a2.94,2.94,0,0,0,.835.256,3.08,3.08,0,0,0,2.725-.969l3.12-3.377a4.081,4.081,0,0,0,1.087-.084,4.449,4.449,0,0,0,2.559-1.631c.363-.451.727-.908,1.083-1.359a.641.641,0,0,0-.1-.892.623.623,0,0,0-.88.1c-.354.449-.717.9-1.079,1.355l-.007.009a3.254,3.254,0,0,1-1.836,1.177,3.153,3.153,0,0,1-2.633-.693c-3.046-2.073-4.626-4.109-4.449-5.734.194-1.782,2.364-3.662,6.109-5.3a38.019,38.019,0,0,1,8.075-2.426,11.465,11.465,0,0,1,4.456-.248c-.6.914-1.237,1.824-1.862,2.726a2.174,2.174,0,0,0-2.166.481,2.244,2.244,0,0,0-.279,2.945c-.826,1.131-1.665,2.255-2.511,3.362a.639.639,0,0,0,.112.89.62.62,0,0,0,.878-.113c.849-1.111,1.692-2.239,2.52-3.373a2.175,2.175,0,0,0,2.259-.448,2.246,2.246,0,0,0,.219-3.025c.609-.875,1.217-1.761,1.81-2.643a1.36,1.36,0,0,0,.25-1.338,1.434,1.434,0,0,0-1.071-.73,5.721,5.721,0,0,1,5.135.892c2.348,1.9,1.923,5.27,1.737,6.258-.7,3.738-4.388,6.144-7.513,6.8a9.422,9.422,0,0,1-2.765.156.634.634,0,0,0-.11,1.264,10.65,10.65,0,0,0,3.128-.178,12.56,12.56,0,0,0,5.139-2.447,9.046,9.046,0,0,0,3.352-5.354c.219-1.165.71-5.149-2.187-7.488-2.365-1.909-5.983-1.867-8.847.086-.4.043-.817.1-1.256.169a38.2,38.2,0,0,0-9.816,2.992,16.359,16.359,0,0,0-4.159,2.675,7.674,7.674,0,0,0-1.01,1.138l-.467-2.447,2.127-2.154a.641.641,0,0,0,0-.9.621.621,0,0,0-.868-.018l-.018.018-2.362,2.392a.641.641,0,0,0-.172.569l.587,3.077-.632.276a4.7,4.7,0,0,0-1.077.659l-1.879-1.79.48-3.007a.634.634,0,0,0-.519-.727.628.628,0,0,0-.718.525l-.533,3.34a.639.639,0,0,0,.19.563l2.115,2.015c-.047.066-.093.133-.136.2l-1.834.241-2.622-1.407-.323-3.028a.626.626,0,1,0-1.245.136l.358,3.363a.631.631,0,0,0,.329.492l1.875,1.006a3.5,3.5,0,0,0-.445.351l-.025.025-1.157.046a3.978,3.978,0,0,0-.925.149,3.259,3.259,0,0,0-1.4-.8l-.2-.552a2.929,2.929,0,0,0-1.358-1.59l-.3-3.963,7.064-4.746a2,2,0,0,0,.861-1.971,1.973,1.973,0,0,0-1.4-1.619l-1.287-.376a4.972,4.972,0,0,0-3.117.114l.189-.468.007-.018a2,2,0,0,0-.448-2.107,1.938,1.938,0,0,0-2.076-.473,7.812,7.812,0,0,0-3.018,1.554,5.467,5.467,0,0,0-1.748,4.375.716.716,0,0,0,.011.077l1,4.728-.4.459a4.52,4.52,0,0,0-1.109,2.983l.008,2.958a3.555,3.555,0,0,0-.219,4.685l1.5,1.865A3.075,3.075,0,0,0,212,492.208Zm32.966-11.749a.934.934,0,0,1-1.33-.053.962.962,0,0,1,.053-1.347.934.934,0,0,1,1.33.053.962.962,0,0,1-.053,1.347m-21.505,14.9a1.816,1.816,0,0,1-1.174-1.222l-.911-3.1a.626.626,0,0,0-.779-.427.637.637,0,0,0-.422.789l.911,3.1c.012.039.025.078.038.116l-.963.432a2.289,2.289,0,0,1-2.077-.094,2.347,2.347,0,0,1-1.179-1.736l-.6-4.325a2.829,2.829,0,0,1,.615-2.187,2.756,2.756,0,0,1,2.015-1l.255-.01a3.374,3.374,0,0,0-.068,2.105l.224.765a.625.625,0,0,0,.779.427.636.636,0,0,0,.422-.789l-.225-.764a2.105,2.105,0,0,1,.253-1.729,2.154,2.154,0,0,1,1.437-.958c.146-.008,1.2-.17,1.371-.183a4.371,4.371,0,0,0,.289,3l2.8,5.83a2.91,2.91,0,0,0,.321.519l-1.576,1.171A1.878,1.878,0,0,1,223.463,495.361Zm3.58-12.982c-.026.124-.047.247-.061.371-.162,1.5.569,3.908,4.973,6.911a4.633,4.633,0,0,0,1.115.652l-2.623,2.84a1.833,1.833,0,0,1-1.623.581,1.609,1.609,0,0,1-1.228-.9l-2.8-5.83a3.128,3.128,0,0,1-.1-2.449,3.741,3.741,0,0,1,2.348-2.179M210.977,471.8a4.254,4.254,0,0,1,2.687-4.127l1.26-.461a.7.7,0,0,1,.76.173.723.723,0,0,1,.167.763l-1.362,3.368a.638.638,0,0,0,.342.828.625.625,0,0,0,.817-.347l.4-.994a3.705,3.705,0,0,1,3.545-.814l1.287.377a.736.736,0,0,1,.2,1.314l-6.526,4.384a1.7,1.7,0,0,0-.374-.638l.363-.9a.638.638,0,0,0-.342-.828.622.622,0,0,0-.663.122,5.131,5.131,0,0,0-.5,1.072,1.645,1.645,0,0,0-1.268.484Zm-.493,8.392a3.238,3.238,0,0,1,.8-2.14l1.344-1.541a.419.419,0,0,1,.451-.132.427.427,0,0,1,.306.34l.342,4.57a2.886,2.886,0,0,0-1.2.214l-2.031.827Zm-.917,4.866a2.219,2.219,0,0,1,1.321-1.523l2.1-.855a1.641,1.641,0,0,1,1.307.024,1.677,1.677,0,0,1,.9,1,3.266,3.266,0,0,0-1.761.846,3.355,3.355,0,0,0-.637.817L210.937,488a.9.9,0,0,0-.071.124l-.873-1.088A2.252,2.252,0,0,1,209.567,485.058Z" fill="#ffbe41"/><path d="M56.5,99.179l-.494.021a.635.635,0,0,0,.054,1.268l.495-.022a1.8,1.8,0,0,1,1.863,1.642l-.131,3.233a2.118,2.118,0,0,1-.719,1.826,2.032,2.032,0,0,1-1.187.494,4.024,4.024,0,0,0,.239-.986,4.111,4.111,0,0,0-.976-3.153l-2.527-2.9a.638.638,0,0,0,.655-.664.63.63,0,0,0-.653-.606l-1.387.06a3.561,3.561,0,0,0-4.645,1.27l-.65,1.02a3.047,3.047,0,0,0-1.543.014,3.2,3.2,0,0,0-2.168,1.992l-.8,2.174a2.959,2.959,0,0,0-.836.25,3.137,3.137,0,0,0-1.752,2.325l-.775,4.558a4.113,4.113,0,0,0-.864.674,4.544,4.544,0,0,0-1.254,2.787c-.058.579-.115,1.163-.167,1.738a.626.626,0,1,0,1.247.117c.053-.572.109-1.155.167-1.732v-.011a3.317,3.317,0,0,1,.9-2.005,3.154,3.154,0,0,1,2.576-.886c3.67.038,6.1.862,6.828,2.318.8,1.6.01,4.375-2.234,7.823a38.762,38.762,0,0,1-5.432,6.518,11.6,11.6,0,0,1-3.59,2.685c.009-1.1.045-2.211.078-3.313A2.23,2.23,0,0,0,37,125.479c.077-1.4.169-2.81.275-4.206a.626.626,0,1,0-1.249-.1c-.107,1.4-.2,2.811-.276,4.22a2.228,2.228,0,0,0-.187,4.281c-.035,1.07-.063,2.149-.08,3.215A1.357,1.357,0,0,0,36,134.148a1.422,1.422,0,0,0,1.291.015,5.749,5.749,0,0,1-4.775,2.11c-2.991-.279-4.465-3.334-4.846-4.264-1.439-3.515.335-7.575,2.593-9.858a9.512,9.512,0,0,1,2.226-1.668.639.639,0,0,0,.255-.859.622.622,0,0,0-.848-.259,10.77,10.77,0,0,0-2.518,1.888,12.825,12.825,0,0,0-2.968,4.9,9.137,9.137,0,0,0,.1,6.339c.448,1.1,2.2,4.7,5.888,5.041,3.012.28,6.013-1.767,7.347-4.992q.463-.384.958-.84a38.976,38.976,0,0,0,6.581-7.959,16.652,16.652,0,0,0,2.024-4.549,7.788,7.788,0,0,0,.227-1.512l1.718,1.785-.609,2.983a.634.634,0,0,0,.486.75.627.627,0,0,0,.735-.468l.006-.025.676-3.313a.641.641,0,0,0-.165-.571l-2.159-2.244L50.6,116a4.817,4.817,0,0,0,.543-1.15l2.541.451,1.23,2.78a.623.623,0,0,0,.827.319.637.637,0,0,0,.316-.838L54.7,114.473a.631.631,0,0,0-.464-.366l-2.861-.507c0-.081.006-.163.006-.244l1.4-1.221,2.954-.283,1.912,2.352a.62.62,0,0,0,.881.086.641.641,0,0,0,.086-.893l-2.124-2.611a.623.623,0,0,0-.542-.229l-2.112.2a3.436,3.436,0,0,0,.181-.541l.008-.035.942-.682a4.073,4.073,0,0,0,.692-.638,3.237,3.237,0,0,0,1.6-.112l.465.35a2.871,2.871,0,0,0,2,.574l2.4,3.147-3.33,7.9a2,2,0,0,0,.35,2.125,1.94,1.94,0,0,0,2.051.572l1.28-.4a5.045,5.045,0,0,0,2.544-1.829l.1.5,0,.02a1.968,1.968,0,0,0,1.517,1.511,1.942,1.942,0,0,0,1.991-.758,7.98,7.98,0,0,0,1.68-2.978,5.484,5.484,0,0,0-.912-4.628.705.705,0,0,0-.051-.058l-3.4-3.4.086-.607a4.527,4.527,0,0,0-.691-3.11l-1.61-2.467a3.553,3.553,0,0,0-.121-1.819,3.463,3.463,0,0,0-2.237-2.218l-2.262-.727A3.021,3.021,0,0,0,56.5,99.179ZM35.322,127.332a.942.942,0,0,1,1.141-.7.956.956,0,0,1,.686,1.155.941.941,0,0,1-1.14.695.954.954,0,0,1-.687-1.154m9.89-24.414a1.785,1.785,0,0,1,1.644.368l2.445,2.086a.62.62,0,0,0,.882-.076.641.641,0,0,0-.075-.894l-2.444-2.086c-.031-.027-.063-.051-.1-.076l.571-.9a2.315,2.315,0,0,1,3.712-.282l2.852,3.279a2.821,2.821,0,0,1-.468,4.128l-.208.151a3.336,3.336,0,0,0-1.084-1.8l-.6-.514a.621.621,0,0,0-.883.076.641.641,0,0,0,.075.894l.6.514a2.092,2.092,0,0,1,.726,1.585,2.2,2.2,0,0,1-.681,1.6c-.119.088-.911.809-1.047.915a4.317,4.317,0,0,0-1.866-2.343l-5.5-3.314a2.871,2.871,0,0,0-.549-.256l.681-1.855a1.91,1.91,0,0,1,1.312-1.207m4.049,12.84a3.653,3.653,0,0,0-.151-.344c-.675-1.34-2.594-2.949-7.9-3.01a4.545,4.545,0,0,0-1.285.075l.652-3.831a1.868,1.868,0,0,1,1.041-1.389,1.586,1.586,0,0,1,1.512.067l5.5,3.315a3.089,3.089,0,0,1,1.413,1.99,3.806,3.806,0,0,1-.781,3.127m19.164-.094a4.294,4.294,0,0,1-.008,4.943l-.8,1.086a.72.72,0,0,1-1.282-.267l-.689-3.572a.628.628,0,0,0-.735-.5.635.635,0,0,0-.495.744l.2,1.054A3.763,3.763,0,0,1,62.1,121.8l-1.28.4a.7.7,0,0,1-.751-.209.724.724,0,0,1-.128-.778l3.076-7.294a1.662,1.662,0,0,0,.659.325l.184.953a.625.625,0,0,0,1.223.031,5.138,5.138,0,0,0-.167-1.173,1.674,1.674,0,0,0,.8-1.109Zm-4.139-7.287a3.252,3.252,0,0,1,.495,2.231l-.287,2.035a.427.427,0,0,1-.306.361.421.421,0,0,1-.44-.114l-2.764-3.629a2.938,2.938,0,0,0,.889-.847l1.248-1.821ZM62.413,103.8a2.25,2.25,0,0,1-.278,2.007l-1.291,1.883a1.662,1.662,0,0,1-2.406.371,3.337,3.337,0,0,0,1.012-1.686,3.411,3.411,0,0,0,.09-1.037l.131-3.238a.84.84,0,0,0-.008-.142l1.32.424A2.213,2.213,0,0,1,62.413,103.8Z" fill="#ffbe41"/><path d="M82.957,87.193,69.473,73.065l7.289-6.959c3.23-3.082,7.083-3.215,10.182.033s2.809,7.113-.421,10.194L82.358,80.31l3.724,3.9ZM75.314,72.929l4.328,4.534L83.473,73.8c1.729-1.649,2.059-2.931.368-4.7-1.651-1.729-2.966-1.481-4.695.17Z" fill="#ffbe41"/><path d="M91.515,69.084c-2.947-3.616-2.286-7.953,1.4-10.954,3.659-2.983,7.674-3.023,10.565.526a10.735,10.735,0,0,1,.795,1.157l-9.1,7.421c1.507,1.667,2.918,1.758,5.082-.006,1.985-1.619,2.253-2.7,1.461-3.674l-.184-.226,3.346-2.728.2.248c2.007,2.463,1.042,6.109-2.505,9-3.725,3.037-7.779,3.258-11.057-.765m2.243-3.672,5.934-4.838c-1.305-1.419-2.731-1.347-4.694.254-1.986,1.619-2.281,2.988-1.24,4.584" fill="#ffbe41"/><path d="M109.6,63.814l-8.333-11.995,3.289-2.284,2.56,3.687.213-.148c-1.09-2.224-1-5.126,2.1-7.279,3.241-2.251,6.242-1.212,8.088,1.445l5.189,7.47-3.547,2.465L114.8,50.9c-1.33-1.915-2.675-2.187-4.851-.675-2.248,1.561-2.419,3.03-1.007,5.065l4.208,6.057Z" fill="#ffbe41"/><path d="M121.955,50.914c-1.093-1.861-.407-3.82,2.087-5.658l5.013-3.689-.281-.478c-.96-1.635-1.946-1.664-3.932-.5-1.887,1.108-2.361,2.063-1.519,3.5l.059.1-3.749,2.2-.044-.075c-1.832-3.119-.52-6.8,3.576-9.205,4.146-2.436,7.378-1.426,9.313,1.868l4.342,7.393-3.475,2.043-1.7-2.892-.2.116c.581,2.3-.462,4.5-3.218,6.119-2.681,1.576-5.033,1.267-6.274-.845m5.776-2.447c2.532-1.488,3.543-2.894,2.594-4.738L126.3,46.771c-.849.6-1.1,1.085-.744,1.688.4.679,1.083.65,2.175.008" fill="#ffbe41"/><path d="M138.429,45.487l-6.414-13.126,3.6-1.756,1.971,4.035.233-.114c-.739-2.365-.211-5.219,3.177-6.874,3.543-1.731,6.351-.247,7.772,2.662l3.994,8.173-3.879,1.9-3.354-6.864c-1.025-2.1-2.313-2.57-4.693-1.408-2.457,1.2-2.85,2.626-1.761,4.853l3.238,6.628Z" fill="#ffbe41"/><path d="M151.021,30.282c-1.488-3.8-.006-7.2,4.016-8.777,2.734-1.073,5.159-.646,6.513,1.548l.215-.085-1.287-3.284,3.753-1.472,4.552,11.618c1.861,4.751-.151,7.983-4.95,9.864-4.343,1.7-7.843.821-9.183-2.6l4.021-1.577c.6,1.52,1.367,1.751,4.1.678,2.574-1.009,3.139-1.857,2.1-4.517l-1.2-3.068-.214.084c.358,2.177-.682,4.182-3.684,5.36-4,1.566-7.247.055-8.747-3.773m8.769-.276C162.364,29,163.337,27.77,162.6,25.9l-.117-.3c-.723-1.845-2.287-2.047-4.78-1.069-2.574,1.009-3.423,2.157-2.636,4.165s2.2,2.3,4.72,1.312" fill="#ffbe41"/><path d="M175.467,29.787l-5.143-18.842,4.166-1.137,2.042,7.48,9.72-2.654L184.21,7.153l4.166-1.137,5.142,18.841-4.165,1.138-2.065-7.565-9.72,2.654,2.065,7.565Z" fill="#ffbe41"/><path d="M193.518,17.444c-.838-4.59,1.891-8.082,6.733-8.967s8.628,1.418,9.466,6.008c.827,4.533-1.9,8.054-6.739,8.938s-8.633-1.446-9.46-5.979M205.5,15.256c-.46-2.524-1.694-3.515-4.555-2.992-2.888.528-3.665,1.885-3.205,4.409s1.656,3.462,4.545,2.935c2.861-.523,3.676-1.828,3.215-4.352" fill="#ffbe41"/><path d="M212.413,21.483,210.4,2.048l4.3-.446,1.067,10.3,3.265-.339,3.107-5.777,5.1-.53-4.513,7.565,5.933,6.977-5.069.527-4.124-4.879-3.294.343.544,5.25Z" fill="#ffbe41"/><path d="M229.415,19.8,228.883.271,233.2.154l.281,10.346,3.281-.089,3.536-5.52,5.123-.139-5.075,7.2,5.386,7.409-5.094.138L236.9,14.316l-3.309.089.143,5.275Z" fill="#ffbe41"/><path d="M246.623,19.527l.366-14.6,4.317.108-.367,14.6Zm.4-16.088L247.113,0l4.317.107-.087,3.44Z" fill="#ffbe41"/><path d="M253.107,12.3c.358-4.651,3.829-7.336,8.564-6.971,4.707.363,7.643,3.1,7.291,7.668a11.231,11.231,0,0,1-.222,1.386l-11.711-.9c-.058,2.247.9,3.286,3.685,3.5,2.555.2,3.5-.4,3.593-1.652l.022-.291,4.3.332-.024.319c-.244,3.169-3.457,5.144-8.021,4.792-4.794-.37-7.882-3-7.482-8.18m4.157-1.112,7.635.589c.033-1.928-1.05-2.859-3.576-3.054-2.555-.2-3.712.591-4.059,2.465" fill="#ffbe41"/><path d="M269.814,20.958l2.255-14.433,3.954.617-.694,4.437.256.04c.748-2.363,2.815-4.4,6.541-3.819,3.9.608,5.349,3.432,4.849,6.63l-1.4,8.988-4.267-.666,1.181-7.548c.36-2.305-.427-3.431-3.043-3.839-2.7-.422-3.839.522-4.222,2.97l-1.138,7.289Z" fill="#ffbe41"/><path d="M291.6,24.663,296.562,5.77l9.746,2.558c4.317,1.133,6.451,4.345,5.311,8.688s-4.583,6.121-8.9,4.988l-5.569-1.462-1.369,5.217Zm8.136-13.99-1.591,6.062,5.124,1.345c2.312.607,3.575.216,4.2-2.154.608-2.312-.293-3.3-2.6-3.908Z" fill="#ffbe41"/><path d="M309.541,29.519,314.3,15.713l3.784,1.306-1.265,3.666.245.084A4.606,4.606,0,0,1,323,18.407c3.049,1.053,3.568,3.608,2.637,6.308L324.85,27l-4.084-1.41.494-1.432c.523-1.516.152-2.385-1.508-2.958-1.824-.63-2.773,0-3.371,1.735l-2.757,7.992Z" fill="#ffbe41"/><path d="M324.5,30.87c.845-1.985,2.828-2.6,5.788-1.685l5.947,1.837.217-.509c.743-1.744.18-2.554-1.939-3.457-2.013-.859-3.063-.672-3.715.857l-.045.107-4-1.7.035-.08c1.417-3.327,5.154-4.459,9.525-2.6,4.424,1.885,5.533,5.085,4.036,8.6l-3.36,7.886-3.708-1.581,1.314-3.085-.212-.09c-1.5,1.833-3.892,2.3-6.833,1.05-2.86-1.22-4.01-3.295-3.05-5.548m5.4,3.19c2.7,1.151,4.434,1.129,5.351-.73L330.415,31.9c-.988-.326-1.526-.238-1.8.406-.309.724.122,1.256,1.287,1.753" fill="#ffbe41"/><path d="M341.1,42.014,344.6,27.3l3.922,2.129-1.7,6.677-1.639,4.285.253.137,3.391-3.831,4.9-4.439,4.882,2.65-1.08,6.513-1.368,4.93.253.137,2.728-3.694,4.654-5.07,3.871,2.1L357.114,50.707l-4.732-2.568,1.179-7.355.984-4.044-.278-.151L351.385,39.6l-5.555,4.98Z" fill="#ffbe41"/><path d="M361.174,53.243l8.18-12.1,3.315,2.243L370.154,47.1l.215.145c1.682-1.819,4.418-2.783,7.543-.671,3.267,2.21,3.381,5.384,1.569,8.065l-5.094,7.537-3.578-2.42,4.278-6.329c1.306-1.932,1.074-3.285-1.12-4.769-2.266-1.532-3.7-1.163-5.085.89l-4.131,6.111Z" fill="#ffbe41"/><path d="M379.369,65.678l12.748-14.8,4.43,3.813-2.854,10.241-1.612,4.652.24.206,4.319-2.322,9.6-4.436,4.451,3.831-12.749,14.8-3.272-2.818,6.469-7.512,2.107-2.226L403,68.9l-2.849,1.588-8.762,4-3.972-3.419,2.653-9.258,1.148-3.053-.241-.206-1.867,2.432-6.47,7.512Z" fill="#ffbe41"/><path d="M404.055,77.725c3.363-3.23,7.741-2.922,11.031.5,3.271,3.406,3.637,7.406.335,10.576a10.92,10.92,0,0,1-1.088.885L406.2,81.217c-1.539,1.638-1.517,3.052.418,5.066,1.776,1.848,2.877,2.028,3.781,1.16l.211-.2,2.991,3.115-.231.222c-2.291,2.2-6,1.533-9.174-1.768-3.332-3.469-3.88-7.491-.138-11.085m3.842,1.939,5.3,5.524c1.307-1.415,1.12-2.831-.634-4.659-1.776-1.848-3.164-2.032-4.671-.865" fill="#ffbe41"/><path d="M416.116,90.378c3.6-2.971,7.94-2.34,10.966,1.321,3.008,3.638,3.075,7.654-.455,10.569a10.918,10.918,0,0,1-1.152.8l-7.483-9.052c-1.658,1.518-1.739,2.93.041,5.082,1.631,1.974,2.717,2.235,3.684,1.437l.225-.186,2.751,3.328-.247.2c-2.451,2.025-6.1,1.084-9.019-2.444-3.063-3.705-3.31-7.757.689-11.062M419.8,92.6l4.879,5.9c1.41-1.315,1.328-2.741-.285-4.693-1.633-1.975-3-2.261-4.594-1.209" fill="#ffbe41"/><path d="M459.787,185.856l19.016-4.488,2.318,9.806c1.027,4.342-.809,7.733-5.179,8.764s-7.56-1.173-8.586-5.516l-1.325-5.6-5.251,1.239Zm16.178.619-6.1,1.44,1.219,5.155c.55,2.325,1.489,3.257,3.873,2.694,2.327-.549,2.779-1.809,2.23-4.134Z" fill="#ffbe41"/><path d="M471.089,202.407c4.609-.717,8.02,2.044,8.753,6.737.728,4.664-1.265,8.15-5.788,8.855a11.1,11.1,0,0,1-1.4.1l-1.811-11.6c-2.2.459-2.991,1.631-2.561,4.39.395,2.531,1.2,3.31,2.434,3.117l.288-.045.666,4.266-.316.05c-3.141.488-5.8-2.185-6.507-6.708-.741-4.749,1.115-8.36,6.243-9.159m2.037,3.791,1.182,7.566c1.883-.41,2.541-1.678,2.15-4.181-.4-2.531-1.428-3.477-3.332-3.385" fill="#ffbe41"/><path d="M466.5,220.675l14.563-1.162.318,3.99-4.477.357.021.258c2.471.179,4.934,1.715,5.234,5.475.314,3.932-2.1,6-5.322,6.259l-9.069.724-.343-4.305,7.615-.608c2.325-.186,3.238-1.212,3.028-3.852-.217-2.727-1.4-3.615-3.871-3.417l-7.354.586Z" fill="#ffbe41"/><path d="M471.349,237.815c2.157-.035,3.523,1.527,3.892,4.6l.74,6.18.553-.009c1.895-.031,2.407-.874,2.369-3.178-.034-2.188-.631-3.071-2.292-3.044l-.117,0-.069-4.348.088,0c3.613-.058,6.167,2.9,6.243,7.647.076,4.808-2.394,7.123-6.212,7.185l-8.568.139-.065-4.031,3.352-.054,0-.231c-2.284-.625-3.686-2.618-3.737-5.814-.049-3.11,1.379-5.005,3.826-5.045m-.717,6.233c.047,2.937.771,4.509,2.843,4.591l-.663-5c-.1-1.035-.4-1.491-1.1-1.48-.787.013-1.1.623-1.078,1.89" fill="#ffbe41"/><path d="M467.871,254.832l14.571.979-.267,3.993-4.479-.3-.017.259c2.418.537,4.629,2.418,4.377,6.182-.263,3.936-2.948,5.632-6.176,5.415l-9.073-.61.288-4.309,7.62.512c2.326.156,3.379-.726,3.555-3.37.183-2.729-.857-3.78-3.329-3.946l-7.358-.494Z" fill="#ffbe41"/><path d="M474.79,273.313c4.041.587,6.259,3.558,5.637,7.83-.424,2.906-2,4.8-4.572,4.892l-.033.228,3.491.508-.581,3.988-12.35-1.8c-5.05-.734-6.86-4.082-6.117-9.18.672-4.615,3.173-7.219,6.809-6.691l-.623,4.274c-1.616-.236-2.2.32-2.621,3.225-.4,2.736.058,3.646,2.886,4.057l3.26.474.033-.228c-2.068-.766-3.3-2.661-2.83-5.851.618-4.246,3.543-6.322,7.611-5.73m-4.105,7.752c-.4,2.735.186,4.187,2.177,4.477l.317.045c1.962.287,2.912-.972,3.3-3.622.4-2.734-.178-4.04-2.313-4.35s-3.088.772-3.479,3.45" fill="#ffbe41"/><path d="M463.119,294.8l18.934,4.8-1.062,4.186-7.518-1.9L471,311.648l7.517,1.9-1.062,4.187-18.935-4.795,1.063-4.187,7.6,1.925,2.478-9.768-7.6-1.924Z" fill="#ffbe41"/><path d="M464.983,316.6c4.412,1.519,6.119,5.608,4.516,10.263s-5.464,6.827-9.875,5.309c-4.357-1.5-6.091-5.6-4.49-10.254s5.491-6.817,9.849-5.318m-3.963,11.515c2.427.835,3.894.244,4.841-2.505.954-2.776.152-4.118-2.275-4.954s-3.829-.252-4.784,2.524c-.947,2.749-.21,4.1,2.218,4.935" fill="#ffbe41"/><path d="M452.2,331.107l17.942,7.729-1.71,3.966-9.506-4.094-1.3,3.014,3.521,5.531-2.028,4.707-4.4-7.631-8.987,1.771,2.018-4.68,6.271-1.217,1.312-3.041-4.848-2.088Z" fill="#ffbe41"/><path d="M445.37,346.776l17.308,9.048-2,3.827-9.171-4.794-1.521,2.908,3.1,5.778-2.374,4.541-3.812-7.937-9.091,1.095,2.361-4.516,6.343-.745,1.533-2.934-4.676-2.444Z" fill="#ffbe41"/><path d="M437.224,361.935l12.575,7.431-2.2,3.719-12.575-7.431Zm13.855,8.187,2.962,1.75-2.2,3.72-2.962-1.75Z" fill="#ffbe41"/><path d="M440.385,371.105c3.889,2.575,4.549,6.913,1.929,10.874-2.606,3.936-6.427,5.168-10.244,2.641a11.116,11.116,0,0,1-1.1-.869l6.48-9.793c-1.934-1.144-3.308-.811-4.849,1.517-1.414,2.137-1.347,3.251-.3,3.944l.243.16-2.383,3.6-.267-.176c-2.65-1.755-2.813-5.523-.287-9.339,2.652-4.008,6.456-5.425,10.783-2.559m-1.049,4.173-4.225,6.385c1.667.966,3.008.472,4.406-1.64,1.414-2.136,1.288-3.531-.181-4.745" fill="#ffbe41"/><path d="M424.68,381.524l11.536,8.968-2.456,3.16-3.546-2.757-.159.205c1.7,1.8,2.486,4.6.172,7.573-2.421,3.115-5.6,3.018-8.151,1.031l-7.185-5.584,2.65-3.41,6.034,4.689c1.841,1.432,3.208,1.29,4.833-.8,1.678-2.16,1.4-3.613-.553-5.135l-5.825-4.528Z" fill="#ffbe41"/><path d="M410.886,398.8l14.17,13.443-6.937,7.307c-3.073,3.235-6.916,3.556-10.173.467s-3.156-6.963-.084-10.2l3.964-4.174-3.912-3.712Zm8.342,13.866-4.547-4.314-3.647,3.84c-1.646,1.733-1.91,3.029-.134,4.714,1.733,1.646,3.035,1.333,4.681-.4Z" fill="#ffbe41"/><path d="M398,412.173l9.831,10.81-2.96,2.691-2.61-2.869-.192.174a4.607,4.607,0,0,1-.772,6.339c-2.386,2.167-4.877,1.4-6.8-.717l-1.629-1.791,3.2-2.9,1.021,1.122c1.079,1.187,2.019,1.279,3.318.1,1.427-1.3,1.33-2.431.094-3.79l-5.69-6.258Z" fill="#ffbe41"/><path d="M389.643,424.643c1.338,1.693.928,3.727-1.289,5.889l-4.458,4.342.343.434c1.175,1.487,2.156,1.381,3.962-.048,1.717-1.356,2.055-2.367,1.025-3.671l-.072-.091,3.41-2.7.053.07c2.243,2.836,1.45,6.66-2.277,9.605-3.771,2.982-7.11,2.425-9.479-.571l-5.316-6.725,3.161-2.5,2.08,2.631.181-.143c-.892-2.2-.16-4.519,2.347-6.5,2.438-1.928,4.81-1.945,6.329-.024m-5.384,3.216c-2.3,1.821-3.111,3.352-1.918,5.048l3.567-3.565c.759-.711.94-1.225.506-1.774-.488-.617-1.162-.494-2.155.291" fill="#ffbe41"/><path d="M371.88,433.917l11.26,10.107-3.744,2.43-5.059-4.677-2.983-3.487-.242.157,1.747,4.81,1.561,6.425-4.662,3.024-5.207-4.059-3.68-3.555-.242.156,1.944,4.161,2.234,6.51-3.7,2.4-4.519-14.479,4.517-2.931,5.9,4.548,3.084,2.8.266-.172-1.273-3.971-1.723-7.258Z" fill="#ffbe41"/><path d="M352.453,446.181l6.728,12.966-3.553,1.843L353.559,457l-.229.119c.8,2.347.336,5.212-3.012,6.95-3.5,1.816-6.344.4-7.835-2.472l-4.189-8.074,3.834-1.989,3.517,6.781c1.075,2.07,2.374,2.512,4.726,1.292,2.429-1.26,2.787-2.694,1.645-4.894l-3.4-6.547Z" fill="#ffbe41"/><path d="M332.842,456.229l6.881,18.279-5.471,2.06-7.619-7.41-3.311-3.645-.3.112-.032,4.9-.707,10.545-5.5,2.07-6.88-18.279,4.042-1.523,3.492,9.277.944,2.916.3-.113-.028-3.259.693-9.606,4.9-1.847,6.853,6.764,2.13,2.469.295-.111-1.239-2.8L328.8,457.75Z" fill="#ffbe41"/><path d="M310.408,472.122c1.211,4.505-1.166,8.192-5.754,9.422-4.56,1.224-8.24-.384-9.429-4.8a10.877,10.877,0,0,1-.252-1.381l11.343-3.045c-.694-2.138-1.944-2.8-4.642-2.074-2.473.664-3.162,1.542-2.836,2.752l.076.283-4.17,1.119-.083-.31c-.825-3.069,1.547-6,5.967-7.185,4.642-1.246,8.432.212,9.78,5.222m-3.55,2.432-7.395,1.984c.611,1.829,1.943,2.347,4.389,1.69,2.475-.664,3.3-1.792,3.006-3.674" fill="#ffbe41"/><path d="M293.528,476.592c.861,4.585-1.791,8.081-6.459,8.96-4.64.873-8.187-1.011-9.033-5.51a11.188,11.188,0,0,1-.145-1.4l11.543-2.172c-.528-2.186-1.725-2.94-4.469-2.423-2.517.474-3.27,1.3-3.039,2.53l.054.287-4.243.8-.06-.315c-.587-3.125,2-5.867,6.5-6.713,4.725-.889,8.392.853,9.351,5.954m-3.726,2.155-7.524,1.417c.468,1.869,1.755,2.487,4.246,2.019,2.517-.474,3.43-1.536,3.278-3.436" fill="#ffbe41"/><path d="M188.914,468.23l-5.46,18.759-9.676-2.814c-4.286-1.247-6.334-4.515-5.079-8.827s4.745-6,9.03-4.753l5.53,1.608,1.507-5.18ZM180.407,482l1.752-6.021-5.087-1.479c-2.3-.667-3.569-.309-4.253,2.043-.669,2.3.206,3.31,2.5,3.978Z" fill="#ffbe41"/><path d="M168.94,469.9c-1.658,4.361-5.746,5.957-10.187,4.271-4.414-1.677-6.457-5.135-4.831-9.413a11.235,11.235,0,0,1,.6-1.268l10.982,4.172c.69-2.139.063-3.407-2.548-4.4-2.4-.91-3.468-.6-3.913.571l-.1.272-4.037-1.533.113-.3c1.13-2.97,4.77-3.958,9.05-2.333,4.495,1.708,6.714,5.109,4.87,9.959m-4.3-.106-7.16-2.72c-.576,1.84.2,3.039,2.569,3.939,2.395.91,3.729.481,4.591-1.219" fill="#ffbe41"/><path d="M155.339,456.874l-6.238,13.21-3.618-1.709,1.917-4.061-.234-.111c-1.385,2.056-3.943,3.427-7.353,1.816-3.566-1.685-4.162-4.805-2.781-7.732l3.885-8.226,3.9,1.844-3.262,6.908c-1,2.11-.56,3.413,1.834,4.544,2.473,1.168,3.832.584,4.89-1.657l3.15-6.671Z" fill="#ffbe41"/><path d="M138,452.6c-1.068,1.874-3.108,2.256-5.942,1.009l-5.695-2.507-.275.481c-.938,1.647-.472,2.516,1.529,3.657,1.9,1.083,2.964,1.017,3.787-.426l.058-.1,3.776,2.153-.043.076c-1.79,3.141-5.632,3.837-9.759,1.485-4.177-2.38-4.911-5.684-3.02-9l4.244-7.446,3.5,1.995-1.659,2.913.2.115c1.7-1.649,4.131-1.841,6.906-.26,2.7,1.54,3.6,3.732,2.393,5.86m-5-3.788c-2.551-1.453-4.273-1.629-5.4.112l4.641,1.973c.943.437,1.488.412,1.834-.2.39-.684.024-1.262-1.077-1.889" fill="#ffbe41"/><path d="M125.084,441.027l-8.18,12.1-3.315-2.241,2.515-3.719-.215-.145c-1.681,1.819-4.419,2.785-7.543.674-3.267-2.207-3.381-5.38-1.569-8.062l5.1-7.536,3.577,2.417-4.278,6.328c-1.306,1.933-1.074,3.286,1.12,4.769,2.266,1.53,3.7,1.16,5.085-.893l4.131-6.111Z" fill="#ffbe41"/><path d="M105.636,437.7c-2.546,3.19-6.231,3.606-9.607.912-2.3-1.832-3.139-4.145-1.916-6.415l-.181-.143-2.2,2.756L88.581,432.3l7.785-9.75c3.183-3.988,6.987-3.861,11.016-.646,3.646,2.909,4.632,6.382,2.34,9.252l-3.376-2.694c1.019-1.276.833-2.058-1.463-3.89-2.161-1.723-3.177-1.789-4.959.444l-2.056,2.574.18.143c1.706-1.4,3.962-1.5,6.483.511,3.353,2.676,3.67,6.248,1.105,9.46m-4.622-7.455c-2.161-1.724-3.709-1.953-4.965-.381l-.2.25c-1.236,1.55-.629,3,1.464,4.674,2.16,1.725,3.579,1.887,4.925.2s.892-3.055-1.224-4.743" fill="#ffbe41"/><path d="M92.993,416.787,79.284,430.7l-3.077-3.033,5.443-5.524-7.178-7.076-5.442,5.524-3.077-3.033,13.71-13.914,3.076,3.033-5.5,5.587,7.177,7.076,5.505-5.587Z" fill="#ffbe41"/><path d="M73.228,407.354c-3.54,3.037-7.931,2.442-11.138-1.3s-3.128-8.166.412-11.2c3.5-3,7.909-2.423,11.115,1.314s3.107,8.185-.389,11.185M65.3,398.111c-1.947,1.67-2.179,3.235-.285,5.442,1.912,2.229,3.476,2.215,5.423.545s2.154-3.175.241-5.4c-1.894-2.207-3.432-2.254-5.379-.583" fill="#ffbe41"/><path d="M67.173,388.988,51.429,400.561l-2.559-3.479,8.342-6.132-1.945-2.644-6.554.244-3.037-4.128,8.809.064,3.015-8.648,3.02,4.1L58.4,385.968l1.962,2.667,4.253-3.126Z" fill="#ffbe41"/><path d="M57.116,375.185,40.554,385.541l-2.291-3.662,8.775-5.487L45.3,373.609l-6.553-.25-2.719-4.346,8.778.727,3.652-8.4,2.7,4.322-2.565,5.849,1.756,2.808,4.475-2.8Z" fill="#ffbe41"/><path d="M34.086,368.309l-3.007,1.671-2.1-3.773,3.007-1.671Zm14.066-7.816-12.767,7.1-2.1-3.775,12.767-7.093Z" fill="#ffbe41"/><path d="M38.647,358.594c-4.187,2.055-8.263.432-10.355-3.832-2.08-4.24-1.211-8.162,2.9-10.179a10.945,10.945,0,0,1,1.307-.514l5.173,10.547c1.965-1.093,2.372-2.447,1.142-4.955-1.129-2.3-2.124-2.807-3.249-2.254l-.261.129-1.9-3.878.288-.141c2.853-1.4,6.185.363,8.2,4.473,2.117,4.317,1.417,8.318-3.241,10.6m-3.07-3.015L32.2,348.7c-1.676.951-1.928,2.358-.813,4.633,1.129,2.3,2.4,2.9,4.186,2.243" fill="#ffbe41"/><path d="M37.6,339.781,24.036,345.2l-1.484-3.716,4.169-1.666-.1-.24c-2.412.56-5.219-.178-6.618-3.68-1.463-3.662.224-6.352,3.229-7.553l8.446-3.376,1.6,4.011-7.092,2.834c-2.166.865-2.734,2.115-1.751,4.575,1.014,2.539,2.407,3.037,4.707,2.119L36,335.771Z" fill="#ffbe41"/><path d="M29.666,319.149,10.9,324.567l-2.8-9.682c-1.24-4.288.426-7.766,4.741-9.011s7.607.8,8.846,5.089l1.6,5.533,5.183-1.5Zm-16.187.177,6.023-1.738L18.031,312.5c-.663-2.3-1.648-3.181-4-2.5-2.3.663-2.686,1.944-2.022,4.24Z" fill="#ffbe41"/><path d="M24.641,301.249l-14.3,3.02-.827-3.916,3.8-.8-.053-.253a4.607,4.607,0,0,1-5.08-3.871c-.667-3.155,1.256-4.914,4.053-5.505l2.368-.5.893,4.224-1.484.314c-1.57.332-2.123,1.1-1.761,2.814.4,1.887,1.427,2.376,3.224,2l8.275-1.748Z" fill="#ffbe41"/><path d="M18.1,287.726c-2.137.3-3.685-1.081-4.433-4.085l-1.5-6.039-.548.077c-1.876.263-2.28,1.163-1.959,3.443.3,2.166,1.007,2.969,2.652,2.737l.116-.016.606,4.3-.086.012c-3.58.5-6.48-2.111-7.143-6.814-.67-4.761,1.5-7.362,5.278-7.893l8.488-1.193.561,3.99-3.32.467.033.227c2.343.339,3.982,2.144,4.427,5.308.433,3.078-.75,5.134-3.174,5.475m-.059-6.27c-.409-2.908-1.323-4.378-3.389-4.2l1.276,4.879c.231,1.013.584,1.429,1.277,1.332.779-.111,1.013-.753.836-2.007" fill="#ffbe41"/><path d="M19.066,267.731,4.672,272.382l-.217-4.458,6.584-2.022,4.512-.825-.014-.287-5.034-.909L4.166,262,3.9,256.448l6.125-2.461,4.922-1.393-.014-.288-4.572-.411-6.749-1.344-.215-4.4,14.785,3.373.263,5.379-6.9,2.815-3.966,1.26.015.316,4.071.9,7.138,2.16Z" fill="#ffbe41"/><path d="M18.217,244.725l-14.594-.642.177-4,4.485.2.012-.259c-2.431-.482-4.685-2.31-4.519-6.078.173-3.94,2.819-5.7,6.052-5.554l9.089.4-.19,4.315-7.632-.336c-2.331-.1-3.363.8-3.479,3.449-.121,2.733.943,3.759,3.419,3.868l7.37.325Z" fill="#ffbe41"/><path d="M19.292,222.688,0,219.621l.92-5.77L11.134,210.9l4.806-1.072.05-.313-4.244-2.453-8.813-5.831.924-5.8L23.149,198.5l-.68,4.264-9.79-1.557-3-.622-.05.312,2.846,1.589,8,5.353-.825,5.174-9.273,2.607-3.2.628-.05.313,3.05.31,9.79,1.556Z" fill="#ffbe41"/><path d="M16.568,195.359c-4.516-1.165-6.556-5.05-5.37-9.65,1.179-4.572,4.39-6.985,8.822-5.842a10.883,10.883,0,0,1,1.326.461L18.414,191.7c2.2.449,3.392-.315,4.09-3.019.639-2.481.213-3.512-1-3.825l-.283-.073L22.3,180.6l.31.08c3.077.794,4.461,4.3,3.318,8.734-1.2,4.656-4.334,7.237-9.359,5.942m-.37-4.288,1.912-7.415c-1.892-.369-3,.535-3.631,2.988-.639,2.481-.065,3.759,1.719,4.427" fill="#ffbe41"/><path d="M20.983,178.453c-4.419-1.5-6.165-5.522-4.642-10.022,1.514-4.471,4.9-6.639,9.231-5.172a11.052,11.052,0,0,1,1.289.559l-3.766,11.125c2.163.612,3.407-.061,4.3-2.706.822-2.427.473-3.487-.715-3.891l-.276-.092,1.385-4.09.3.1c3.01,1.018,4.13,4.62,2.663,8.956-1.542,4.553-4.859,6.894-9.775,5.23m-.052-4.3,2.456-7.253c-1.86-.508-3.03.311-3.843,2.711-.821,2.426-.343,3.742,1.387,4.542" fill="#ffbe41"/></g></g></g></svg>