<?xml version="1.0" encoding="UTF-8"?><svg id="Layer_2" xmlns="http://www.w3.org/2000/svg" xmlns:xlink="http://www.w3.org/1999/xlink" viewBox="0 0 500 500"><defs><style>.cls-1{clip-path:url(#clippath);}.cls-2{fill:none;}.cls-2,.cls-3{stroke-width:0px;}.cls-3{fill:#ffbe41;}</style><clipPath id="clippath"><rect class="cls-2" width="500" height="500"/></clipPath></defs><g id="Layer_1-2"><g class="cls-1"><path class="cls-3" d="M124.18,61.59l-10.39-16.87,8.81-5.43c3.9-2.4,7.79-1.74,10.17,2.14,2.39,3.88,1.25,7.67-2.65,10.07l-5.04,3.1,2.87,4.66-3.78,2.33ZM119.66,45.79l3.33,5.41,4.63-2.85c2.09-1.29,2.7-2.5,1.4-4.61-1.27-2.06-2.64-2.09-4.73-.8l-4.63,2.85Z"/><path class="cls-3" d="M136.64,45.34c-2.15-4.21-.53-8.39,3.81-10.61,4.32-2.2,8.35-1.4,10.46,2.73.24.47.36.84.54,1.32l-10.75,5.48c1.14,1.97,2.53,2.36,5.09,1.06,2.34-1.2,2.85-2.22,2.27-3.35l-.13-.26,3.95-2.02.15.29c1.47,2.87-.3,6.3-4.49,8.43-4.4,2.25-8.5,1.62-10.9-3.07ZM139.7,42.16l7.01-3.58c-.99-1.68-2.44-1.91-4.75-.73-2.34,1.2-2.94,2.5-2.25,4.3Z"/><path class="cls-3" d="M155.8,43.93l-5.67-13.68,3.8-1.57,1.74,4.21.25-.1c-.6-2.44.14-5.31,3.71-6.79,3.74-1.55,6.51.12,7.77,3.15l3.53,8.52-4.1,1.7-2.97-7.16c-.91-2.19-2.19-2.74-4.71-1.7-2.59,1.08-3.09,2.5-2.13,4.82l2.86,6.91-4.1,1.7Z"/><path class="cls-3" d="M170.93,33.76c-.68-2.08.45-3.88,3.35-5.17l5.84-2.59-.17-.53c-.6-1.83-1.58-2.07-3.82-1.33-2.14.7-2.82,1.54-2.3,3.15l.04.11-4.24,1.38-.03-.08c-1.14-3.48,1-6.86,5.63-8.37,4.69-1.53,7.7.16,8.9,3.84l2.7,8.26-3.94,1.28-1.05-3.23-.22.07c.07,2.4-1.47,4.37-4.59,5.38-3.04.99-5.32.18-6.09-2.18ZM177.26,32.56c2.87-.94,4.19-2.11,3.65-4.15l-4.71,2.16c-.98.41-1.34.84-1.12,1.52.25.76.94.88,2.18.47Z"/><path class="cls-3" d="M188.52,31.92l-3.49-14.4,3.99-.97,1.07,4.42.26-.06c-.21-2.5.95-5.22,4.72-6.13,3.94-.96,6.42,1.12,7.19,4.31l2.18,8.96-4.31,1.05-1.83-7.53c-.56-2.3-1.74-3.05-4.39-2.4-2.73.66-3.44,1.99-2.85,4.43l1.76,7.27-4.31,1.05Z"/><path class="cls-3" d="M204.45,19.56c-.65-4.09,1.6-7.14,5.98-7.83,2.98-.47,5.31.48,6.18,2.95l.23-.04-.56-3.53,4.09-.65,1.97,12.5c.81,5.11-1.93,7.88-7.16,8.7-4.73.75-8.04-.89-8.62-4.57l4.38-.69c.26,1.64.98,2.03,3.96,1.56,2.8-.44,3.56-1.16,3.11-4.02l-.52-3.3-.23.04c-.13,2.24-1.62,4-4.89,4.51-4.35.69-7.27-1.52-7.92-5.63ZM213.29,21.19c2.8-.44,4.05-1.45,3.73-3.46l-.05-.32c-.31-1.99-1.83-2.52-4.55-2.1-2.8.44-3.91,1.4-3.57,3.56.34,2.16,1.69,2.76,4.44,2.32Z"/><path class="cls-3" d="M227.5,24.42l7.73-20.18,6.32-.29,9.63,19.38-5.08.24-2.06-4.28-9.89.46-1.69,4.46-4.96.23ZM235.68,15.66l6.47-.3-2.06-4.22-1.35-3.01-.32.02-1.07,3.13-1.66,4.4Z"/><path class="cls-3" d="M251.65,18.43v-.09s4.43.17,4.43.17v.27c-.06,1.33.75,1.72,3.26,1.81,2.36.09,2.94-.27,2.97-1.16.03-.83-.4-1.08-2.14-1.38l-4.15-.66c-2.94-.44-4.54-1.83-4.45-4.31.1-2.6,2.39-4.58,7.47-4.39,4.84.19,7.52,2.12,7.38,5.73v.09s-4.43-.17-4.43-.17v-.18c.05-1.21-.51-1.85-3.23-1.96-2.21-.08-2.79.28-2.83,1.22-.03.77.37,1.11,2.31,1.42l3.15.5c3.94.59,5.37,1.98,5.27,4.43-.11,2.78-2.92,4.5-7.5,4.33-4.99-.19-7.67-2.25-7.53-5.67Z"/><path class="cls-3" d="M267.71,20.49c.24-2.17,2.01-3.35,5.19-3.32l6.39.06.06-.56c.21-1.91-.58-2.53-2.93-2.79-2.23-.25-3.21.24-3.4,1.91v.12s-4.45-.49-4.45-.49v-.09c.42-3.64,3.75-5.83,8.6-5.29,4.91.55,6.95,3.33,6.52,7.18l-.96,8.64-4.11-.46.38-3.38-.24-.03c-.93,2.22-3.14,3.37-6.4,3.01-3.17-.35-4.92-2.03-4.65-4.5ZM273.97,22.02c3,.33,4.69-.19,5.04-2.27l-5.18.02c-1.07-.03-1.57.21-1.65.92-.09.79.49,1.19,1.79,1.33Z"/><path class="cls-3" d="M284.43,25.82l3.1-14.49,4.02.86-.94,4.4.23.05c.87-2.35,2.79-4.3,6.44-3.52,3.35.72,4.62,3.13,4.37,5.89l.26.06c.87-2.38,2.83-4.35,6.57-3.56,3.73.8,5.03,3.64,4.32,6.94l-1.93,9.02-4.34-.93,1.62-7.58c.51-2.4-.13-3.48-2.62-4.01-2.63-.56-3.61.32-4.14,2.83l-1.56,7.32-4.34-.93,1.62-7.58c.51-2.4-.13-3.48-2.62-4.01-2.63-.56-3.61.32-4.14,2.83l-1.56,7.32-4.34-.93Z"/><path class="cls-3" d="M316.57,33.42l6.47-18.72,4.19,1.45-5.17,14.95,11.15,3.85-1.3,3.77-15.34-5.3Z"/><path class="cls-3" d="M334.07,35.65c.87-2.01,2.9-2.61,5.93-1.65l6.09,1.93.22-.52c.76-1.76.19-2.59-1.98-3.53-2.06-.89-3.14-.71-3.81.83l-.05.11-4.1-1.77.04-.08c1.46-3.36,5.29-4.48,9.76-2.54,4.53,1.96,5.66,5.22,4.12,8.78l-3.45,7.98-3.8-1.65,1.35-3.12-.22-.09c-1.54,1.85-3.99,2.3-7,.99-2.93-1.27-4.11-3.39-3.12-5.67ZM339.6,38.95c2.77,1.2,4.54,1.19,5.48-.69l-4.96-1.5c-1.01-.34-1.56-.26-1.84.39-.32.73.12,1.28,1.32,1.79Z"/><path class="cls-3" d="M348.46,45.95l9.23-17.52,3.92,2.07-4.89,9.28,2.98,1.57,5.91-3.1,4.66,2.45-8.12,3.81,1.14,9.25-4.63-2.44-.78-6.46-3.01-1.58-2.49,4.73-3.92-2.07Z"/><path class="cls-3" d="M366.34,49.72l.05-.08,3.76,2.35-.14.23c-.71,1.13-.19,1.87,1.94,3.2,2,1.25,2.68,1.23,3.15.48.44-.7.19-1.14-1.16-2.26l-3.27-2.64c-2.33-1.84-3.03-3.85-1.71-5.96,1.38-2.2,4.36-2.78,8.67-.08,4.11,2.57,5.47,5.58,3.55,8.64l-.05.07-3.76-2.35.09-.15c.64-1.03.47-1.87-1.83-3.31-1.88-1.18-2.56-1.15-3.06-.35-.41.65-.23,1.15,1.3,2.38l2.48,2c3.12,2.48,3.67,4.39,2.37,6.47-1.47,2.35-4.78,2.45-8.66.02-4.23-2.65-5.53-5.76-3.71-8.67Z"/><path class="cls-3" d="M379.25,59.51c1.29-1.77,3.41-1.9,6.15-.3l5.52,3.23.33-.45c1.13-1.55.76-2.49-1.15-3.88-1.81-1.33-2.9-1.39-3.9-.03l-.07.1-3.6-2.64.05-.07c2.16-2.96,6.15-3.2,10.08-.32,3.99,2.92,4.37,6.35,2.08,9.47l-5.13,7.02-3.34-2.44,2.01-2.74-.19-.14c-1.91,1.46-4.4,1.36-7.05-.58-2.58-1.89-3.26-4.21-1.79-6.22ZM383.92,63.94c2.43,1.78,4.17,2.17,5.5.54l-4.5-2.56c-.91-.56-1.47-.6-1.89-.02-.47.64-.16,1.27.89,2.04Z"/><path class="cls-3" d="M440.64,127.57l17.05-10.08,5.27,8.91c2.33,3.95,1.6,7.81-2.32,10.13-3.92,2.32-7.69,1.11-10.02-2.83l-3.01-5.09-4.71,2.78-2.26-3.82ZM456.51,123.34l-5.47,3.23,2.77,4.68c1.25,2.11,2.45,2.74,4.58,1.48,2.09-1.23,2.14-2.6.89-4.71l-2.77-4.68Z"/><path class="cls-3" d="M456.64,140.3c4.25-2.08,8.4-.38,10.54,4,2.13,4.36,1.26,8.37-2.92,10.4-.48.23-.85.35-1.33.52l-5.29-10.84c-1.99,1.1-2.4,2.49-1.15,5.07,1.15,2.36,2.17,2.89,3.31,2.33l.27-.13,1.95,3.98-.29.14c-2.9,1.41-6.29-.42-8.35-4.64-2.17-4.44-1.47-8.53,3.26-10.84ZM459.77,143.41l3.45,7.07c1.7-.96,1.95-2.4.81-4.74-1.15-2.36-2.44-2.98-4.26-2.33Z"/><path class="cls-3" d="M457.72,159.49l13.78-5.43,1.51,3.82-4.24,1.67.1.25c2.45-.55,5.3.23,6.72,3.84,1.48,3.77-.23,6.51-3.29,7.71l-8.58,3.38-1.62-4.13,7.21-2.84c2.2-.87,2.78-2.14,1.78-4.67-1.03-2.61-2.44-3.14-4.78-2.22l-6.96,2.74-1.62-4.13Z"/><path class="cls-3" d="M467.62,174.81c2.09-.64,3.87.51,5.11,3.44l2.49,5.89.54-.17c1.84-.56,2.09-1.54,1.4-3.8-.66-2.15-1.49-2.85-3.1-2.36l-.11.03-1.31-4.27.08-.03c3.5-1.07,6.84,1.12,8.27,5.78,1.45,4.72-.3,7.7-4,8.83l-8.31,2.55-1.21-3.96,3.25-1-.07-.23c-2.4.03-4.34-1.54-5.3-4.68-.94-3.05-.09-5.32,2.29-6.05ZM468.7,181.15c.88,2.88,2.04,4.23,4.08,3.73l-2.07-4.74c-.4-.99-.82-1.36-1.5-1.15-.76.23-.89.92-.51,2.17Z"/><path class="cls-3" d="M469.15,192.44l14.46-3.23.9,4.01-4.44.99.06.26c2.51-.17,5.2,1.05,6.05,4.83.88,3.95-1.24,6.4-4.44,7.11l-9,2.01-.97-4.33,7.56-1.69c2.31-.52,3.08-1.69,2.48-4.34-.61-2.74-1.93-3.48-4.38-2.93l-7.3,1.63-.97-4.33Z"/><path class="cls-3" d="M481.2,208.55c4.1-.57,7.11,1.72,7.72,6.12.42,2.99-.57,5.3-3.05,6.13l.03.23,3.54-.49.57,4.1-12.53,1.75c-5.12.72-7.84-2.07-8.57-7.31-.66-4.74,1.03-8.02,4.72-8.54l.61,4.39c-1.64.23-2.05.94-1.63,3.93.39,2.81,1.1,3.58,3.97,3.18l3.31-.46-.03-.23c-2.23-.17-3.97-1.69-4.42-4.96-.61-4.36,1.64-7.25,5.77-7.82ZM479.42,217.36c.39,2.81,1.38,4.08,3.4,3.79l.32-.04c1.99-.28,2.56-1.79,2.18-4.51-.39-2.81-1.33-3.93-3.49-3.63-2.17.3-2.79,1.64-2.4,4.4Z"/><path class="cls-3" d="M475.94,231.53l20.05,8.09.18,6.33-19.55,9.29-.15-5.08,4.32-1.99-.29-9.9-4.43-1.77-.14-4.97ZM484.56,239.86l.19,6.47,4.26-1.99,3.04-1.3v-.33s-3.12-1.12-3.12-1.12l-4.37-1.74Z"/><path class="cls-3" d="M481.51,255.77h.09s-.25,4.43-.25,4.43h-.27c-1.33-.09-1.73.72-1.87,3.23-.13,2.36.22,2.94,1.11,2.99.83.05,1.09-.38,1.42-2.11l.73-4.13c.49-2.93,1.91-4.51,4.39-4.37,2.6.15,4.54,2.47,4.26,7.55-.27,4.84-2.25,7.48-5.85,7.28h-.09s.25-4.43.25-4.43h.18c1.21.08,1.86-.48,2.01-3.19.12-2.21-.23-2.8-1.17-2.85-.77-.04-1.12.35-1.46,2.29l-.56,3.14c-.66,3.93-2.07,5.33-4.52,5.19-2.77-.15-4.45-3-4.2-7.58.28-4.99,2.38-7.62,5.8-7.43Z"/><path class="cls-3" d="M479.16,271.81c2.17.28,3.31,2.07,3.23,5.24l-.17,6.39.56.07c1.91.25,2.54-.54,2.85-2.88.29-2.23-.18-3.21-1.85-3.43h-.12s.57-4.44.57-4.44h.09c3.63.48,5.76,3.85,5.14,8.69-.63,4.89-3.45,6.88-7.29,6.39l-8.62-1.11.53-4.1,3.37.44.03-.23c-2.2-.97-3.31-3.2-2.89-6.45.41-3.17,2.12-4.88,4.58-4.56ZM477.52,278.03c-.39,2.99.11,4.69,2.18,5.08l.07-5.18c.05-1.07-.18-1.57-.89-1.66-.79-.1-1.19.47-1.36,1.76Z"/><path class="cls-3" d="M473.54,288.43l14.42,3.36-.93,4-4.38-1.02-.05.23c2.34.91,4.25,2.87,3.41,6.5-.78,3.34-3.22,4.56-5.97,4.26l-.06.26c2.37.92,4.3,2.91,3.44,6.63-.86,3.71-3.73,4.96-7.02,4.2l-8.98-2.09,1-4.32,7.54,1.76c2.39.56,3.48-.07,4.05-2.55.61-2.62-.25-3.61-2.76-4.19l-7.29-1.69,1-4.32,7.54,1.76c2.39.56,3.48-.07,4.05-2.55.61-2.62-.25-3.61-2.76-4.19l-7.28-1.69,1-4.32Z"/><path class="cls-3" d="M465.35,320.43l18.6,6.81-1.52,4.16-14.85-5.44-4.05,11.07-3.75-1.37,5.58-15.24Z"/><path class="cls-3" d="M462.81,337.88c1.99.91,2.56,2.95,1.54,5.96l-2.04,6.06.51.23c1.75.8,2.59.24,3.57-1.92.93-2.05.77-3.12-.76-3.82l-.11-.05,1.85-4.06.08.04c3.34,1.52,4.38,5.37,2.36,9.81-2.04,4.5-5.33,5.57-8.85,3.97l-7.91-3.6,1.71-3.77,3.1,1.41.1-.21c-1.82-1.57-2.23-4.03-.87-7.02,1.32-2.91,3.46-4.04,5.72-3.02ZM459.41,343.35c-1.25,2.75-1.28,4.52.59,5.5l1.59-4.93c.36-1.01.29-1.56-.36-1.85-.73-.33-1.28.1-1.82,1.28Z"/><path class="cls-3" d="M452.26,352.09l17.36,9.54-2.14,3.89-9.2-5.05-1.62,2.95,3,5.96-2.53,4.61-3.66-8.19-9.27.98,2.52-4.59,6.47-.66,1.64-2.98-4.69-2.58,2.14-3.89Z"/><path class="cls-3" d="M448.18,369.88l.07.05-2.42,3.72-.22-.15c-1.12-.73-1.86-.22-3.24,1.88-1.29,1.98-1.27,2.66-.53,3.15.69.45,1.13.21,2.28-1.12l2.7-3.22c1.89-2.3,3.9-2.96,5.99-1.61,2.18,1.42,2.71,4.41-.07,8.67-2.65,4.06-5.68,5.37-8.71,3.4l-.07-.05,2.42-3.72.15.1c1.02.66,1.86.5,3.34-1.78,1.21-1.86,1.19-2.54.4-3.05-.64-.42-1.14-.25-2.41,1.26l-2.05,2.44c-2.53,3.08-4.45,3.59-6.51,2.25-2.33-1.52-2.37-4.82.13-8.66,2.73-4.19,5.86-5.43,8.74-3.56Z"/><path class="cls-3" d="M438.15,382.63c1.74,1.32,1.84,3.44.19,6.16l-3.33,5.46.45.34c1.53,1.16,2.47.8,3.9-1.08,1.36-1.79,1.44-2.88.1-3.9l-.09-.07,2.7-3.55.07.05c2.92,2.22,3.08,6.2.13,10.09-2.99,3.93-6.42,4.25-9.51,1.91l-6.92-5.26,2.5-3.3,2.71,2.06.14-.19c-1.42-1.94-1.28-4.42.71-7.04,1.93-2.54,4.27-3.18,6.25-1.68ZM433.63,387.22c-1.82,2.4-2.24,4.13-.64,5.49l2.64-4.45c.57-.9.62-1.46.06-1.89-.64-.48-1.27-.19-2.06.85Z"/><path class="cls-3" d="M369,442.8l9.77,17.23-9,5.11c-3.99,2.26-7.84,1.46-10.09-2.5-2.25-3.96-.97-7.71,3.01-9.97l5.14-2.92-2.7-4.76,3.86-2.19ZM372.95,458.75l-3.14-5.53-4.73,2.68c-2.13,1.21-2.79,2.4-1.56,4.56,1.2,2.11,2.56,2.18,4.7.97l4.73-2.68Z"/><path class="cls-3" d="M355.99,458.57c2,4.29.23,8.4-4.19,10.46-4.39,2.05-8.39,1.1-10.35-3.1-.22-.48-.33-.86-.49-1.34l10.93-5.09c-1.07-2.01-2.44-2.45-5.04-1.24-2.38,1.11-2.93,2.11-2.39,3.27l.12.27-4.02,1.87-.14-.29c-1.36-2.92.53-6.28,4.79-8.26,4.47-2.08,8.55-1.31,10.77,3.46ZM352.83,461.64l-7.13,3.32c.93,1.72,2.36,2,4.72.9,2.38-1.11,3.03-2.39,2.4-4.22Z"/><path class="cls-3" d="M336.79,459.3l5.18,13.88-3.85,1.44-1.59-4.26-.25.09c.51,2.46-.32,5.3-3.95,6.65-3.79,1.42-6.5-.35-7.65-3.42l-3.23-8.64,4.15-1.55,2.71,7.26c.83,2.22,2.09,2.82,4.64,1.86,2.63-.98,3.18-2.39,2.3-4.74l-2.62-7.01,4.15-1.55Z"/><path class="cls-3" d="M321.31,468.92c.6,2.1-.58,3.86-3.53,5.04l-5.93,2.38.16.54c.53,1.85,1.5,2.12,3.77,1.47,2.16-.62,2.88-1.44,2.41-3.06l-.03-.11,4.29-1.23.02.08c1.01,3.52-1.24,6.82-5.93,8.16-4.75,1.36-7.69-.44-8.76-4.16l-2.4-8.35,3.98-1.14.94,3.27.23-.07c.02-2.4,1.62-4.31,4.78-5.22,3.07-.88,5.32,0,6.01,2.39ZM314.94,469.89c-2.9.83-4.26,1.96-3.8,4.01l4.78-1.99c1-.38,1.37-.79,1.18-1.48-.22-.77-.91-.91-2.16-.55Z"/><path class="cls-3" d="M303.65,470.13l2.97,14.51-4.03.83-.91-4.46-.26.05c.12,2.51-1.14,5.18-4.93,5.96-3.97.81-6.37-1.35-7.03-4.56l-1.85-9.04,4.34-.89,1.55,7.59c.47,2.32,1.63,3.11,4.3,2.56,2.75-.56,3.51-1.87,3.01-4.33l-1.5-7.33,4.34-.89Z"/><path class="cls-3" d="M287.32,481.9c.5,4.11-1.85,7.07-6.25,7.61-2.99.36-5.29-.67-6.07-3.16l-.23.03.43,3.55-4.11.5-1.53-12.56c-.62-5.13,2.21-7.8,7.46-8.44,4.75-.58,8,1.17,8.45,4.87l-4.4.54c-.2-1.64-.91-2.06-3.9-1.7-2.82.34-3.6,1.03-3.25,3.91l.4,3.32.24-.03c.21-2.23,1.75-3.94,5.04-4.34,4.37-.53,7.21,1.77,7.72,5.91ZM278.54,479.96c-2.82.34-4.1,1.3-3.85,3.33l.04.32c.24,2,1.74,2.59,4.47,2.25,2.82-.34,3.96-1.26,3.69-3.43-.26-2.17-1.59-2.81-4.35-2.48Z"/><path class="cls-3" d="M264.41,476.17l-8.34,19.94-6.33.1-9.04-19.66,5.08-.08,1.93,4.34,9.9-.16,1.82-4.4,4.96-.08ZM255.98,484.67l-6.47.1,1.93,4.29,1.26,3.05h.33s1.16-3.1,1.16-3.1l1.79-4.35Z"/><path class="cls-3" d="M240.09,481.37v.09s-4.43-.33-4.43-.33l.02-.26c.1-1.33-.7-1.74-3.21-1.93-2.36-.17-2.95.17-3.01,1.05-.06.83.36,1.09,2.08,1.46l4.12.81c2.92.54,4.48,1.99,4.29,4.47-.19,2.59-2.56,4.49-7.63,4.12-4.83-.36-7.44-2.39-7.17-5.99v-.09s4.43.33,4.43.33v.18c-.1,1.21.44,1.87,3.15,2.07,2.21.16,2.8-.18,2.87-1.12.06-.77-.33-1.12-2.26-1.5l-3.13-.62c-3.92-.74-5.29-2.17-5.11-4.62.21-2.77,3.08-4.4,7.65-4.06,4.98.37,7.58,2.52,7.33,5.94Z"/><path class="cls-3" d="M224.1,478.74c-.32,2.16-2.13,3.27-5.3,3.13l-6.38-.28-.08.56c-.28,1.9.49,2.55,2.83,2.9,2.22.33,3.22-.12,3.46-1.79l.02-.12,4.42.65v.09c-.55,3.63-3.96,5.7-8.79,4.99-4.88-.72-6.83-3.57-6.26-7.41l1.27-8.6,4.09.6-.5,3.36.23.03c1.01-2.18,3.26-3.26,6.5-2.78,3.16.46,4.85,2.21,4.48,4.66ZM217.9,476.99c-2.98-.44-4.7.03-5.12,2.09l5.18.16c1.07.07,1.58-.16,1.68-.86.12-.79-.45-1.2-1.74-1.39Z"/><path class="cls-3" d="M207.57,472.82l-3.62,14.36-3.99-1,1.1-4.36-.23-.06c-.95,2.32-2.95,4.2-6.56,3.29-3.33-.84-4.51-3.3-4.15-6.04l-.26-.07c-.96,2.35-2.99,4.25-6.69,3.32-3.7-.93-4.89-3.82-4.07-7.09l2.25-8.95,4.3,1.08-1.89,7.51c-.6,2.38,0,3.48,2.47,4.1,2.61.66,3.61-.19,4.24-2.68l1.83-7.25,4.3,1.08-1.89,7.51c-.6,2.38,0,3.48,2.47,4.1,2.61.66,3.61-.19,4.24-2.68l1.83-7.25,4.3,1.08Z"/><path class="cls-3" d="M175.73,464.06l-7.14,18.47-4.14-1.6,5.7-14.75-11-4.25,1.44-3.72,15.14,5.85Z"/><path class="cls-3" d="M158.33,461.21c-.94,1.97-3,2.5-5.99,1.43l-6.02-2.15-.24.51c-.83,1.73-.28,2.58,1.85,3.6,2.03.97,3.11.83,3.84-.69l.05-.11,4.03,1.92-.04.08c-1.58,3.31-5.45,4.28-9.85,2.18-4.46-2.12-5.47-5.43-3.8-8.92l3.74-7.85,3.74,1.78-1.46,3.07.21.1c1.61-1.79,4.07-2.15,7.04-.74,2.88,1.37,3.98,3.54,2.91,5.78ZM152.93,457.71c-2.72-1.3-4.5-1.36-5.51.49l4.9,1.68c1,.38,1.55.31,1.86-.33.34-.72-.08-1.28-1.25-1.84Z"/><path class="cls-3" d="M144.32,450.4l-9.86,17.18-3.85-2.21,5.22-9.11-2.92-1.68-6.02,2.89-4.57-2.62,8.25-3.52-.81-9.29,4.54,2.6.54,6.48,2.95,1.69,2.66-4.64,3.85,2.21Z"/><path class="cls-3" d="M126.6,446l-.05.07-3.67-2.48.15-.22c.75-1.1.26-1.86-1.82-3.27-1.96-1.32-2.64-1.32-3.14-.59-.46.69-.23,1.13,1.08,2.3l3.17,2.75c2.27,1.92,2.89,3.95,1.5,6.01-1.46,2.15-4.45,2.63-8.67-.22-4.02-2.72-5.27-5.77-3.25-8.76l.05-.07,3.67,2.48-.1.15c-.68,1-.54,1.85,1.72,3.37,1.84,1.24,2.52,1.24,3.05.45.43-.64.27-1.14-1.21-2.43l-2.41-2.09c-3.03-2.59-3.51-4.52-2.14-6.55,1.56-2.3,4.86-2.28,8.66.29,4.14,2.8,5.32,5.95,3.4,8.79Z"/><path class="cls-3" d="M114.04,435.76c-1.35,1.72-3.47,1.78-6.16.08l-5.4-3.42-.35.44c-1.19,1.51-.85,2.46,1.01,3.92,1.76,1.39,2.85,1.49,3.89.17l.07-.09,3.51,2.76-.05.07c-2.27,2.88-6.26,2.97-10.09-.04-3.88-3.06-4.14-6.5-1.74-9.54l5.38-6.83,3.25,2.56-2.1,2.67.19.15c1.96-1.39,4.45-1.2,7.02.83,2.51,1.98,3.1,4.33,1.57,6.28ZM109.53,431.15c-2.37-1.87-4.08-2.32-5.48-.74l4.41,2.72c.89.59,1.45.65,1.88.09.49-.63.21-1.27-.81-2.07Z"/><path class="cls-3" d="M59.71,372.97l-17.02,10.13-5.29-8.89c-2.34-3.94-1.62-7.81,2.29-10.14,3.91-2.33,7.69-1.13,10.03,2.8l3.02,5.08,4.7-2.8,2.27,3.81ZM43.85,377.25l5.46-3.25-2.78-4.67c-1.25-2.11-2.46-2.74-4.59-1.47-2.08,1.24-2.13,2.61-.87,4.72l2.78,4.67Z"/><path class="cls-3" d="M43.67,360.29c-4.25,2.09-8.4.41-10.55-3.97-2.14-4.35-1.28-8.37,2.89-10.42.48-.23.85-.35,1.33-.52l5.32,10.83c1.99-1.11,2.4-2.5,1.13-5.07-1.16-2.36-2.18-2.88-3.32-2.32l-.26.13-1.96-3.98.29-.14c2.89-1.42,6.29.4,8.37,4.62,2.18,4.43,1.49,8.53-3.23,10.85ZM40.53,357.18l-3.47-7.06c-1.7.97-1.95,2.41-.8,4.74,1.16,2.36,2.45,2.98,4.27,2.32Z"/><path class="cls-3" d="M42.54,341.1l-13.77,5.47-1.52-3.82,4.23-1.68-.1-.25c-2.45.56-5.3-.22-6.73-3.82-1.5-3.77.21-6.51,3.26-7.72l8.57-3.4,1.64,4.12-7.2,2.86c-2.2.87-2.77,2.15-1.77,4.68,1.04,2.61,2.45,3.13,4.79,2.2l6.95-2.76,1.64,4.12Z"/><path class="cls-3" d="M32.59,325.82c-2.09.65-3.87-.5-5.12-3.43l-2.5-5.88-.54.17c-1.84.57-2.09,1.55-1.39,3.81.67,2.15,1.5,2.85,3.11,2.35l.11-.04,1.32,4.26-.08.03c-3.5,1.09-6.84-1.1-8.29-5.76-1.46-4.72.27-7.7,3.97-8.85l8.3-2.57,1.23,3.95-3.25,1.01.07.23c2.41-.03,4.35,1.53,5.32,4.67.95,3.05.1,5.32-2.27,6.06ZM31.49,319.47c-.89-2.88-2.05-4.22-4.09-3.72l2.09,4.74c.4.99.82,1.36,1.5,1.14.76-.24.89-.93.5-2.17Z"/><path class="cls-3" d="M31.02,308.2l-14.44,3.27-.91-4.01,4.44-1.01-.06-.26c-2.51.17-5.2-1.03-6.06-4.81-.89-3.95,1.22-6.4,4.42-7.12l8.99-2.04.98,4.32-7.55,1.71c-2.31.52-3.07,1.7-2.47,4.35.62,2.74,1.94,3.47,4.39,2.92l7.29-1.65.98,4.32Z"/><path class="cls-3" d="M18.92,292.11c-4.1.58-7.11-1.71-7.74-6.09-.42-2.99.56-5.3,3.04-6.14l-.03-.23-3.54.5-.58-4.1,12.53-1.78c5.12-.73,7.85,2.05,8.59,7.29.67,4.74-1.01,8.03-4.69,8.55l-.62-4.39c1.64-.23,2.04-.95,1.62-3.93-.4-2.81-1.11-3.58-3.97-3.17l-3.31.47.03.23c2.23.16,3.97,1.67,4.44,4.95.62,4.36-1.63,7.25-5.75,7.83ZM20.68,283.29c-.4-2.81-1.39-4.07-3.41-3.79l-.32.04c-1.99.28-2.55,1.8-2.16,4.52.4,2.81,1.33,3.93,3.5,3.62s2.78-1.65,2.39-4.4Z"/><path class="cls-3" d="M24.11,269.12l-20.07-8.03-.2-6.32,19.52-9.34.16,5.08-4.31,2,.31,9.9,4.43,1.75.16,4.96ZM15.48,260.82l-.2-6.47-4.25,2-3.03,1.31v.33s3.12,1.11,3.12,1.11l4.37,1.72Z"/><path class="cls-3" d="M18.47,244.87h-.09s.24-4.43.24-4.43h.27c1.33.08,1.73-.72,1.86-3.23.12-2.36-.23-2.94-1.11-2.99-.83-.04-1.09.39-1.42,2.12l-.72,4.14c-.48,2.94-1.9,4.52-4.38,4.39-2.6-.14-4.55-2.46-4.28-7.54.26-4.84,2.23-7.49,5.84-7.3h.09s-.24,4.43-.24,4.43h-.18c-1.21-.07-1.86.48-2.01,3.2-.12,2.21.24,2.8,1.18,2.85.77.04,1.11-.35,1.46-2.29l.55-3.14c.65-3.93,2.06-5.34,4.51-5.21,2.78.15,4.46,2.99,4.22,7.57-.27,4.99-2.36,7.63-5.79,7.45Z"/><path class="cls-3" d="M20.78,228.85c-2.17-.27-3.32-2.06-3.24-5.23l.15-6.39-.56-.07c-1.91-.24-2.54.54-2.84,2.89-.28,2.23.19,3.21,1.86,3.42h.12s-.56,4.44-.56,4.44h-.09c-3.64-.47-5.78-3.84-5.17-8.68.62-4.9,3.43-6.9,7.27-6.41l8.62,1.09-.52,4.11-3.37-.42-.03.23c2.2.96,3.32,3.19,2.91,6.44-.4,3.17-2.11,4.89-4.57,4.58ZM22.39,222.62c.38-2.99-.12-4.69-2.19-5.07l-.06,5.18c-.04,1.07.19,1.57.89,1.66.79.1,1.19-.48,1.35-1.77Z"/><path class="cls-3" d="M26.36,212.2l-14.43-3.32.92-4,4.38,1.01.05-.23c-2.34-.9-4.26-2.86-3.42-6.49.77-3.34,3.21-4.57,5.96-4.27l.06-.26c-2.37-.91-4.31-2.9-3.45-6.62s3.72-4.97,7-4.21l8.99,2.07-.99,4.32-7.55-1.73c-2.39-.55-3.48.08-4.05,2.56-.6,2.62.26,3.61,2.77,4.19l7.29,1.68-.99,4.32-7.55-1.73c-2.39-.55-3.48.08-4.05,2.56-.6,2.62.26,3.61,2.77,4.19l7.29,1.68-.99,4.32Z"/><path class="cls-3" d="M34.45,180.19l-18.62-6.75,1.51-4.17,14.87,5.39,4.02-11.09,3.75,1.36-5.53,15.25Z"/><path class="cls-3" d="M36.94,162.72c-1.99-.9-2.56-2.94-1.56-5.96l2.02-6.06-.51-.23c-1.75-.79-2.59-.23-3.56,1.93-.92,2.05-.76,3.13.77,3.82l.11.05-1.84,4.07-.08-.04c-3.34-1.51-4.39-5.36-2.39-9.8,2.03-4.5,5.31-5.58,8.84-3.99l7.92,3.58-1.7,3.77-3.1-1.4-.1.22c1.82,1.57,2.24,4.03.89,7.02-1.31,2.91-3.45,4.05-5.71,3.03ZM40.32,157.24c1.24-2.75,1.26-4.52-.6-5.49l-1.58,4.93c-.36,1.01-.28,1.56.36,1.85.73.33,1.28-.1,1.81-1.29Z"/><path class="cls-3" d="M47.44,148.5l-17.39-9.49,2.12-3.89,9.21,5.03,1.61-2.96-3.02-5.96,2.52-4.62,3.69,8.18,9.27-1-2.51,4.59-6.47.68-1.63,2.98,4.7,2.56-2.12,3.89Z"/><path class="cls-3" d="M51.49,130.68l-.07-.05,2.41-3.72.22.14c1.12.72,1.86.22,3.23-1.89,1.28-1.99,1.27-2.67.52-3.15-.7-.45-1.13-.21-2.28,1.13l-2.69,3.23c-1.88,2.31-3.89,2.97-5.98,1.63-2.18-1.41-2.72-4.4.04-8.67,2.63-4.07,5.67-5.39,8.69-3.43l.07.05-2.41,3.72-.15-.1c-1.02-.66-1.86-.5-3.34,1.79-1.2,1.86-1.19,2.54-.39,3.06.65.42,1.14.25,2.4-1.26l2.04-2.45c2.52-3.09,4.44-3.6,6.5-2.27,2.33,1.51,2.38,4.81-.11,8.66-2.71,4.2-5.84,5.44-8.72,3.58Z"/><path class="cls-3" d="M61.47,117.9c-1.75-1.32-1.85-3.43-.21-6.15l3.31-5.46-.45-.34c-1.53-1.16-2.47-.79-3.9,1.09-1.35,1.79-1.43,2.88-.09,3.9l.09.07-2.69,3.56-.07-.05c-2.92-2.21-3.1-6.19-.16-10.08,2.97-3.94,6.41-4.27,9.5-1.94l6.94,5.23-2.49,3.3-2.71-2.05-.14.19c1.43,1.93,1.29,4.42-.68,7.04-1.92,2.55-4.26,3.19-6.24,1.69ZM65.98,113.3c1.82-2.41,2.23-4.13.62-5.49l-2.63,4.46c-.57.9-.62,1.46-.05,1.89.64.48,1.27.18,2.05-.86Z"/><path class="cls-3" d="M432.63,98.32l-4.92-4.34c-.85-.75-2.19-.1-2.12,1.04l.2,3.18c.06.94.71,1.74,1.63,1.98l3.7.98c1.68.44,2.81-1.68,1.51-2.83ZM431.51,99.69l-3.7-.98c-.28-.07-.48-.32-.5-.61l-.16-2.61,4.49,3.96c.11.1.01.27-.13.24Z"/><path class="cls-3" d="M403.94,81.14l-.71.38c-.34.18-.53.57-.46.95.06.38.36.68.75.75l8.43,1.42c.31.65.67,1.34,1.03,1.97-.47.37-1.05.56-1.66.55-.63-.01-1.01.69-.66,1.21l3.18,4.74c.7,1.04,2.04,1.36,3.13.77l.44-.24c1.86,2.69,3.71,5.06,5.35,6.86l-1.77,2.01c-.45.5-.28,1.3.34,1.58l.44.2c1.59.71,3.43.6,4.92-.27,2.86,1.93,5.77,2.75,7.42,3.09.41.08.81-.18.89-.59s-.18-.81-.59-.89c-3.08-.63-6.18-2.05-8.6-4.19-3.7-3.27-8.71-10.62-11.21-15.01-.01-.03-.03-.06-.05-.09-.52-.91-1.38-2.51-1.73-3.5.18.04.39.1.64.17.09.03,2.49.67,7.77,3.27,3.46,1.7,8.76,4.59,11.65,7.14,2.97,2.62,4.46,5.89,5.08,7.61.92,2.52.96,4.3.82,4.73-.12.05-.44.14-1.04.17-.42.02-.74.38-.72.79s.38.74.79.72c1.07-.05,1.76-.27,2.11-.67.81-.91.36-3.66-.45-5.99-.66-1.91-2.27-5.56-5.6-8.5-.32-.28-.68-.58-1.08-.88l.47-5.81c.04-.54-.21-1.05-.67-1.34-.46-.29-1.03-.29-1.5-.02l-1.16.69c-1.04.62-2.34.61-3.37-.02-.74-.45-1.7.05-1.74.92l-.03.58c-2.91-1.56-7.37-3.71-10.47-4.71l-2.41-8.02c-.11-.37-.45-.63-.83-.65-.39-.02-.74.22-.88.58l-.29.75c-.67,1.73-.91,3.59-.69,5.42-1.85.01-3.66.48-5.29,1.36ZM426.32,86.48c1.41.64,3.05.56,4.4-.25l1.04-.62-.39,4.75c-.23-.16-.46-.32-.7-.48l.35-1.73c.08-.41-.18-.81-.59-.89-.41-.08-.81.18-.89.59l-.23,1.15c-.3-.19-.6-.37-.91-.56l.06-.3c.08-.41-.18-.81-.59-.89-.34-.07-.67.1-.82.4-.25-.14-.51-.29-.76-.43l.03-.74ZM425.32,103c-.88.33-1.85.33-2.74,0l1.22-1.38c.58.59,1.06,1.01,1.52,1.39ZM416.54,92.4l-.3.17c-.4.22-.89.1-1.15-.28l-2.54-3.78c.42-.13.81-.32,1.17-.57.89,1.51,1.86,3.04,2.82,4.46ZM410.83,80.24c-.27-1.46-.21-2.95.19-4.36l1.63,5.42c-.66-.07-.98.07-1.21.33-.25.28-.35.64-.14,1.38l-5.72-.96c1.36-.56,2.83-.81,4.31-.73.59.04,1.06-.49.95-1.07Z"/><path class="cls-3" d="M436.27,99.82c-.19-.37-.64-.52-1.01-.34-1.46.73-2.59,2.01-3.14,3.56-.11.3-.01.62.21.82.4.35,1.03.19,1.21-.31.42-1.17,1.28-2.15,2.39-2.71.37-.19.52-.64.34-1.01Z"/><path class="cls-3" d="M100.61,67.03l-4.79,4.47c-.83.77-.31,2.17.83,2.21l3.18.11c.94.03,1.8-.54,2.13-1.43l1.33-3.59c.6-1.62-1.4-2.96-2.67-1.78ZM101.86,68.28l-1.33,3.59c-.1.27-.37.45-.66.44l-2.62-.09,4.38-4.09c.11-.1.27.01.22.15Z"/><path class="cls-3" d="M80.73,93.92l.31.74c.15.36.51.58.9.55.39-.03.72-.3.82-.67l2.23-8.25c.68-.25,1.4-.54,2.06-.83.32.5.46,1.1.39,1.7-.07.62.59,1.08,1.14.78l5.03-2.71c1.1-.59,1.55-1.9,1.06-3.04l-.19-.46c2.85-1.6,5.39-3.21,7.34-4.66l1.82,1.96c.46.49,1.27.4,1.61-.19l.24-.42c.86-1.52.93-3.36.2-4.92,2.19-2.66,3.29-5.47,3.79-7.09.12-.4-.1-.82-.5-.94s-.82.1-.94.5c-.92,3.01-2.64,5.95-5,8.15-3.61,3.37-11.41,7.64-16.02,9.71-.03.01-.06.03-.09.04-.96.43-2.63,1.13-3.65,1.39.06-.17.13-.38.23-.62.04-.09.91-2.42,4-7.42,2.03-3.28,5.42-8.28,8.24-10.91,2.9-2.7,6.29-3.87,8.06-4.32,2.6-.67,4.37-.54,4.79-.36.04.13.1.46.07,1.06-.02.42.3.77.72.79s.77-.3.79-.72c.05-1.07-.1-1.78-.47-2.16-.83-.89-3.61-.71-6-.13-1.97.48-5.76,1.73-9,4.75-.31.29-.64.62-.98.98l-5.74-1.03c-.53-.1-1.07.11-1.4.54-.33.43-.39,1-.16,1.49l.57,1.22c.52,1.1.38,2.38-.35,3.35-.52.7-.11,1.7.75,1.82l.58.08c-1.83,2.75-4.4,6.98-5.7,9.96l-8.22,1.62c-.38.08-.67.38-.72.77-.05.38.14.76.49.94l.72.36c1.65.84,3.48,1.25,5.33,1.21-.17,1.84.12,3.69.84,5.4ZM88.21,72.17c.77-1.34.85-2.98.18-4.4l-.52-1.1,4.69.84c-.18.21-.36.43-.54.65l-1.69-.52c-.4-.12-.82.1-.94.5-.12.4.1.82.5.94l1.12.34c-.21.28-.43.56-.65.85l-.29-.09c-.4-.12-.82.1-.94.5-.1.33.04.68.32.86-.17.24-.34.48-.5.72l-.74-.11ZM104.56,74.76c.24.9.15,1.88-.27,2.73l-1.26-1.35c.64-.52,1.11-.95,1.53-1.38ZM93.16,82.47l.14.32c.18.42.01.9-.39,1.11l-4,2.16c-.08-.43-.24-.84-.45-1.22,1.58-.74,3.21-1.56,4.71-2.37ZM80.5,86.98c-1.48.13-2.95-.08-4.33-.61l5.55-1.09c-.14.65-.03.98.21,1.24.25.27.61.41,1.36.27l-1.51,5.6c-.43-1.41-.54-2.9-.31-4.36.09-.58-.39-1.1-.98-1.05Z"/><path class="cls-3" d="M102.45,63.55c-.39.15-.58.59-.43.98.59,1.52,1.75,2.78,3.24,3.47.29.13.62.07.84-.13.39-.36.29-1.01-.2-1.24-1.13-.53-2.02-1.48-2.47-2.64-.15-.39-.59-.58-.98-.43Z"/><path class="cls-3" d="M398.21,433.61l4.79-4.48c.83-.78,2.19-.16,2.15.98l-.11,3.18c-.03.94-.66,1.76-1.57,2.02l-3.67,1.08c-1.66.49-2.86-1.6-1.59-2.79ZM399.37,434.95l3.67-1.08c.28-.08.48-.33.49-.63l.09-2.62-4.38,4.09c-.11.1,0,.27.13.23Z"/><path class="cls-3" d="M426.4,415.62l.72.36c.35.18.54.55.49.94-.05.39-.34.69-.72.77l-8.39,1.66c-.29.66-.64,1.36-.97,2,.48.35,1.07.53,1.67.5.63-.03,1.03.66.7,1.2l-3.05,4.83c-.67,1.06-2,1.41-3.1.85l-.44-.23c-1.79,2.74-3.57,5.16-5.15,7.01l1.83,1.95c.46.49.31,1.29-.3,1.59l-.44.21c-1.57.76-3.41.7-4.92-.13-2.8,2.01-5.69,2.91-7.33,3.3-.41.09-.81-.16-.91-.56s.16-.81.56-.91c3.06-.72,6.11-2.22,8.47-4.43,3.61-3.37,8.4-10.87,10.78-15.32.01-.03.03-.06.05-.09.49-.93,1.31-2.54,1.63-3.55-.18.04-.39.11-.64.19-.09.04-2.47.74-7.67,3.49-3.41,1.8-8.63,4.84-11.44,7.47s-4.29,6.02-4.86,7.75c-.84,2.55-.84,4.33-.69,4.75.12.05.45.13,1.05.14.42,0,.75.36.74.77s-.36.75-.77.74c-1.07-.02-1.77-.22-2.13-.61-.83-.89-.46-3.65.28-6,.61-1.93,2.11-5.63,5.35-8.65.31-.29.66-.6,1.05-.92l-.64-5.79c-.06-.54.18-1.06.63-1.36.45-.3,1.02-.32,1.5-.06l1.18.66c1.06.59,2.35.54,3.37-.12.73-.48,1.7,0,1.77.87l.04.58c2.87-1.64,7.26-3.92,10.33-5.01l2.18-8.09c.1-.37.43-.64.82-.67.39-.03.75.2.9.55l.31.74c.72,1.71,1.01,3.56.85,5.4,1.85-.04,3.67.37,5.33,1.21ZM404.18,421.59c-1.39.68-3.03.64-4.41-.12l-1.06-.59.52,4.74c.22-.16.45-.33.68-.5l-.4-1.72c-.09-.41.16-.81.57-.91.41-.09.81.16.91.57l.27,1.14c.29-.19.59-.39.9-.59l-.07-.3c-.09-.41.16-.81.56-.91.34-.08.67.08.83.37.25-.15.5-.3.75-.45l-.06-.74ZM405.65,438.08c.88.3,1.86.28,2.74-.09l-1.26-1.35c-.57.6-1.03,1.04-1.48,1.43ZM414.12,427.23l.31.16c.41.21.9.07,1.14-.31l2.43-3.85c-.42-.11-.82-.29-1.19-.53-.84,1.53-1.78,3.1-2.69,4.54ZM419.49,414.91c.23-1.46.12-2.95-.31-4.36l-1.47,5.46c.66-.09.98.04,1.22.29.25.27.36.63.18,1.38l5.69-1.13c-1.37-.52-2.85-.73-4.33-.6-.59.05-1.07-.46-.98-1.05Z"/><path class="cls-3" d="M394.61,435.22c.18-.38.63-.54,1-.37,1.48.69,2.65,1.94,3.24,3.47.11.3.03.62-.19.83-.39.36-1.03.22-1.22-.28-.45-1.16-1.34-2.12-2.47-2.64-.38-.18-.54-.63-.37-1Z"/><path class="cls-3" d="M62.72,398.41l3.98,5.21c.69.9,2.13.52,2.28-.61l.42-3.15c.13-.94-.36-1.84-1.21-2.26l-3.44-1.68c-1.56-.76-3.08,1.11-2.03,2.48ZM64.09,397.29l3.44,1.68c.26.13.41.41.37.7l-.35,2.59-3.64-4.76c-.09-.11.04-.27.17-.21Z"/><path class="cls-3" d="M87.53,420.84l.77-.24c.37-.12.63-.45.64-.84.01-.39-.22-.74-.59-.88l-7.99-3.03c-.18-.7-.4-1.44-.62-2.14.53-.27,1.14-.35,1.73-.22.61.13,1.13-.48.89-1.06l-2.2-5.27c-.48-1.15-1.74-1.73-2.92-1.36l-.47.15c-1.31-3-2.66-5.68-3.92-7.77l2.13-1.62c.53-.41.52-1.22-.03-1.62l-.39-.28c-1.43-1.01-3.25-1.25-4.88-.69-2.43-2.45-5.12-3.82-6.68-4.47-.39-.16-.83.02-.99.41s.02.83.41.99c2.9,1.21,5.66,3.21,7.62,5.77,3,3.92,6.48,12.11,8.08,16.9,0,.03.02.07.03.1.33,1,.87,2.73,1.02,3.77-.17-.07-.37-.17-.6-.29-.08-.05-2.32-1.14-6.99-4.71-3.07-2.34-7.7-6.21-10.04-9.27-2.4-3.15-3.23-6.64-3.51-8.45-.41-2.65-.11-4.41.11-4.8.13-.03.46-.06,1.06.03.41.06.8-.23.86-.64s-.23-.8-.64-.86c-1.06-.15-1.78-.07-2.2.25-.97.74-1.06,3.53-.72,5.96.28,2.01,1.15,5.9,3.84,9.42.26.34.56.7.88,1.08l-1.59,5.61c-.15.52,0,1.07.4,1.44.39.37.96.49,1.47.31l1.27-.45c1.14-.41,2.41-.15,3.3.68.64.59,1.68.28,1.89-.57l.14-.57c2.56,2.09,6.51,5.07,9.35,6.65l.8,8.34c.04.39.32.71.69.8.38.09.77-.07.98-.4l.43-.68c1-1.56,1.59-3.34,1.73-5.18,1.81.35,3.68.24,5.45-.31ZM66.62,411.26c-1.26-.9-2.88-1.14-4.37-.61l-1.14.41,1.3-4.58c.19.2.39.4.59.6l-.68,1.63c-.16.39.02.83.41.99.39.16.83-.02.99-.41l.45-1.08c.26.24.52.48.79.73l-.12.28c-.16.39.02.83.41.99.32.13.68.03.88-.23.22.19.44.38.67.57l-.18.72ZM70.81,395.24c.92-.15,1.88.04,2.69.54l-1.46,1.12c-.46-.69-.84-1.2-1.22-1.66ZM77.36,407.35l.33-.1c.43-.14.9.08,1.07.5l1.75,4.2c-.43.04-.86.15-1.26.33-.58-1.65-1.24-3.35-1.9-4.92ZM80.6,420.39c-.02,1.48-.37,2.93-1.03,4.25l-.54-5.63c.64.2.98.12,1.25-.09.3-.23.46-.56.41-1.33l5.42,2.05c-1.44.29-2.93.25-4.37-.12-.57-.15-1.13.28-1.14.87Z"/><path class="cls-3" d="M59.44,396.24c.11.4.53.64.93.53,1.58-.44,2.93-1.47,3.77-2.88.16-.27.13-.61-.05-.85-.32-.42-.98-.39-1.25.07-.64,1.07-1.67,1.86-2.87,2.2-.4.11-.64.53-.53.93Z"/></g></g></svg>