<svg xmlns="http://www.w3.org/2000/svg" xmlns:xlink="http://www.w3.org/1999/xlink" width="44" height="44" viewBox="0 0 44 44"><defs><clipPath id="a"><rect width="44" height="44" transform="translate(39 3644)" fill="#ff6514"/></clipPath></defs><g transform="translate(-39 -3644)" clip-path="url(#a)"><g transform="translate(39 3644)"><path d="M22.007,10.029a9.879,9.879,0,0,0-7.935,4.022.84.84,0,0,0,.678,1.336h0l14.5-.019a.84.84,0,0,0,.676-1.338,9.881,9.881,0,0,0-7.92-4ZM15.694,14.1a8.548,8.548,0,0,1,12.612-.016Z" fill="#ff6514"/><path d="M14,29.073a.835.835,0,0,0,.071.875,9.838,9.838,0,0,0,15.855.02.84.84,0,0,0-.676-1.338l-14.5-.019h0a.837.837,0,0,0-.749.461Zm14.3.843A8.548,8.548,0,0,1,15.693,29.9Z" fill="#ff6514"/><path d="M42.526,16.654H39.863a1.236,1.236,0,0,1,.1-.295,4.969,4.969,0,0,0-4.095-7.093,1.228,1.228,0,0,1-1.132-1.132A4.969,4.969,0,0,0,27.641,4.04a1.228,1.228,0,0,1-1.546-.414,4.969,4.969,0,0,0-8.19,0,1.228,1.228,0,0,1-1.546.414A4.969,4.969,0,0,0,9.267,8.135,1.228,1.228,0,0,1,8.135,9.267,4.969,4.969,0,0,0,4.04,16.359a1.243,1.243,0,0,1,.1.295H1.474A1.476,1.476,0,0,0,0,18.128v7.745a1.476,1.476,0,0,0,1.474,1.474H4.137a1.24,1.24,0,0,1-.1.295,4.969,4.969,0,0,0,4.095,7.093,1.228,1.228,0,0,1,1.132,1.132,4.969,4.969,0,0,0,7.092,4.095,1.228,1.228,0,0,1,1.546.414,4.969,4.969,0,0,0,8.19,0,1.228,1.228,0,0,1,1.546-.414,4.969,4.969,0,0,0,7.092-4.095,1.228,1.228,0,0,1,1.132-1.132,4.969,4.969,0,0,0,4.095-7.093,1.239,1.239,0,0,1-.1-.295h2.663A1.476,1.476,0,0,0,44,25.872V18.128a1.475,1.475,0,0,0-1.474-1.474ZM5.336,12.379a3.685,3.685,0,0,1,2.9-1.83,2.508,2.508,0,0,0,2.312-2.312A3.683,3.683,0,0,1,15.806,5.2a2.508,2.508,0,0,0,3.158-.846,3.683,3.683,0,0,1,6.071,0,2.508,2.508,0,0,0,3.158.846,3.683,3.683,0,0,1,5.258,3.036,2.508,2.508,0,0,0,2.312,2.312A3.683,3.683,0,0,1,38.8,15.806a2.528,2.528,0,0,0-.234.848H35.774a14.793,14.793,0,0,0-3.928-5.673.643.643,0,1,0-.857.959,13.5,13.5,0,0,1,3.394,4.715H9.614a13.5,13.5,0,0,1,19.067-6.378.643.643,0,1,0,.638-1.117,14.782,14.782,0,0,0-21.1,7.494H5.436a2.532,2.532,0,0,0-.235-.848,3.685,3.685,0,0,1,.134-3.428ZM38.664,31.621a3.685,3.685,0,0,1-2.9,1.83,2.508,2.508,0,0,0-2.312,2.312A3.683,3.683,0,0,1,28.194,38.8a2.509,2.509,0,0,0-3.158.846,3.683,3.683,0,0,1-6.071,0,2.509,2.509,0,0,0-3.158-.846,3.683,3.683,0,0,1-5.258-3.036,2.508,2.508,0,0,0-2.312-2.312A3.683,3.683,0,0,1,5.2,28.194a2.532,2.532,0,0,0,.235-.848H8.224a14.777,14.777,0,0,0,27.552,0h2.787a2.531,2.531,0,0,0,.235.848A3.685,3.685,0,0,1,38.664,31.621Zm4.05-5.749a.188.188,0,0,1-.188.188H15.005a.643.643,0,1,0,0,1.286h19.38a13.489,13.489,0,0,1-24.771,0h2.375a.643.643,0,1,0,0-1.286H1.474a.188.188,0,0,1-.188-.188V18.128a.188.188,0,0,1,.188-.188H42.526a.188.188,0,0,1,.188.188Z" fill="#ff6514"/><path d="M24.091,18.816a.643.643,0,0,0-.643.643v5.081a.643.643,0,1,0,1.286,0V19.459A.643.643,0,0,0,24.091,18.816Z" fill="#ff6514"/><path d="M30.764,18.816a.643.643,0,0,0-.643.643v5.081a.643.643,0,1,0,1.286,0V19.459A.643.643,0,0,0,30.764,18.816Z" fill="#ff6514"/><path d="M28.563,20.14a.643.643,0,0,0,0-1.286H26.518a.643.643,0,0,0-.643.643v5.044a.643.643,0,1,0,1.286,0V22.614H28.4a.643.643,0,0,0,0-1.286H27.161V20.14h1.4Z" fill="#ff6514"/><path d="M11.989,20.149a.643.643,0,1,0,0-1.286H9.868a.643.643,0,0,0-.643.643v5.035a.643.643,0,0,0,.643.643h2.122a.643.643,0,1,0,0-1.286H10.511V22.666h1.322a.643.643,0,0,0,0-1.286H10.511V20.149Z" fill="#ff6514"/><path d="M35.087,20.149a.643.643,0,1,0,0-1.286H32.966a.643.643,0,0,0-.643.643v5.035a.643.643,0,0,0,.643.643h2.122a.643.643,0,1,0,0-1.286H33.609V22.666h1.322a.643.643,0,0,0,0-1.286H33.609V20.149Z" fill="#ff6514"/><path d="M38.686,18.967h-1.4a.643.643,0,0,0-.643.644v0h0s0,4.93.012,4.97a.642.642,0,0,0,.641.6h0c.042,0,1.038,0,1.436-.011a2.81,2.81,0,0,0,2.582-3.1c0-1.859-1.059-3.109-2.634-3.109Zm.03,4.92c-.179,0-.49.006-.775.007,0-.581,0-1.407,0-1.825,0-.349,0-1.212,0-1.817h.752c1.251,0,1.348,1.395,1.348,1.822C40.034,23.311,39.372,23.875,38.715,23.887Z" fill="#ff6514"/><path d="M7.878,23.331a.643.643,0,0,0-.906.08,1.389,1.389,0,0,1-.141.146,1.406,1.406,0,0,1-.967.342,1.9,1.9,0,1,1,1.061-3.472.643.643,0,0,0,.72-1.066,3.184,3.184,0,1,0-1.78,5.823,2.644,2.644,0,0,0,2.093-.947.643.643,0,0,0-.08-.906Z" fill="#ff6514"/><path d="M21.853,18.816H19.047a.643.643,0,0,0,0,1.286H19.8v4.438a.643.643,0,0,0,1.286,0V20.1h.766a.643.643,0,0,0,0-1.286Z" fill="#ff6514"/><path d="M17.783,20.78a2,2,0,0,0-2.038-1.964H14.392a.643.643,0,0,0-.643.643v5.081a.643.643,0,0,0,1.286,0V23.123l1.622,1.843a.643.643,0,1,0,.965-.85l-1.283-1.458A1.978,1.978,0,0,0,17.783,20.78Zm-2.038.678-.7,0c0-.254,0-1.092,0-1.358h.705a.681.681,0,1,1,0,1.355Z" fill="#ff6514"/></g></g></svg>