<svg xmlns="http://www.w3.org/2000/svg" xmlns:xlink="http://www.w3.org/1999/xlink" width="44" height="44" viewBox="0 0 44 44"><defs><clipPath id="a"><rect width="44" height="44" transform="translate(0.302 0.49)" fill="#fff" stroke="#707070" stroke-width="1"/></clipPath><clipPath id="b"><path d="M0-682.665H41.529v41.529H0Z" transform="translate(0 682.665)" fill="#f7e4bf"/></clipPath></defs><g transform="translate(-0.302 -0.49)" clip-path="url(#a)"><g transform="translate(1.538 1.842)"><g transform="translate(0 0)"><g clip-path="url(#b)"><g transform="translate(-16.531 43.759)"><path d="M-118.123-178.471a.746.746,0,0,1-.428-.135.75.75,0,0,1-.186-1.044l5.444-7.808c1.533-2.2,3.621-3.237,5.728-2.851a4.851,4.851,0,0,1,3.825,3.579c.512,2.039-.362,4.139-2.4,5.764l-2.23,1.78a.75.75,0,0,1-1.054-.118.75.75,0,0,1,.118-1.054l2.23-1.78c2.131-1.7,2.092-3.377,1.879-4.226a3.392,3.392,0,0,0-2.641-2.469,3.407,3.407,0,0,0-2.059.284,5.6,5.6,0,0,0-2.169,1.949l-5.444,7.808A.749.749,0,0,1-118.123-178.471Z" transform="translate(118.122 189.636)" fill="#f7e4bf"/></g></g></g><g transform="translate(0 0)"><g clip-path="url(#b)"><g transform="translate(6.242 19.496)"><path d="M-10.882,5.068a.748.748,0,0,1-.537-.227.75.75,0,0,1,.014-1.061c.506-.493.419-.664.129-1.232a2.257,2.257,0,0,1,.5-3.1.75.75,0,0,1,1.06.032A.75.75,0,0,1-9.753.546a1.1,1.1,0,0,0-.429.674,1.7,1.7,0,0,0,.241.646,2.211,2.211,0,0,1-.418,2.988A.748.748,0,0,1-10.882,5.068Z" transform="translate(10.932)" fill="#f7e4bf"/></g><g transform="translate(9.635 16.209)"><path d="M-10.874,5.068a.748.748,0,0,1-.537-.227A.75.75,0,0,1-11.4,3.781c.506-.493.426-.649.128-1.231a2.256,2.256,0,0,1,.495-3.1.75.75,0,0,1,1.06.032A.75.75,0,0,1-9.747.546a1.1,1.1,0,0,0-.429.674,1.7,1.7,0,0,0,.241.646,2.21,2.21,0,0,1-.416,2.989A.748.748,0,0,1-10.874,5.068Z" transform="translate(10.925)" fill="#f7e4bf"/></g><g transform="translate(37.853 21.772)"><path d="M0-145.293a.75.75,0,0,1-.75-.75v-9.46a.75.75,0,0,1,.75-.75.75.75,0,0,1,.75.75v9.46A.75.75,0,0,1,0-145.293Z" transform="translate(0 155.502)" fill="#f7e4bf"/></g><g transform="translate(13.78 24.268)"><path d="M2.8-63.505a.75.75,0,0,1-.75-.75v-4.162a.75.75,0,0,1,.75-.75.75.75,0,0,1,.75.75v4.162A.75.75,0,0,1,2.8-63.505Z" transform="translate(0 68.417)" fill="#f7e4bf"/></g><g transform="translate(27.401 24.29)"><path d="M2.8-82.733a.75.75,0,0,1-.75-.75V-88.46a.75.75,0,0,1,.75-.75.75.75,0,0,1,.75.75v4.977A.75.75,0,0,1,2.8-82.733Z" transform="translate(0 88.89)" fill="#f7e4bf"/></g><g transform="translate(16.578 24.29)"><path d="M-172.533,3.094q-.21,0-.421-.008a9.334,9.334,0,0,1-3.371-.721A4.208,4.208,0,0,1-178.6.3a.75.75,0,0,1,.39-.986.75.75,0,0,1,.986.39c.453,1.046,2.193,1.8,4.33,1.885,2.415.093,4.482-.686,5.142-1.937a.75.75,0,0,1,1.013-.313A.75.75,0,0,1-166.428.35a4.891,4.891,0,0,1-2.749,2.188A9.9,9.9,0,0,1-172.533,3.094Z" transform="translate(177.914)" fill="#f7e4bf"/></g><g transform="translate(0.608 28.43)"><path d="M-53.5-44.385H-55.5A2.212,2.212,0,0,1-57.711-46.6,2.214,2.214,0,0,1-55.5-48.809h2.457a.75.75,0,0,1,.75.75.75.75,0,0,1-.75.75H-55.5a.712.712,0,0,0-.709.713.711.711,0,0,0,.709.711H-53.5a.75.75,0,0,1,.75.75A.75.75,0,0,1-53.5-44.385Z" transform="translate(56.961 48.059)" fill="#f7e4bf"/></g><g transform="translate(19.462 28.43)"><path d="M2.457,3.674H.446a.75.75,0,0,1,0-1.5H2.457a.712.712,0,0,0,0-1.424H0A.75.75,0,0,1-.75,0,.75.75,0,0,1,0-.75H2.457a2.212,2.212,0,0,1,0,4.424Z" fill="#f7e4bf"/></g><g transform="translate(19.789 29.698)"><path d="M12.63-114.261H0a.75.75,0,0,1-.75-.75.75.75,0,0,1,.75-.75H11.739L10.8-121.2c-.009-.055-.094-.511-.391-.511H3.577a.75.75,0,0,1-.75-.75.75.75,0,0,1,.75-.75h6.832a1.941,1.941,0,0,1,1.87,1.759l1.09,6.313a.75.75,0,0,1-.165.611A.75.75,0,0,1,12.63-114.261Z" transform="translate(0 122.461)" fill="#f7e4bf"/></g><g transform="translate(8.957 22.825)"><path d="M-415.24-142.972a.749.749,0,0,1-.409-.122l-6.2-4.04a3.419,3.419,0,0,1-3.038-2.1.75.75,0,0,1,.165-.9.75.75,0,0,1,.912-.071l2.446,1.594a9.871,9.871,0,0,1,4.134,1.092,5.431,5.431,0,0,1,2.72,3.622.75.75,0,0,1-.3.786A.749.749,0,0,1-415.24-142.972Zm-26.085-.268a.749.749,0,0,1-.208-.029.75.75,0,0,1-.513-.928,5.424,5.424,0,0,1,2.763-3.386,10.4,10.4,0,0,1,4.4-1.048h.011a1.924,1.924,0,0,0,1.791-1.285l.012-.022a.758.758,0,0,1,.143-.193.75.75,0,0,1,1.061.014.75.75,0,0,1,.113.9l0,.007a3.412,3.412,0,0,1-3.061,2.081c-3.29.157-5.183,1.253-5.787,3.35A.75.75,0,0,1-441.325-143.24Z" transform="translate(441.326 149.594)" fill="#f7e4bf"/></g><g transform="translate(35.292 31.584)"><path d="M-39.548-115.392h-1.121a2.2,2.2,0,0,1-2.191-2.195v-4.636a2.194,2.194,0,0,1,2.191-2.192h1.121a3.317,3.317,0,0,1,3.312,3.314v2.395A3.317,3.317,0,0,1-39.548-115.392Zm-1.121-7.523a.7.7,0,0,0-.691.692v4.636a.7.7,0,0,0,.691.695h1.121a1.815,1.815,0,0,0,1.812-1.814V-121.1a1.815,1.815,0,0,0-1.812-1.814Z" transform="translate(42.109 123.665)" fill="#f7e4bf"/></g><g transform="translate(18.268 15.682)"><path d="M0-4.127a.748.748,0,0,1-.524-.214A.75.75,0,0,1-.536-5.4a2.361,2.361,0,0,1,1.6-.542,2.4,2.4,0,0,1,1.63.537.75.75,0,0,1,0,1.061.75.75,0,0,1-1.052.005,1.581,1.581,0,0,0-1.112,0A.748.748,0,0,1,0-4.127Z" transform="translate(0 5.193)" fill="#f7e4bf"/></g><g transform="translate(23.234 15.682)"><path d="M0-4.127a.748.748,0,0,1-.524-.214A.75.75,0,0,1-.536-5.4a2.361,2.361,0,0,1,1.6-.542,2.4,2.4,0,0,1,1.629.537.75.75,0,0,1,0,1.061.75.75,0,0,1-1.052.005,1.581,1.581,0,0,0-1.112,0A.748.748,0,0,1,0-4.127Z" transform="translate(0 5.193)" fill="#f7e4bf"/></g><g transform="translate(14.57 12.415)"><path d="M-85.33,1.6a.752.752,0,0,1-.172-.02A32.425,32.425,0,0,0-91.2.763a.75.75,0,0,1-.71-.788.75.75,0,0,1,.788-.71A33.928,33.928,0,0,1-85.16.117a.75.75,0,0,1,.559.9A.75.75,0,0,1-85.33,1.6Zm-14.832,0A.75.75,0,0,1-100.895,1a.75.75,0,0,1,.561-.886c.694-.165,1.324-.291,1.638-.352.211-.041.407-.077.551-.1a.869.869,0,0,1,.887.2A.751.751,0,0,1-97.1.612a.81.81,0,0,1-.673.528c-.1.022-.241.053-.423.09-.426.087-1.058.209-1.828.354A.754.754,0,0,1-100.162,1.6Z" transform="translate(100.161)" fill="#f7e4bf"/></g><g transform="translate(14.57 12.736)"><path d="M0-53.149a.75.75,0,0,1-.735-.606.75.75,0,0,1,.591-.881,3.428,3.428,0,0,0,1.31-.591,2.133,2.133,0,0,0,.809-2.082.75.75,0,0,1,.663-.828.75.75,0,0,1,.828.663,3.6,3.6,0,0,1-1.384,3.434,4.888,4.888,0,0,1-1.937.876A.754.754,0,0,1,0-53.149Z" transform="translate(0 57.391)" fill="#f7e4bf"/></g><g transform="translate(26.623 12.736)"><path d="M-42.76-53.221a.754.754,0,0,1-.131-.011,4.864,4.864,0,0,1-1.87-.8,3.6,3.6,0,0,1-1.49-3.518.75.75,0,0,1,.828-.663.75.75,0,0,1,.663.828,2.131,2.131,0,0,0,.876,2.135,3.377,3.377,0,0,0,1.253.54.75.75,0,0,1,.609.868A.75.75,0,0,1-42.76-53.221Z" transform="translate(45.53 57.467)" fill="#f7e4bf"/></g><g transform="translate(21.891 5.664)"><path d="M0,3.566a.75.75,0,0,1-.75-.75V0A.75.75,0,0,1,0-.75.75.75,0,0,1,.75,0V2.816A.75.75,0,0,1,0,3.566Z" fill="#f7e4bf"/></g><g transform="translate(17.728 6.937)"><path d="M0,3.564a.75.75,0,0,1-.75-.75V0A.75.75,0,0,1,0-.75.75.75,0,0,1,.75,0V2.814A.75.75,0,0,1,0,3.564Z" fill="#f7e4bf"/></g><g transform="translate(26.054 6.937)"><path d="M0,3.564a.75.75,0,0,1-.75-.75V0A.75.75,0,0,1,0-.75.75.75,0,0,1,.75,0V2.814A.75.75,0,0,1,0,3.564Z" fill="#f7e4bf"/></g><g transform="translate(34.786 12.898)"><path d="M-27.261-.75h2.6a2.519,2.519,0,0,1,2.516,2.517V7.106a2.519,2.519,0,0,1-2.516,2.517h-2.6a2.519,2.519,0,0,1-2.516-2.517V1.767A2.519,2.519,0,0,1-27.261-.75Zm2.6,8.874a1.018,1.018,0,0,0,1.016-1.017V1.767A1.018,1.018,0,0,0-24.658.75h-2.6a1.018,1.018,0,0,0-1.016,1.017V7.106a1.018,1.018,0,0,0,1.016,1.017Z" transform="translate(29.027 0)" fill="#f7e4bf"/></g><g transform="translate(3.642 28.43)"><path d="M-.316-28.9H14.622a1.522,1.522,0,0,1,1.241.563,2.428,2.428,0,0,1,.3,2.062,9.188,9.188,0,0,1-5.442,6.523.75.75,0,0,1-.286.057h-6.5a.75.75,0,0,1-.274-.052,8.972,8.972,0,0,1-5.52-6.527,2.428,2.428,0,0,1,.3-2.063A1.521,1.521,0,0,1-.316-28.9ZM14.7-27.392a.287.287,0,0,0-.076-.008H-.316a.283.283,0,0,0-.074.008,1.262,1.262,0,0,0,0,.793,7.5,7.5,0,0,0,4.475,5.4h6.2A7.691,7.691,0,0,0,14.7-26.6,1.269,1.269,0,0,0,14.7-27.392Z" transform="translate(1.198 28.149)" fill="#f7e4bf"/></g><g transform="translate(4.638 36.133)"><path d="M-64.762-55.625h-6.386a.75.75,0,0,1-.75-.75.75.75,0,0,1,.75-.75h6.386a.455.455,0,0,0,.449-.45v-1.252a.455.455,0,0,0-.449-.45h-12.77a.45.45,0,0,0-.449.45v1.252a.45.45,0,0,0,.449.45h3.591a.75.75,0,0,1,.75.75.75.75,0,0,1-.75.75h-3.591a1.951,1.951,0,0,1-1.949-1.95v-1.252a1.951,1.951,0,0,1,1.949-1.95h12.77a1.951,1.951,0,0,1,1.949,1.95v1.252A1.951,1.951,0,0,1-64.762-55.625Z" transform="translate(78.73 60.027)" fill="#f7e4bf"/></g><g transform="translate(13.21 1.744)"><path d="M-13.369-117.124a3.981,3.981,0,0,1,3.725,2.2H-8a3.911,3.911,0,0,1,3.854,2.646,2.914,2.914,0,0,1-.115,1.956,3.493,3.493,0,0,1-1.15,1.426v8.081a7.311,7.311,0,0,1-2.8,5.511,9.451,9.451,0,0,1-5.348,2.3c-.06,0-.122,0-.184,0a8.933,8.933,0,0,1-4.974-2.124,7.093,7.093,0,0,1-3.022-5.37v-8.4a3.041,3.041,0,0,1-1.243-3.344,3.966,3.966,0,0,1,3.908-2.683H-17.5A4.875,4.875,0,0,1-13.369-117.124Zm-.372,22.617.1,0a8.022,8.022,0,0,0,4.457-1.939,5.844,5.844,0,0,0,2.27-4.37v-8.475a.75.75,0,0,1,.354-.637,1.705,1.705,0,0,0,.969-1.938A2.463,2.463,0,0,0-8-113.428h-2.159a.75.75,0,0,1-.72-.541,2.445,2.445,0,0,0-2.488-1.655,3.373,3.373,0,0,0-3.028,1.788.75.75,0,0,1-.667.408h-2.008a2.491,2.491,0,0,0-2.466,1.6,1.671,1.671,0,0,0,.948,1.9.75.75,0,0,1,.354.637v8.794c0,.833.319,2.485,2.459,4.2A7.781,7.781,0,0,0-13.741-94.507Z" transform="translate(22.346 116.374)" fill="#f7e4bf"/></g></g></g></g></g></svg>