<svg xmlns="http://www.w3.org/2000/svg" xmlns:xlink="http://www.w3.org/1999/xlink" width="44" height="44" viewBox="0 0 44 44"><defs><clipPath id="a"><rect width="44" height="44" transform="translate(0.179 0.179)" fill="#fff"/></clipPath><clipPath id="b"><path d="M0-682.665H41.989v41.989H0Z" transform="translate(0 682.665)" fill="none"/></clipPath></defs><g transform="translate(-0.179 -0.179)" clip-path="url(#a)"><g transform="translate(1.53 1.529)"><g transform="translate(0 0)"><g clip-path="url(#b)"><g transform="translate(6.398 29.656)"><path d="M-79.391-15.031A3.842,3.842,0,0,1-76.657-13.9a3.842,3.842,0,0,1,1.133,2.735,3.842,3.842,0,0,1-1.133,2.735A3.842,3.842,0,0,1-79.391-7.3a3.842,3.842,0,0,1-2.735-1.133,3.842,3.842,0,0,1-1.133-2.735A3.842,3.842,0,0,1-82.126-13.9,3.842,3.842,0,0,1-79.391-15.031Zm0,5.935A2.054,2.054,0,0,0-77.93-9.7a2.054,2.054,0,0,0,.606-1.462,2.054,2.054,0,0,0-.606-1.462,2.054,2.054,0,0,0-1.462-.606,2.054,2.054,0,0,0-1.462.606,2.054,2.054,0,0,0-.606,1.462A2.054,2.054,0,0,0-80.853-9.7,2.054,2.054,0,0,0-79.391-9.1Z" transform="translate(82.359 14.131)" fill="#f7e4bf"/></g><g transform="translate(10.898 25.209)"><path d="M-33.318-51.34a.9.9,0,0,1-.636-.264l-4.2-4.2a.9.9,0,0,1,0-1.273l1.251-1.251a2.387,2.387,0,0,1,3.371,0,2.368,2.368,0,0,1,.7,1.686,2.368,2.368,0,0,1-.7,1.686l-.615.615,1.462,1.462a.9.9,0,0,1,0,1.273A.9.9,0,0,1-33.318-51.34Zm-2.924-5.1.826.825.615-.615a.58.58,0,0,0,.171-.413.58.58,0,0,0-.171-.413.584.584,0,0,0-.826,0Z" transform="translate(37.515 58.122)" fill="#f7e4bf"/></g><g transform="translate(13.711 28.362)"><path d="M-55.584-6.27a.908.908,0,0,1-.116-.007l-3.643-.47a.9.9,0,0,1-.777-1.008.9.9,0,0,1,1.008-.777l3.643.47a.9.9,0,0,1,.777,1.008A.9.9,0,0,1-55.584-6.27Z" transform="translate(59.228 7.64)" fill="#f7e4bf"/></g><g transform="translate(28.021 9.772)"><path d="M-91.48-35.683a.9.9,0,0,1-.821-.531L-94.907-42a.9.9,0,0,1,.184-1.006.9.9,0,0,1,1.006-.184l5.787,2.606a.9.9,0,0,1,.451,1.19.9.9,0,0,1-1.19.451l-3.622-1.631,1.631,3.622a.9.9,0,0,1-.451,1.19A.9.9,0,0,1-91.48-35.683Z" transform="translate(94.086 42.371)" fill="#f7e4bf"/></g><g transform="translate(30.24 11.974)"><path d="M0-28.024a.9.9,0,0,1-.636-.264.9.9,0,0,1,0-1.273l1.9-1.9a.9.9,0,0,1,1.273,0,.9.9,0,0,1,0,1.273l-1.9,1.9A.9.9,0,0,1,0-28.024Z" transform="translate(0 30.82)" fill="#f7e4bf"/></g><g transform="translate(22.23 12.81)"><path d="M-64.031-105.128a.9.9,0,0,1-.636-.264l-4.2-4.2a.9.9,0,0,1-.156-1.064.9.9,0,0,1,.975-.454l4,.831-2.066-2.066a.9.9,0,0,1,0-1.273.9.9,0,0,1,1.273,0l4.2,4.2a.9.9,0,0,1,.156,1.064.9.9,0,0,1-.975.454l-4-.831,2.066,2.066a.9.9,0,0,1,0,1.273A.9.9,0,0,1-64.031-105.128Z" transform="translate(68.228 112.977)" fill="#f7e4bf"/></g><g transform="translate(31.092 6.701)"><path d="M4.2,5.1a.9.9,0,0,1-.636-.264l-4.2-4.2a.9.9,0,0,1,0-1.273.9.9,0,0,1,1.273,0L4.2,2.924l.9-.9A.9.9,0,0,1,6.365,3.3L4.833,4.833A.9.9,0,0,1,4.2,5.1Z" fill="#f7e4bf"/></g><g transform="translate(14.808 22.985)"><path d="M4.2,5.1a.9.9,0,0,1-.636-.264l-4.2-4.2a.9.9,0,0,1,0-1.273.9.9,0,0,1,1.273,0l4.2,4.2A.9.9,0,0,1,4.2,5.1Z" fill="#f7e4bf"/></g><g transform="translate(20.495 17.298)"><path d="M4.2,5.1a.9.9,0,0,1-.636-.264l-4.2-4.2a.9.9,0,0,1,0-1.273.9.9,0,0,1,1.273,0l4.2,4.2A.9.9,0,0,1,4.2,5.1Z" fill="#f7e4bf"/></g><g transform="translate(17.112 19.691)"><path d="M-37.621,2.455A2.581,2.581,0,0,1-39.451,1.7L-41.259-.11a2.572,2.572,0,0,1-.758-1.831,2.572,2.572,0,0,1,.758-1.831,2.593,2.593,0,0,1,3.119-.416.9.9,0,0,1,.333,1.229.9.9,0,0,1-1.229.333.79.79,0,0,0-.95.127.784.784,0,0,0-.231.558.784.784,0,0,0,.231.558L-38.179.425a.79.79,0,0,0,1.116,0A.79.79,0,0,0-37-.615l-.089.089a.9.9,0,0,1-1.273,0,.9.9,0,0,1,0-1.273l.73-.73a.9.9,0,0,1,1.273,0l.565.565a2.592,2.592,0,0,1,0,3.661A2.581,2.581,0,0,1-37.621,2.455Z" transform="translate(41.118 3.629)" fill="#f7e4bf"/></g><g transform="translate(0.615 0.615)"><path d="M-37.461-448.238a.9.9,0,0,1-.347-.069l-.333-.139a1.438,1.438,0,0,1-.822-1.763l.253-.81a3.693,3.693,0,0,0-1.015-3.8l-.628-.58a1.438,1.438,0,0,1-.169-1.936l.726-.953a3.146,3.146,0,0,0,.291-3.339l-.549-1.062a1.438,1.438,0,0,1,.5-1.879l1.007-.647a3.146,3.146,0,0,0,1.414-3.033l-.152-1.187a1.438,1.438,0,0,1,1.116-1.592l1.166-.262a3.146,3.146,0,0,0,2.372-2.371l.262-1.167a1.436,1.436,0,0,1,1.409-1.128,1.45,1.45,0,0,1,.184.012l1.187.152a3.1,3.1,0,0,0,.39.025,3.168,3.168,0,0,0,2.642-1.439l.646-1.006a1.438,1.438,0,0,1,1.215-.664,1.449,1.449,0,0,1,.664.162l1.061.549a3.135,3.135,0,0,0,1.436.347,3.155,3.155,0,0,0,1.9-.638l.953-.726a1.452,1.452,0,0,1,.875-.3,1.449,1.449,0,0,1,1.061.464l.814.881a3.151,3.151,0,0,0,2.31,1,3.1,3.1,0,0,0,.925-.141l1.139-.356a1.443,1.443,0,0,1,.431-.066,1.44,1.44,0,0,1,1.333.888l.139.333a.9.9,0,0,1-.194.983L-36.824-448.5A.9.9,0,0,1-37.461-448.238Zm-1.431-8.262.39.36a5.506,5.506,0,0,1,1.649,5.121l24.46-24.46a4.9,4.9,0,0,1-1.222.154,4.956,4.956,0,0,1-3.632-1.583l-.594-.643-.7.53a4.965,4.965,0,0,1-2.994,1.007,4.943,4.943,0,0,1-2.263-.549l-.774-.4-.471.734a4.984,4.984,0,0,1-4.157,2.266,4.9,4.9,0,0,1-.618-.039l-.866-.111-.191.85a4.953,4.953,0,0,1-3.734,3.734l-.85.191.111.865a4.955,4.955,0,0,1-2.227,4.775l-.734.471.4.774a4.954,4.954,0,0,1-.458,5.257Z" transform="translate(39.916 478.575)" fill="#f7e4bf"/></g><g transform="translate(11.938 11.938)"><path d="M-411.678-.9a.9.9,0,0,1,.346.069l.333.139a1.438,1.438,0,0,1,.822,1.763l-.356,1.139a3.147,3.147,0,0,0,.865,3.236l.88.813a1.438,1.438,0,0,1,.169,1.936l-.726.953a3.146,3.146,0,0,0-.291,3.339l.549,1.062a1.438,1.438,0,0,1-.5,1.879l-1.006.646a3.147,3.147,0,0,0-1.414,3.033l.152,1.187a1.438,1.438,0,0,1-1.116,1.592l-.83.186a3.692,3.692,0,0,0-2.783,2.783l-.186.83a1.436,1.436,0,0,1-1.409,1.128,1.453,1.453,0,0,1-.184-.012l-1.187-.152a3.093,3.093,0,0,0-.391-.025,3.172,3.172,0,0,0-2.227.924,3.1,3.1,0,0,0-.415.515l-.647,1.006a1.438,1.438,0,0,1-1.215.664,1.449,1.449,0,0,1-.663-.162l-1.062-.549a3.136,3.136,0,0,0-1.436-.347,3.155,3.155,0,0,0-1.9.638l-.953.726a1.452,1.452,0,0,1-.875.3,1.449,1.449,0,0,1-1.061-.464l-.813-.881a3.151,3.151,0,0,0-2.31-1.005,3.1,3.1,0,0,0-.925.141l-1.139.356a1.442,1.442,0,0,1-.431.066,1.44,1.44,0,0,1-1.333-.888l-.139-.333a.9.9,0,0,1,.194-.983L-412.314-.636A.9.9,0,0,1-411.678-.9Zm1.431,8.262-.643-.594a4.958,4.958,0,0,1-1.43-4.855L-436.745,26.34a4.9,4.9,0,0,1,1.222-.154,4.956,4.956,0,0,1,3.633,1.584l.594.643.7-.53a4.965,4.965,0,0,1,2.994-1.007,4.943,4.943,0,0,1,2.263.549l.774.4.471-.734a4.9,4.9,0,0,1,.657-.815,4.985,4.985,0,0,1,3.5-1.452,4.9,4.9,0,0,1,.619.039l.865.111.115-.514a5.5,5.5,0,0,1,4.146-4.146l.514-.115-.111-.865a4.956,4.956,0,0,1,2.227-4.775l.734-.471-.4-.774a4.954,4.954,0,0,1,.458-5.257Z" transform="translate(438.659)" fill="#f7e4bf"/></g><g transform="translate(6.461 6.461)"><path d="M-54.593-70.025h0a15.467,15.467,0,0,1,5.14.875.9.9,0,0,1,.579.649.9.9,0,0,1-.241.836l-2.2,2.2a.9.9,0,0,1-.836.241,11.012,11.012,0,0,0-2.444-.275,10.839,10.839,0,0,0-7.716,3.19A10.894,10.894,0,0,0-65.1-57.527a11.026,11.026,0,0,0-.124,5.378.9.9,0,0,1-.241.836l-2.2,2.2a.9.9,0,0,1-.836.241.9.9,0,0,1-.649-.579,15.511,15.511,0,0,1-.521-8.438,15.368,15.368,0,0,1,4.162-7.62A15.336,15.336,0,0,1-54.593-70.025Zm3.132,2.161a13.706,13.706,0,0,0-3.132-.361,13.547,13.547,0,0,0-9.645,3.988,13.572,13.572,0,0,0-3.676,6.729,13.722,13.722,0,0,0,.048,6.048l.782-.782a12.835,12.835,0,0,1,.246-5.766,12.7,12.7,0,0,1,3.254-5.574A12.627,12.627,0,0,1-54.593-67.3a12.823,12.823,0,0,1,2.351.217Z" transform="translate(69.125 69.125)" fill="#f7e4bf"/></g><g transform="translate(16.153 16.153)"><path d="M-98.639-293.618q-.044,0-.089,0a15.5,15.5,0,0,1-3.617-.8.9.9,0,0,1-.579-.649.9.9,0,0,1,.241-.836l2.2-2.2a.9.9,0,0,1,.836-.241,11.026,11.026,0,0,0,5.378-.124,10.893,10.893,0,0,0,4.782-2.792,10.893,10.893,0,0,0,2.792-4.782,11.026,11.026,0,0,0,.124-5.378.9.9,0,0,1,.241-.836l2.2-2.2a.9.9,0,0,1,.836-.241.9.9,0,0,1,.649.579,15.511,15.511,0,0,1,.521,8.438,15.368,15.368,0,0,1-4.162,7.62,15.34,15.34,0,0,1-4.395,3.077,15.416,15.416,0,0,1-5,1.362.9.9,0,0,1-.984-.808.9.9,0,0,1,.808-.984,13.62,13.62,0,0,0,4.418-1.2,13.545,13.545,0,0,0,3.88-2.717,13.572,13.572,0,0,0,3.676-6.729,13.722,13.722,0,0,0-.048-6.048l-.782.782a12.835,12.835,0,0,1-.246,5.766,12.7,12.7,0,0,1-3.254,5.574,12.7,12.7,0,0,1-5.574,3.254,12.834,12.834,0,0,1-5.766.246l-.781.781a13.749,13.749,0,0,0,1.784.295.9.9,0,0,1,.808.984A.9.9,0,0,1-98.639-293.618Z" transform="translate(102.046 313.822)" fill="#f7e4bf"/></g><g transform="translate(1.094 1.094)"><path d="M-553.265-1.688a2.107,2.107,0,0,1-1.494-.618l-7.152-7.152a2.116,2.116,0,0,1,0-2.989l30.221-30.222a2.1,2.1,0,0,1,1.494-.619,2.1,2.1,0,0,1,1.494.619l2.252,2.252a.9.9,0,0,1,0,1.273.9.9,0,0,1-1.273,0l-2.252-2.252a.312.312,0,0,0-.221-.092.312.312,0,0,0-.222.092l-30.221,30.222a.314.314,0,0,0,0,.443l7.152,7.152a.314.314,0,0,0,.443,0L-522.821-33.8a.312.312,0,0,0,.092-.222.312.312,0,0,0-.092-.222l-2.871-2.871a.9.9,0,0,1,0-1.273.9.9,0,0,1,1.273,0l2.871,2.871a2.1,2.1,0,0,1,.619,1.494,2.1,2.1,0,0,1-.619,1.494L-551.77-2.306A2.107,2.107,0,0,1-553.265-1.688Z" transform="translate(561.63 42.387)" fill="#f7e4bf"/></g></g></g></g></g></svg>