<svg xmlns="http://www.w3.org/2000/svg" xmlns:xlink="http://www.w3.org/1999/xlink" width="44" height="44" viewBox="0 0 44 44"><defs><clipPath id="a"><rect width="44" height="44" transform="translate(0.27 0.5)" fill="#fff" stroke="#707070" stroke-width="1"/></clipPath></defs><g transform="translate(-0.27 -0.5)" clip-path="url(#a)"><g transform="translate(9.215 1.853)"><g transform="translate(0 0)"><g transform="translate(0 0)"><path d="M118.5,4.926V2.212a2.289,2.289,0,0,0-.841-1.8,1.9,1.9,0,0,0-1.625-.364L95.826,4.941a2.108,2.108,0,0,0-1.966,2.1V40.123a2.114,2.114,0,0,0,2.112,2.112H118.5a2.114,2.114,0,0,0,2.112-2.112V7.038A2.114,2.114,0,0,0,118.5,4.926ZM116.363,1.42a.486.486,0,0,1,.423.1.872.872,0,0,1,.3.689V4.926H101.875Zm2.839,38.7a.7.7,0,0,1-.7.7H95.972a.7.7,0,0,1-.7-.7V7.038a.7.7,0,0,1,.7-.7H118.5a.7.7,0,0,1,.7.7Z" transform="translate(-93.86 0.001)" fill="#ff6514"/><path d="M275.171,121.662a2.114,2.114,0,0,0,2.112-2.112V111.1a1.409,1.409,0,0,0,1.408-1.408v-4.224c0-3.077-1.583-5.213-4.132-5.576l-.7-.1a.7.7,0,0,0-.8.7V119.55A2.114,2.114,0,0,0,275.171,121.662Zm-.7-20.356c2.539.43,2.816,3.048,2.816,4.165v4.224h-.7a.7.7,0,0,0-.7.7v9.151a.7.7,0,0,1-1.408,0V101.306Z" transform="translate(-258.276 -91.558)" fill="#ff6514"/><path d="M172.071,109.164V120.1a2.112,2.112,0,1,0,4.224,0V109.164a2.8,2.8,0,0,0,1.408-2.436V101.1a.7.7,0,1,0-1.408,0v3.52a.7.7,0,1,1-1.408,0V101.1a.7.7,0,1,0-1.408,0v3.52a.7.7,0,1,1-1.408,0V101.1a.7.7,0,1,0-1.408,0v5.632A2.8,2.8,0,0,0,172.071,109.164Zm0-2.566a2.045,2.045,0,0,0,2.112-.419,2.046,2.046,0,0,0,2.112.42v.13a1.388,1.388,0,0,1-.932,1.319.7.7,0,0,0-.476.666V120.1a.7.7,0,1,1-1.408,0v-11.39a.7.7,0,0,0-.476-.666,1.388,1.388,0,0,1-.932-1.319Z" transform="translate(-164.328 -92.11)" fill="#ff6514"/><path d="M162.831,417.533h9.855a.7.7,0,0,0,0-1.408h-9.855a.7.7,0,1,0,0,1.408Z" transform="translate(-156.495 -381.797)" fill="#ff6514"/><path d="M317.839,416.125h-1.408a.7.7,0,1,0,0,1.408h1.408a.7.7,0,1,0,0-1.408Z" transform="translate(-297.424 -381.797)" fill="#ff6514"/><path d="M270.863,450.258h-5.632a.7.7,0,0,0,0,1.408h5.632a.7.7,0,0,0,0-1.408Z" transform="translate(-250.448 -413.114)" fill="#ff6514"/><path d="M223.269,450.258h-.7a.7.7,0,1,0,0,1.408h.7a.7.7,0,1,0,0-1.408Z" transform="translate(-211.302 -413.114)" fill="#ff6514"/><path d="M164.943,450.258h-2.112a.7.7,0,1,0,0,1.408h2.112a.7.7,0,0,0,0-1.408Z" transform="translate(-156.495 -413.114)" fill="#ff6514"/></g></g></g></g></svg>