<svg xmlns="http://www.w3.org/2000/svg" xmlns:xlink="http://www.w3.org/1999/xlink" width="44" height="44" viewBox="0 0 44 44"><defs><clipPath id="a"><rect width="44" height="44" transform="translate(0.013 0.337)" fill="#fff"/></clipPath></defs><g transform="translate(-0.013 -0.337)" clip-path="url(#a)"><path d="M40.944,10.558l-.183-1.32a1.241,1.241,0,0,0-1.416-1.055L17.872,11.467a4.518,4.518,0,0,1,.5-1.574c.041-.086.082-.179.125-.278L38.194,3.7a1.24,1.24,0,0,0,.826-1.561l-.4-1.271a1.241,1.241,0,0,0-1.572-.8L31.178,2a.6.6,0,0,0,.376,1.138L37.423,1.2a.039.039,0,0,1,.032,0,.038.038,0,0,1,.021.025l.4,1.271a.043.043,0,0,1-.028.053L18.979,8.221c.008-.03.015-.061.023-.092l.02-.083c.012-.049.023-.1.035-.148l.021-.094c.01-.047.02-.094.029-.141s.015-.074.022-.112.016-.085.023-.127.015-.087.022-.132c0-.022.008-.045.011-.067l9.7-3.2a.6.6,0,0,0-.376-1.138l-9.387,3.1a1.04,1.04,0,0,0-1.23-.47l-.987.326a1.038,1.038,0,0,0-.712.906c-.006.074-.013.144-.022.212l-1.32.436a1.037,1.037,0,0,0-1.229-.47l-1.1.363a1.039,1.039,0,0,0-.645.614c-.074.19-.16.375-.245.555l-1.409.466A1.029,1.029,0,0,0,10.1,8.75,1.042,1.042,0,0,0,9,8.452l-1.206.4a1.033,1.033,0,0,0-.652.633c-.061.168-.113.339-.161.511L5.63,10.44a1.054,1.054,0,0,0-.217-.264A1.032,1.032,0,0,0,4.4,9.97l-.989.327a1.046,1.046,0,0,0-.71.885q-.012.114-.021.232l-1.321.437A1.246,1.246,0,0,0,.564,13.4l.093.3a1.237,1.237,0,0,0,.663.75,1.235,1.235,0,0,0-.171.815l.043.307a1.246,1.246,0,0,0,1.23,1.07,1.27,1.27,0,0,0,.153-.009l1.22-.153a4.317,4.317,0,0,1,.248,1.589,4.424,4.424,0,0,1-.541,2.26,8.95,8.95,0,0,0-.572,1.452H.946A.945.945,0,0,0,0,22.818,19.328,19.328,0,0,0,8.5,37.387v1.025a1.832,1.832,0,0,0,1.83,1.829H25.944a1.832,1.832,0,0,0,1.829-1.829v-1.03c6.535-4.235,8.122-10.934,8.484-14.564a.946.946,0,0,0-.941-1.04H18.35l.027-.058a7.613,7.613,0,0,0,.851-3.654,7.475,7.475,0,0,0-.745-3.428L39.869,11.96a1.24,1.24,0,0,0,1.074-1.4ZM1.8,13.337l-.093-.3a.042.042,0,0,1,.027-.053l.932-.308c0,.031,0,.06.006.09s0,.037,0,.055c0,.044.006.087.01.131a.056.056,0,0,0,0,.007c0,.049.008.1.013.147l-.846.254A.043.043,0,0,1,1.8,13.337Zm.626,2.1a.043.043,0,0,1-.047-.036L2.337,15.1a.042.042,0,0,1,.035-.047l.751-.115.008.021c.022.057.044.112.066.167l.011.027c.025.061.05.12.075.177l0,.006ZM16.338,10v0c.062-.184.131-.355.2-.519h0c.071-.163.144-.319.217-.473l.023-.049.035-.075.026-.056c.022-.047.043-.094.065-.142l.009-.019.057-.132.017-.039c.021-.049.041-.1.061-.151l.013-.035q.024-.063.047-.127l.017-.05c.017-.051.034-.1.051-.156.006-.019.012-.039.017-.058.012-.041.023-.082.035-.124l.016-.062q.021-.085.04-.174l.006-.026s0-.008,0-.012a5.531,5.531,0,0,0,.086-.577l.661-.218c-.01.084-.02.167-.032.251,0,.014,0,.027-.006.04-.011.073-.022.145-.035.217,0,.02-.007.041-.011.061-.015.083-.031.167-.049.25l0,.013c-.017.077-.034.154-.053.23l-.018.072c-.019.075-.039.15-.06.225l-.007.027q-.033.115-.069.23l-.014.046q-.039.122-.082.243l-.006.016c-.031.086-.062.172-.1.256v0c-.07.177-.14.337-.206.477a5.591,5.591,0,0,0-.654,2.769c0,.007,0,.012,0,.018h0c0,.069,0,.137,0,.2,0,.043,0,.085,0,.127,0,.025,0,.05,0,.074,0,.048.006.1.009.143,0,.011,0,.022,0,.033a5.226,5.226,0,0,0,.2,1.109l0,.011q.049.162.1.31l0,0c.1.26.208.5.321.737a6.4,6.4,0,0,1,.736,3.144,6.406,6.406,0,0,1-.736,3.144c-.086.182-.173.368-.255.568h-.681a9.473,9.473,0,0,1,.4-.942,5.593,5.593,0,0,0,.654-2.77,5.594,5.594,0,0,0-.654-2.77,8.561,8.561,0,0,1-.452-1.1v0a6.432,6.432,0,0,1-.279-1.769v0c0-.089,0-.18,0-.274A6.489,6.489,0,0,1,16.338,10ZM14.32,21.72a7.613,7.613,0,0,0,.85-3.654,7.5,7.5,0,0,0-.535-2.947l.7-.087c.112.285.231.538.342.774a4.422,4.422,0,0,1,.541,2.26,4.424,4.424,0,0,1-.541,2.26,8.923,8.923,0,0,0-.572,1.452h-.808Zm-.2-7.744-.012-.029-.033-.082-.029-.074c-.016-.042-.032-.084-.046-.127l-.011-.031c-.036-.109-.069-.222-.1-.346l.98-.15c0,.007,0,.014,0,.021q.018.17.042.328c0,.011,0,.022.005.034q.026.166.057.321l0,.026Zm.7-5.311.912-.3-.01.02-.041.088-.012.027c-.087.184-.178.38-.268.593l-.006.014c-.027.066-.055.133-.082.2l-.006.015-.844.253A8.142,8.142,0,0,0,14.824,8.665ZM13.9,11l1.042-.313a8.585,8.585,0,0,0-.112,1.247l-1.045.16A4.874,4.874,0,0,1,13.9,11Zm-1.878.192v0a5.758,5.758,0,0,1,.367-1.468l.005-.014c.027-.067.054-.132.081-.2l.014-.032.027-.063.014-.031.039-.086.009-.02.033-.072.092-.2c.086-.183.183-.389.271-.608l.754-.249a7.874,7.874,0,0,1-.477,1.2l-.012.027-.016.034-.038.081-.032.068-.022.049-.042.092-.009.02a5.385,5.385,0,0,0-.5,2.425c0,.251.011.477.03.686v.008c0,.03.006.057.009.086s.007.065.011.1.011.081.017.121c0,.014,0,.028.006.042a4.934,4.934,0,0,0,.318,1.145l.014.034.017.041c.014.033.028.066.042.1l.008.019c.054.122.108.238.161.351h0l.019.041a6.406,6.406,0,0,1,.736,3.144,6.4,6.4,0,0,1-.736,3.144c-.086.182-.173.368-.255.568H12.3a9.547,9.547,0,0,1,.4-.942,5.591,5.591,0,0,0,.655-2.77A5.594,5.594,0,0,0,12.7,15.3c-.1-.211-.2-.424-.293-.655h0a5.767,5.767,0,0,1-.4-1.64v-.006a8.3,8.3,0,0,1-.04-.842A8.121,8.121,0,0,1,12.018,11.191Zm-.4,4.615a4.425,4.425,0,0,1,.54,2.26,4.427,4.427,0,0,1-.54,2.26,8.933,8.933,0,0,0-.572,1.452h-.808l.027-.058a7.61,7.61,0,0,0,.851-3.654,7.775,7.775,0,0,0-.357-2.461l.724-.091C11.526,15.615,11.572,15.713,11.616,15.807Zm-1.477-1.661,0,0c-.04-.088-.077-.175-.113-.263l.878-.134c0,.01,0,.02.006.03.017.088.035.174.054.257l.013.057q.031.13.065.252l.005.021-.762.1-.021-.045,0-.007C10.218,14.317,10.178,14.23,10.139,14.145Zm-.027-3.924.944-.312c-.023.078-.044.16-.065.243l0,.018c-.027.111-.052.226-.076.346,0,.007,0,.014,0,.021-.007.038-.014.075-.021.114l-1.038.312A4.317,4.317,0,0,1,10.112,10.222Zm.656,1.717c0,.07,0,.141,0,.214,0,.138,0,.271.008.4l-1.028.157q-.018-.21-.021-.458ZM9.183,9.375l.01,0,0,.008-.009,0ZM7.91,11.95c0-.04,0-.079,0-.118s0-.049,0-.072c0-.047,0-.093.007-.138,0-.015,0-.029,0-.044,0-.048.007-.095.011-.141l0-.033c0-.047.009-.094.014-.139,0-.009,0-.018,0-.027.014-.128.032-.247.05-.36,0-.027.009-.054.014-.081l.012-.064c.008-.041.016-.082.025-.123a5.466,5.466,0,0,1,.181-.646L9.031,9.7a5.4,5.4,0,0,0-.506,2.45,5.4,5.4,0,0,0,.509,2.457v0l.07.153,0,0,.072.153.007.015.087.187,0,.008q.049.105.1.215h0a6.215,6.215,0,0,1,.541,2.719,6.41,6.41,0,0,1-.736,3.144c-.086.182-.173.368-.255.567H8.243a9.472,9.472,0,0,1,.4-.942,5.592,5.592,0,0,0,.654-2.77,5.591,5.591,0,0,0-.655-2.77l-.094-.2h0c-.023-.049-.046-.1-.069-.152l0,0a6.019,6.019,0,0,1-.449-1.383l0-.007a7.214,7.214,0,0,1-.118-1.209h0c0-.061,0-.123,0-.187S7.908,12.017,7.91,11.95ZM7.648,16A4.256,4.256,0,0,1,8.1,18.066a4.427,4.427,0,0,1-.541,2.26,8.95,8.95,0,0,0-.572,1.452H6.18l.027-.058a7.613,7.613,0,0,0,.85-3.654,8.229,8.229,0,0,0-.218-1.97Zm-.663-1.65.006.02q.034.119.07.231l.008.024q.038.116.078.226l0,0-.7.088v0c-.072-.169-.146-.326-.217-.476Zm-.223-1.178-.169.026.167-.05C6.76,13.15,6.761,13.159,6.762,13.167ZM5.67,11.931c0-.01,0-.019,0-.029q0-.1.011-.2v-.013l1.06-.35c0,.016,0,.032,0,.048,0,.038-.005.077-.008.115q-.007.108-.012.218c0,.039,0,.078,0,.118,0,.024,0,.047,0,.072l-1.045.314c0-.022,0-.044,0-.067C5.666,12.076,5.668,12,5.67,11.931ZM3.952,13.443v-.006c-.034-.2-.058-.4-.075-.613,0,0,0-.007,0-.011,0-.044-.007-.089-.009-.134l0-.049c0-.034,0-.068,0-.1,0-.019,0-.037,0-.057,0-.035,0-.071,0-.106,0-.017,0-.034,0-.052,0-.053,0-.107,0-.161s0-.1,0-.154,0-.075,0-.112c0-.166.014-.328.028-.484l.647-.213c-.007.05-.013.1-.018.153,0,.017,0,.033-.006.051-.006.06-.011.121-.016.183,0,.021,0,.041,0,.061,0,.061-.007.123-.009.186,0,.022,0,.044,0,.067q0,.128,0,.263t0,.249a5.359,5.359,0,0,0,.568,2.345l.008.018.074.158,0,.008c.03.064.061.129.091.2l0,0c.1.209.192.426.279.665h0a6.39,6.39,0,0,1,.361,2.272,6.406,6.406,0,0,1-.736,3.144c-.086.182-.173.368-.255.568H4.187a9.472,9.472,0,0,1,.4-.942,5.6,5.6,0,0,0,.654-2.77A5.589,5.589,0,0,0,4.589,15.3l0,0-.05-.107-.017-.037-.053-.114-.011-.024L4.4,14.89l-.007-.016q-.03-.067-.059-.136l0-.006A6.117,6.117,0,0,1,4.1,14.1v0A5.658,5.658,0,0,1,3.952,13.443Zm31.084,9.533a18.07,18.07,0,0,1-7.994,13.451H14.78a.6.6,0,0,0,0,1.2h11.8v.786a.632.632,0,0,1-.631.631H10.325a.632.632,0,0,1-.631-.631v-.786h2.3a.6.6,0,1,0,0-1.2H9.221A18.07,18.07,0,0,1,1.227,22.977Zm4.713-12.222a.041.041,0,0,1-.028.016L18,13.491a4.082,4.082,0,0,1-.144-.809L39.525,9.367a.04.04,0,0,1,.032.008.04.04,0,0,1,.017.028l.183,1.32A.04.04,0,0,1,39.749,10.755Zm0,0" transform="translate(1.518 1.182)" fill="#f7e4bf"/></g></svg>