<svg xmlns="http://www.w3.org/2000/svg" xmlns:xlink="http://www.w3.org/1999/xlink" width="44" height="44" viewBox="0 0 44 44"><defs><clipPath id="a"><rect width="44" height="44" transform="translate(0.158 0.252)" fill="#ff6514" stroke="#707070" stroke-width="1"/></clipPath><clipPath id="b"><path d="M0-682.665H41.841v41.841H0Z" transform="translate(0 682.665)" fill="#ffbe41"/></clipPath></defs><g transform="translate(-0.158 -0.252)" clip-path="url(#a)"><g transform="translate(1.528 1.636)"><g transform="translate(0 0)"><g clip-path="url(#b)"><g transform="translate(9.643 8.804)"><path d="M-379.832-438.326q-.818,0-1.637-.081a16.629,16.629,0,0,1-5.4-1.477,16.64,16.64,0,0,1-4.751-3.331,16.587,16.587,0,0,1-3.666-5.522,16.633,16.633,0,0,1-1.222-6.28,16.633,16.633,0,0,1,1.222-6.28,16.586,16.586,0,0,1,3.666-5.522,16.586,16.586,0,0,1,5.522-3.666,16.633,16.633,0,0,1,6.28-1.222,16.633,16.633,0,0,1,6.28,1.222,16.586,16.586,0,0,1,5.522,3.666,16.639,16.639,0,0,1,3.328,4.746,16.629,16.629,0,0,1,1.478,5.4,16.743,16.743,0,0,1-2.6,10.738,1,1,0,0,1-1.383.294,1,1,0,0,1-.294-1.383,14.736,14.736,0,0,0,2.286-9.451,14.634,14.634,0,0,0-1.3-4.749,14.647,14.647,0,0,0-2.93-4.177,14.594,14.594,0,0,0-10.388-4.3,14.594,14.594,0,0,0-10.388,4.3,14.594,14.594,0,0,0-4.3,10.388,14.594,14.594,0,0,0,4.3,10.388,14.646,14.646,0,0,0,4.181,2.932,14.633,14.633,0,0,0,4.753,1.3,14.735,14.735,0,0,0,9.458-2.3,1,1,0,0,1,1.384.292,1,1,0,0,1-.292,1.384A16.73,16.73,0,0,1-379.832-438.326Z" transform="translate(395.511 470.706)" fill="#ff6514"/></g><g transform="translate(36.429 35.59)"><path fill="#ff6514"/></g><g transform="translate(13.474 12.635)"><path d="M-181.645-362.289a12.776,12.776,0,0,1-9.094-3.767,12.776,12.776,0,0,1-3.767-9.094,12.776,12.776,0,0,1,3.767-9.093,12.776,12.776,0,0,1,9.094-3.767,12.776,12.776,0,0,1,9.093,3.767,12.776,12.776,0,0,1,3.767,9.093,12.776,12.776,0,0,1-3.767,9.094A12.776,12.776,0,0,1-181.645-362.289Zm0-23.72a10.789,10.789,0,0,0-7.679,3.181,10.789,10.789,0,0,0-3.181,7.679,10.789,10.789,0,0,0,3.181,7.679,10.789,10.789,0,0,0,7.679,3.181,10.789,10.789,0,0,0,7.679-3.181,10.789,10.789,0,0,0,3.181-7.679,10.789,10.789,0,0,0-3.181-7.679A10.789,10.789,0,0,0-181.645-386.01Z" transform="translate(193.505 387.01)" fill="#ff6514"/></g><g transform="translate(20.418 1.656)"><path d="M-24.155-59.077h-5.884A2.965,2.965,0,0,1-33-62.039,2.965,2.965,0,0,1-30.039-65h5.884a2.965,2.965,0,0,1,2.961,2.961A2.965,2.965,0,0,1-24.155-59.077ZM-30.039-63a.962.962,0,0,0-.961.961.962.962,0,0,0,.961.961h5.884a.962.962,0,0,0,.961-.961A.962.962,0,0,0-24.155-63Z" transform="translate(32 64)" fill="#ff6514"/></g><g transform="translate(22.526 5.578)"><path d="M-85.628-48.409a1,1,0,0,1-1-1v-2.226h-3.591v2.226a1,1,0,0,1-1,1,1,1,0,0,1-1-1v-3.226a1,1,0,0,1,1-1h5.591a1,1,0,0,1,1,1v3.226A1,1,0,0,1-85.628-48.409Z" transform="translate(91.218 52.635)" fill="#ff6514"/></g><g transform="translate(26.883 18.748)"><path d="M0-63.3a1,1,0,0,1-.707-.293,1,1,0,0,1,0-1.414l4.2-4.2a1,1,0,0,1,1.414,0,1,1,0,0,1,0,1.414l-4.2,4.2A1,1,0,0,1,0-63.3Z" transform="translate(0 68.497)" fill="#ff6514"/></g><g transform="translate(23.611 22.773)"><path d="M1.722-29.1a2.725,2.725,0,0,1,2.722,2.722,2.725,2.725,0,0,1-2.722,2.722A2.725,2.725,0,0,1-1-26.376,2.725,2.725,0,0,1,1.722-29.1Zm0,3.444a.723.723,0,0,0,.722-.722.723.723,0,0,0-.722-.722A.723.723,0,0,0,1-26.376.723.723,0,0,0,1.722-25.654Z" transform="translate(0 28.099)" fill="#ff6514"/></g><g transform="translate(33.314 24.505)"><path d="M-11.595,1h-.757a1,1,0,0,1-1-1,1,1,0,0,1,1-1h.757a1,1,0,0,1,1,1A1,1,0,0,1-11.595,1Z" transform="translate(12.352)" fill="#ff6514"/></g><g transform="translate(16.596 24.485)"><path d="M.757,1H0A1,1,0,0,1-1,0,1,1,0,0,1,0-1H.757a1,1,0,0,1,1,1A1,1,0,0,1,.757,1Z" fill="#ff6514"/></g><g transform="translate(25.344 15.757)"><path d="M0,1.757a1,1,0,0,1-1-1V0A1,1,0,0,1,0-1,1,1,0,0,1,1,0V.757A1,1,0,0,1,0,1.757Z" fill="#ff6514"/></g><g transform="translate(25.324 32.475)"><path d="M0-10.595a1,1,0,0,1-1-1v-.757a1,1,0,0,1,1-1,1,1,0,0,1,1,1v.757A1,1,0,0,1,0-10.595Z" transform="translate(0 12.352)" fill="#ff6514"/></g><g transform="translate(21.823 20.984)"><path d="M-33.98-32.98a1,1,0,0,1-.707-.293l-2.219-2.219a1,1,0,0,1,0-1.414,1,1,0,0,1,1.414,0l2.219,2.219a1,1,0,0,1,0,1.414A1,1,0,0,1-33.98-32.98Z" transform="translate(36.199 36.199)" fill="#ff6514"/></g><g transform="translate(26.551 18.867)"><path d="M0-66.552a1,1,0,0,1-.707-.293,1,1,0,0,1,0-1.414L3.7-72.67a1,1,0,0,1,1.414,0,1,1,0,0,1,0,1.414L.707-66.845A1,1,0,0,1,0-66.552Z" transform="translate(0 71.962)" fill="#ff6514"/></g><g transform="translate(4.086 29.538)"><path d="M-96.075,1h-6.273a1,1,0,0,1-1-1,1,1,0,0,1,1-1h6.273a1,1,0,0,1,1,1A1,1,0,0,1-96.075,1Z" transform="translate(102.348)" fill="#ff6514"/></g><g transform="translate(5.23 24.762)"><path d="M-67.588,1H-72a1,1,0,0,1-1-1,1,1,0,0,1,1-1h4.413a1,1,0,0,1,1,1A1,1,0,0,1-67.588,1Z" transform="translate(72.001)" fill="#ff6514"/></g><g transform="translate(0.817 19.987)"><path d="M-142.8,1h-9.324a1,1,0,0,1-1-1,1,1,0,0,1,1-1h9.324a1,1,0,0,1,1,1A1,1,0,0,1-142.8,1Z" transform="translate(152.125)" fill="#ff6514"/></g><g transform="translate(6.388 15.211)"><path d="M-89.191,1h-5.824a1,1,0,0,1-1-1,1,1,0,0,1,1-1h5.824a1,1,0,0,1,1,1A1,1,0,0,1-89.191,1Z" transform="translate(95.014)" fill="#ff6514"/></g><g transform="translate(0.817 29.538)"><path fill="#ff6514"/></g></g></g></g></g></svg>