<svg xmlns="http://www.w3.org/2000/svg" xmlns:xlink="http://www.w3.org/1999/xlink" width="50" height="50" viewBox="0 0 50 50"><defs><clipPath id="a"><rect width="32" height="32" transform="translate(9 9)" fill="#f7e4bf"/></clipPath><clipPath id="b"><path d="M0-32H32V0H0Z" fill="#f7e4bf"/></clipPath></defs><circle cx="25" cy="25" r="25" fill="#ff6514"/><g clip-path="url(#a)"><g transform="translate(9 41)"><g clip-path="url(#b)"><g transform="translate(21.259 -26.987)"><path d="M0,.469A.467.467,0,0,1-.328.335L-4.544-3.8a1.069,1.069,0,0,0-1.428,0L-10.189.335a.469.469,0,0,1-.663-.006.469.469,0,0,1,.006-.663L-6.622-4.48l.014-.013a2,2,0,0,1,2.7,0l.014.013L.328-.335A.469.469,0,0,1,.335.328.467.467,0,0,1,0,.469Z" fill="#f7e4bf"/></g><g transform="translate(29.277 -19.117)"><path d="M-1.983,2.448a.467.467,0,0,1-.332-.138.469.469,0,0,1,0-.663L-.331-.332a.469.469,0,0,1,.663,0,.469.469,0,0,1,0,.663L-1.652,2.311A.467.467,0,0,1-1.983,2.448Z" fill="#f7e4bf"/></g><g transform="translate(18.39 -8.25)"><path d="M11.354,6.709a.467.467,0,0,1-.225-.058L-.226.411A.469.469,0,0,1-.411-.226.469.469,0,0,1,.226-.411L11.58,5.829a.469.469,0,0,1-.226.88Z" fill="#f7e4bf"/></g><g transform="translate(4.706 -17.138)"><path d="M0,.469A.467.467,0,0,1-.331.332L-2.314-1.648a.469.469,0,0,1,0-.663.469.469,0,0,1,.663,0L.331-.332a.469.469,0,0,1,0,.663A.467.467,0,0,1,0,.469Z" fill="#f7e4bf"/></g><g transform="translate(13.61 -8.25)"><path d="M-11.354,6.709a.469.469,0,0,1-.411-.243.469.469,0,0,1,.185-.637L-.226-.411a.469.469,0,0,1,.637.185A.469.469,0,0,1,.226.411L-11.129,6.65A.467.467,0,0,1-11.354,6.709Z" fill="#f7e4bf"/></g><g transform="translate(23.146 -0.469)"><path d="M5.058.469H0A.469.469,0,0,1-.469,0,.469.469,0,0,1,0-.469H5.058A1.074,1.074,0,0,0,6.13-1.541V-17.533a1.1,1.1,0,0,0-.328-.781L3.82-20.26a.469.469,0,0,1-.006-.663.469.469,0,0,1,.663-.006l1.983,1.946a2.043,2.043,0,0,1,.608,1.45V-1.541A2.012,2.012,0,0,1,5.058.469Z" fill="#f7e4bf"/></g><g transform="translate(2.255 -10.61)"><path d="M18.847,10.61H1.541A2.012,2.012,0,0,1-.469,8.6V0A.469.469,0,0,1,0-.469.469.469,0,0,1,.469,0V8.6A1.074,1.074,0,0,0,1.541,9.673H18.847a.469.469,0,1,1,0,.937Z" fill="#f7e4bf"/></g><g transform="translate(4.706 -21.063)"><path d="M-2.451,8.879A.469.469,0,0,1-2.92,8.41V3.061a2.044,2.044,0,0,1,.608-1.45L-.328-.335a.469.469,0,0,1,.663.006A.469.469,0,0,1,.328.335L-1.654,2.281a1.1,1.1,0,0,0-.328.781V8.41A.469.469,0,0,1-2.451,8.879Z" fill="#f7e4bf"/></g><g transform="translate(27.294 -24.312)"><path d="M-8.9,16.531a.468.468,0,0,1-.226-.058l-1.648-.905a1.067,1.067,0,0,0-1.033,0l-1.648.905a.469.469,0,0,1-.557-.079l-8.9-8.888a.469.469,0,0,1-.138-.332V-1.112a2.034,2.034,0,0,1,2.031-2.031H-1.562A2.034,2.034,0,0,1,.469-1.112V0A.469.469,0,0,1,0,.469.469.469,0,0,1-.469,0V-1.112A1.1,1.1,0,0,0-1.562-2.206H-21.025a1.1,1.1,0,0,0-1.094,1.094V6.98l8.517,8.5,1.34-.736a2,2,0,0,1,1.936,0l1.34.736,8.517-8.5V2A.469.469,0,0,1,0,1.527.469.469,0,0,1,.469,2V7.175a.469.469,0,0,1-.138.332l-8.9,8.888A.469.469,0,0,1-8.9,16.531Z" fill="#f7e4bf"/></g><g transform="translate(17.475 -19.174)"><path d="M-1.645-2.544A2.28,2.28,0,0,1,.469,0,2.423,2.423,0,0,1-1.69,2.661,2.459,2.459,0,0,1-3.894.013,2.387,2.387,0,0,1-1.645-2.544ZM-1.69,1.723C-1.017,1.723-.469.95-.469,0S-.952-1.606-1.645-1.606A1.468,1.468,0,0,0-2.956.013C-2.956,1.069-2.3,1.723-1.69,1.723Z" fill="#f7e4bf"/></g><g transform="translate(15.911 -14.86)"><path d="M0,.469H-.013a4.762,4.762,0,0,1-2.775-1A4.686,4.686,0,0,1-4.451-3.057a4.7,4.7,0,0,1,.436-3.471,4.7,4.7,0,0,1,2.7-2.226,4.69,4.69,0,0,1,3.635.321A4.689,4.689,0,0,1,4.64-5.619l0,.015a4.233,4.233,0,0,1-.238,2.8A2.073,2.073,0,0,1,2.489-1.438a1.336,1.336,0,0,1-.948-.407,1.58,1.58,0,0,1-.453-1.116l.018-3.732a.469.469,0,0,1,.471-.466.469.469,0,0,1,.466.471L2.025-2.956a.645.645,0,0,0,.18.45.415.415,0,0,0,.284.131A1.138,1.138,0,0,0,3.536-3.15a3.314,3.314,0,0,0,.2-2.205A3.758,3.758,0,0,0,1.882-7.6a3.76,3.76,0,0,0-2.914-.257A3.767,3.767,0,0,0-3.194-6.076,3.761,3.761,0,0,0-3.544-3.3,3.756,3.756,0,0,0-2.212-1.27a3.818,3.818,0,0,0,2.224.8A.469.469,0,0,1,.469.013.469.469,0,0,1,0,.469Z" fill="#f7e4bf"/></g><g transform="translate(20.103 -20.344)"><path d="M-.22,2.976a.467.467,0,0,1-.173-.033.469.469,0,0,1-.262-.609A3.312,3.312,0,0,0-.453.121.469.469,0,0,1-.121-.453a.469.469,0,0,1,.574.332,4.233,4.233,0,0,1-.238,2.8A.469.469,0,0,1-.22,2.976Z" fill="#f7e4bf"/></g></g></g></g></svg>