<svg xmlns="http://www.w3.org/2000/svg" width="69.595" height="67.104" viewBox="0 0 69.595 67.104"><g transform="translate(-1.537 -11.102)"><path d="M147.345,78.115a.272.272,0,0,1-.272-.272V53.173a.272.272,0,1,1,.544,0V77.842A.272.272,0,0,1,147.345,78.115Z" transform="translate(-118.858 -34.217)" fill="#996250"/><path d="M48.014,41.618,0,42.3V39.036l48.014.684Z" transform="translate(1.537 -22.867)" fill="#ffbe41"/><g transform="translate(29.613 16.324)"><path d="M156.975,67.361a.272.272,0,0,1-.272-.272V41.966a1.531,1.531,0,0,0-1.529-1.53h-.122a.272.272,0,0,1,0-.544h.122a2.076,2.076,0,0,1,2.074,2.074V67.089A.272.272,0,0,1,156.975,67.361Z" transform="translate(-154.78 -39.892)" fill="#996250"/><path d="M160.181,67.361a.272.272,0,0,1-.272-.272V41.966a1.531,1.531,0,0,0-1.53-1.53h-3.327a.272.272,0,1,1,0-.544h3.327a2.076,2.076,0,0,1,2.074,2.074V67.089A.272.272,0,0,1,160.181,67.361Z" transform="translate(-154.78 -39.892)" fill="#996250"/><path d="M163.386,67.361a.272.272,0,0,1-.272-.272V41.966a1.531,1.531,0,0,0-1.529-1.53h-6.532a.272.272,0,1,1,0-.544h6.532a2.076,2.076,0,0,1,2.074,2.074V67.089A.272.272,0,0,1,163.386,67.361Z" transform="translate(-154.78 -39.892)" fill="#996250"/><path d="M166.592,67.361a.272.272,0,0,1-.272-.272V41.966a1.531,1.531,0,0,0-1.53-1.53h-9.738a.272.272,0,1,1,0-.544h9.738a2.076,2.076,0,0,1,2.074,2.074V67.089A.272.272,0,0,1,166.592,67.361Z" transform="translate(-154.78 -39.892)" fill="#996250"/><path d="M169.8,67.361a.272.272,0,0,1-.272-.272V41.966a1.531,1.531,0,0,0-1.53-1.53H155.053a.272.272,0,1,1,0-.544H168a2.076,2.076,0,0,1,2.074,2.074V67.089A.272.272,0,0,1,169.8,67.361Z" transform="translate(-154.781 -39.892)" fill="#996250"/><path d="M173,67.361a.272.272,0,0,1-.272-.272V41.966a1.531,1.531,0,0,0-1.53-1.53H155.053a.272.272,0,1,1,0-.544H171.2a2.076,2.076,0,0,1,2.074,2.074V67.089A.272.272,0,0,1,173,67.361Z" transform="translate(-154.781 -39.892)" fill="#996250"/></g><path d="M48.622,18.531.786,14.351,1.117,11.1l47.7,5.54Z" transform="translate(0.894)" fill="#f7e4bf"/><path d="M77.844,220.372H45.659a3.991,3.991,0,0,1-3.626-2.325L28.8,189.246H94.706l-13.236,28.8A3.991,3.991,0,0,1,77.844,220.372Z" transform="translate(-23.573 -145.83)" fill="#f5efe0"/><path d="M135.727,360.84h27.116V364.5H135.727Z" transform="translate(-111.107 -286.298)" fill="#ffbe41"/><path d="M203.841,256.361a12.225,12.225,0,0,0-8.572,15.014A12.225,12.225,0,0,0,203.841,256.361Z" transform="translate(-159.493 -200.771)" fill="#2a2825"/><path d="M211.21,282.193a12.225,12.225,0,0,0-13.921,10.251A12.225,12.225,0,0,0,211.21,282.193Z" transform="translate(-161.502 -221.802)" fill="#2a2825"/><path d="M157.4,242.06l2.2-1.013v17.86l-2.2-1.013C149.1,254.069,149.1,245.886,157.4,242.06Z" transform="translate(-123.756 -188.235)" fill="#ef5b62"/><path d="M156.105,236.958l-9.2-8.957h6.673a2.525,2.525,0,0,1,2.525,2.525Z" transform="translate(-120.259 -177.555)" fill="#ef5b62"/><path d="M176.983,212.953h-1.519a2.979,2.979,0,0,1,2.979-2.979h1.519A2.979,2.979,0,0,1,176.983,212.953Z" transform="translate(-143.636 -162.798)" fill="#ef5b62"/><path d="M116.277,144.474c4.022-3.164,2.172-6.686,2.172-6.686" transform="translate(-95.185 -103.706)" fill="rgba(0,0,0,0)"/><path d="M117.2,145.652l-1.855-2.358a4.568,4.568,0,0,0,2.022-3.4,3.385,3.385,0,0,0-.251-1.411l2.656-1.4a6.2,6.2,0,0,1,.594,2.9A7.42,7.42,0,0,1,117.2,145.652Z" transform="translate(-95.185 -103.706)" fill="#0d4504"/><path d="M131.261,141.4a8.707,8.707,0,0,1-7.625-1,8.719,8.719,0,0,1,13.076-4.424A8.706,8.706,0,0,1,131.261,141.4Z" transform="translate(-101.209 -101.025)" fill="#177908"/><path d="M98.439,96.479a6.92,6.92,0,0,0,5,3.518,6.93,6.93,0,0,0-5.267-9.624A6.92,6.92,0,0,0,98.439,96.479Z" transform="translate(-79.886 -64.892)" fill="#177908"/></g></svg>