<svg xmlns="http://www.w3.org/2000/svg" xmlns:xlink="http://www.w3.org/1999/xlink" width="50" height="50" viewBox="0 0 50 50"><defs><clipPath id="a"><rect width="32" height="32" transform="translate(9 9)" fill="#fff"/></clipPath></defs><circle cx="25" cy="25" r="25" fill="#ff6514"/><g clip-path="url(#a)"><g transform="translate(8.969 9)"><path d="M28.9,7.5a.625.625,0,1,1-.625-.625A.625.625,0,0,1,28.9,7.5Zm0,0" fill="#f7e4bf"/><path d="M25.155,7.5a.625.625,0,1,1-.625-.625A.625.625,0,0,1,25.155,7.5Zm0,0" fill="#f7e4bf"/><path d="M21.4,7.5a.625.625,0,1,1-.625-.625A.625.625,0,0,1,21.4,7.5Zm0,0" fill="#f7e4bf"/><path d="M24.53,0a7.509,7.509,0,0,0-7.5,7.5,7.421,7.421,0,0,0,1.281,4.18l-1.25,3.748a.625.625,0,0,0,.873.757l3.616-1.808A7.4,7.4,0,0,0,24.53,15a7.5,7.5,0,1,0,0-15Zm0,13.751a6.188,6.188,0,0,1-2.719-.629.626.626,0,0,0-.552,0l-2.534,1.267.872-2.616a.625.625,0,0,0-.09-.57A6.19,6.19,0,0,1,18.279,7.5a6.251,6.251,0,1,1,6.251,6.251Zm0,0" fill="#f7e4bf"/><path d="M12.4,20.127a.625.625,0,1,1-.625-.625A.625.625,0,0,1,12.4,20.127Zm0,0" fill="#f7e4bf"/><path d="M21.714,19.726a.625.625,0,0,0-.884,0l-3,3a1.265,1.265,0,0,1-1.561.206,23.722,23.722,0,0,1-2-1.428.625.625,0,1,0-.779.978,25.013,25.013,0,0,0,2.1,1.5,2.523,2.523,0,0,0,3.118-.376l2.554-2.553,5.87,5.869-2.313,2.312a5.032,5.032,0,0,1-5.587,1.1A35.1,35.1,0,0,1,1.735,12.821a5.081,5.081,0,0,1,1.051-5.7L5.063,4.844l5.87,5.869L8.379,13.267A2.523,2.523,0,0,0,8,16.385c.442.692.924,1.369,1.431,2.014a.625.625,0,0,0,.982-.774c-.482-.612-.94-1.256-1.36-1.913a1.265,1.265,0,0,1,.206-1.561l3-3a.625.625,0,0,0,0-.884L5.505,3.518a.626.626,0,0,0-.884,0L1.9,6.238A6.336,6.336,0,0,0,.6,13.346,36.408,36.408,0,0,0,18.727,31.472a6.288,6.288,0,0,0,6.985-1.354l2.755-2.754a.625.625,0,0,0,0-.884Zm0,0" fill="#f7e4bf"/></g></g></svg>